<svg xmlns="http://www.w3.org/2000/svg" viewBox="0 0 128 128" width="128" height="128">
  <defs>
    <linearGradient id="iconGrad" x1="0%" y1="0%" x2="100%" y2="100%">
      <stop offset="0%" stop-color="#059669" />
      <stop offset="100%" stop-color="#0d9488" />
    </linearGradient>
    <linearGradient id="trendGrad" x1="0%" y1="100%" x2="100%" y2="0%">
      <stop offset="0%" stop-color="#34d399" />
      <stop offset="100%" stop-color="#fbbf24" />
    </linearGradient>
  </defs>

  <rect x="18" y="10" width="90" height="110" rx="16" fill="url(#iconGrad)" />

  <rect x="13" y="30" width="10" height="6" rx="3" fill="#fff" opacity="0.8" />
  <rect x="13" y="55" width="10" height="6" rx="3" fill="#fff" opacity="0.8" />
  <rect x="13" y="80" width="10" height="6" rx="3" fill="#fff" opacity="0.8" />
  <rect x="13" y="105" width="10" height="6" rx="3" fill="#fff" opacity="0.8" />

  <line x1="43" y1="35" x2="93" y2="35" stroke="#fff" stroke-width="5" stroke-linecap="round" opacity="0.4" />
  <line x1="43" y1="55" x2="83" y2="55" stroke="#fff" stroke-width="5" stroke-linecap="round" opacity="0.4" />
  <line x1="43" y1="75" x2="93" y2="75" stroke="#fff" stroke-width="5" stroke-linecap="round" opacity="0.4" />
  <line x1="43" y1="95" x2="73" y2="95" stroke="#fff" stroke-width="5" stroke-linecap="round" opacity="0.4" />

  <path d="M 43,95 L 63,75 L 78,85 L 103,50" fill="none" stroke="url(#trendGrad)" stroke-width="6" stroke-linecap="round" stroke-linejoin="round" />
  <circle cx="103" cy="50" r="5" fill="#fbbf24" />
</svg>
