<svg width="101" height="72" viewBox="0 0 101 72" fill="none" xmlns="http://www.w3.org/2000/svg">
<rect width="100.227" height="71.4578" rx="5.76117" fill="#0060AF"/>
<path fill-rule="evenodd" clip-rule="evenodd" d="M20.614 42.5763C20.614 41.6173 20.6251 39.0539 20.5999 38.738C20.6218 34.9236 17.6743 32.2328 15.8122 32.4426C14.5237 32.5478 13.4436 33.0422 12.864 34.4644C12.3264 35.7898 12.8071 37.5527 14.5938 37.9664C16.5041 38.4107 17.6199 38.7803 18.4273 39.3018C19.4166 39.9402 20.2242 41.16 20.2456 42.5778" fill="white"/>
<path fill-rule="evenodd" clip-rule="evenodd" d="M19.8156 42.5778C19.8218 41.3484 19.0926 40.2614 18.1395 39.6772C17.2941 39.161 16.1591 38.8219 14.3281 38.3848C13.7621 38.2486 13.1701 37.946 12.9868 37.5603C12.502 38.0199 12.4139 39.0534 12.4992 39.6575C12.5984 40.3562 13.4664 41.5081 14.7733 41.5532C15.5715 41.5834 16.5806 41.3916 17.0645 41.2949C17.8993 41.1252 19.2201 41.6172 19.4303 42.5762" fill="white"/>
<path fill-rule="evenodd" clip-rule="evenodd" d="M21.2892 26.4977C19.073 26.4977 17.159 27.8728 17.1657 30.2523C17.1726 32.2532 18.8828 33.3244 19.4933 34.0895C20.4154 35.2424 20.9146 36.6071 20.9662 38.6952C21.0068 40.3571 21.0047 41.9981 21.0137 42.5797H21.5027C21.4944 41.9712 21.4723 40.2291 21.4974 38.6438C21.5306 36.555 22.0477 35.2424 22.9703 34.0895C23.5861 33.3244 25.2947 32.2532 25.2984 30.2523C25.3069 27.8728 23.3936 26.4977 21.1797 26.4977" fill="white"/>
<path fill-rule="evenodd" clip-rule="evenodd" d="M21.8516 42.5763C21.8516 41.6173 21.84 39.0539 21.8647 38.738C21.843 34.9236 24.7887 32.2328 26.6524 32.4426C27.941 32.5478 29.0197 33.0422 29.6011 34.4644C30.1381 35.7898 29.6548 37.5527 27.8704 37.9664C25.9587 38.4107 24.8445 38.7803 24.0351 39.3018C23.0469 39.9402 22.2958 41.16 22.2728 42.5778" fill="white"/>
<path fill-rule="evenodd" clip-rule="evenodd" d="M22.6495 42.5778C22.6425 41.3484 23.3715 40.2614 24.3218 39.6772C25.1709 39.161 26.3071 38.8219 28.1364 38.3848C28.7036 38.2486 29.2949 37.946 29.475 37.5603C29.9621 38.0199 30.0502 39.0534 29.9647 39.6575C29.8637 40.3562 28.9978 41.5081 27.6931 41.5532C26.8954 41.5834 25.8808 41.3916 25.3989 41.2949C24.5674 41.1252 23.2429 41.6172 23.0317 42.5762" fill="white"/>
<path fill-rule="evenodd" clip-rule="evenodd" d="M23.333 46.5464L23.0497 44.5995L23.7342 44.5019C23.9006 44.4806 24.1035 44.508 24.1847 44.606C24.2743 44.7086 24.3018 44.7934 24.3191 44.9279C24.3451 45.0945 24.2939 45.2867 24.0947 45.3826V45.3885C24.317 45.3885 24.4514 45.5388 24.4906 45.7926C24.4961 45.8464 24.5132 45.9757 24.4961 46.0837C24.4509 46.3408 24.2882 46.4236 24.0129 46.4598L23.333 46.5464ZM23.7736 46.198C23.8547 46.187 23.9371 46.1828 24.0014 46.1442C24.1 46.0837 24.0911 45.9544 24.0772 45.8581C24.0431 45.647 23.9845 45.5665 23.7464 45.5997L23.5965 45.6214L23.6915 46.2086L23.7736 46.198ZM23.6304 45.2982C23.721 45.2845 23.8437 45.2741 23.8949 45.1932C23.9218 45.1392 23.956 45.0963 23.9334 44.9761C23.9055 44.8338 23.8554 44.7453 23.6629 44.7795L23.4838 44.8067L23.5546 45.3056L23.6304 45.2982Z" fill="white"/>
<path fill-rule="evenodd" clip-rule="evenodd" d="M26.2981 45.3756C26.3034 45.4118 26.3097 45.4521 26.312 45.4884C26.3673 45.8432 26.2981 46.1374 25.8739 46.2183C25.2466 46.3318 25.1265 45.9654 25.0163 45.4521L24.9575 45.1743C24.8711 44.6833 24.8339 44.3115 25.4454 44.1968C25.79 44.1378 26.0178 44.2669 26.1125 44.5896C26.1273 44.6378 26.1457 44.6853 26.1527 44.7339L25.7776 44.8068C25.7342 44.6853 25.6768 44.4686 25.5081 44.4868C25.2051 44.5213 25.3052 44.8758 25.3363 45.0241L25.449 45.5571C25.4829 45.7183 25.5502 45.9758 25.8124 45.9261C26.0252 45.886 25.9323 45.574 25.9134 45.4461" fill="white"/>
<path fill-rule="evenodd" clip-rule="evenodd" d="M26.9001 45.9647L26.7705 43.9499L27.2742 43.8052L28.3308 45.5575L27.9341 45.6692L27.6837 45.2239L27.2431 45.3484L27.3001 45.8547L26.9001 45.9647ZM27.2062 45.023L27.5246 44.9362L27.1018 44.121L27.2062 45.023Z" fill="white"/>
<path fill-rule="evenodd" clip-rule="evenodd" d="M14.4525 44.4413C14.6102 43.9665 14.7513 43.6166 15.3532 43.7719C15.6753 43.8567 15.8749 43.9901 15.8655 44.3422C15.8639 44.4205 15.8364 44.5005 15.8185 44.5778L15.4438 44.4806C15.4929 44.286 15.524 44.1318 15.2695 44.058C14.9753 43.9821 14.9036 44.3179 14.8631 44.4628L14.7107 44.9908C14.6623 45.1476 14.6042 45.4069 14.8631 45.4739C15.077 45.5279 15.2066 45.3305 15.284 45.042L15.0221 44.9765L15.1128 44.671L15.729 44.8574L15.4364 45.8754L15.1529 45.803L15.2167 45.5878H15.2087C15.0779 45.7639 14.9189 45.7824 14.7794 45.757C14.1631 45.6004 14.2275 45.2214 14.3745 44.7151" fill="white"/>
<path fill-rule="evenodd" clip-rule="evenodd" d="M16.7462 45.3012L16.5606 46.1294L16.1428 46.0446L16.588 44.1107L17.3002 44.2619C17.717 44.3467 17.8429 44.5211 17.7838 44.8808C17.7502 45.0871 17.6421 45.3092 17.3781 45.2912L17.3753 45.288C17.5985 45.3613 17.6174 45.4674 17.5784 45.6502C17.5616 45.7283 17.4456 46.2008 17.5256 46.2772L17.5284 46.3353L17.0961 46.229C17.0781 46.0982 17.1395 45.8626 17.1637 45.732C17.1879 45.6166 17.2268 45.4539 17.1024 45.393C17.0051 45.3439 16.9686 45.3463 16.8584 45.3227L16.7462 45.3012ZM16.8174 45.0016L17.0987 45.073C17.2695 45.0964 17.3645 45.0131 17.3981 44.8188C17.4286 44.6407 17.3891 44.5712 17.2358 44.5368L16.9343 44.4791L16.8174 45.0016Z" fill="white"/>
<path fill-rule="evenodd" clip-rule="evenodd" d="M19.4256 44.5426L19.8388 44.5877L19.6608 45.9474C19.5743 46.3784 19.3973 46.5667 18.8933 46.5079C18.3806 46.4467 18.2589 46.2272 18.2897 45.7927L18.4691 44.4343L18.8855 44.479L18.7068 45.807C18.6877 45.9513 18.6524 46.165 18.9249 46.191C19.1667 46.2083 19.2216 46.0574 19.249 45.8699" fill="white"/>
<path fill-rule="evenodd" clip-rule="evenodd" d="M20.2942 46.5822L20.4187 44.6381L21.2122 44.6704C21.5875 44.688 21.6855 44.9761 21.674 45.2512C21.6629 45.4184 21.6076 45.6052 21.4527 45.7065C21.3256 45.7926 21.1622 45.813 21.011 45.806L20.7523 45.7926L20.7006 46.6074L20.2942 46.5822ZM20.7638 45.4961L20.9741 45.5071C21.1449 45.513 21.2581 45.4494 21.2729 45.2134C21.2814 44.9869 21.1901 44.9483 20.9688 44.9392L20.8023 44.9338L20.7638 45.4961Z" fill="white"/>
<path fill-rule="evenodd" clip-rule="evenodd" d="M76.2779 28.3767L73.1232 33.7647C71.9324 32.8547 70.4786 32.1852 68.6234 32.1852C64.2331 32.1852 62.4496 35.2643 62.4496 37.4333C62.4496 39.0435 63.5701 41.4189 67.4764 41.4189C69.1163 41.4189 71.4471 40.3457 72.118 39.8572L68.998 46.1081C67.5108 46.3873 67.022 46.5604 65.7632 46.5971C58.7713 46.7934 55.9462 42.7519 55.948 38.6225C55.9528 33.1631 61.1111 26.5239 69.6627 26.5239C70.1865 26.5239 70.8274 26.6946 71.3754 26.8836L71.9294 26.2169" fill="white"/>
<path fill-rule="evenodd" clip-rule="evenodd" d="M89.2951 26.3861L90.1885 45.9682H83.54L83.5364 42.61H79.0027L77.5108 45.9682H70.3003L77.8387 31.985L76.1389 31.9745L79.3683 26.3861H89.2951ZM83.493 32.3767L80.93 38.0725H83.5705L83.493 32.3767Z" fill="white"/>
<path fill-rule="evenodd" clip-rule="evenodd" d="M51.7508 26.3861C55.0432 26.4035 56.9037 28.0851 56.9037 30.514C56.9037 32.7535 54.9415 34.7356 52.7875 35.7605C55.0052 36.5278 55.197 38.4107 55.197 39.7426C55.197 42.9612 51.7651 45.9682 47.3038 45.9682H37.5741L41.3693 32.1797L39.8104 32.1713L42.9972 26.3861C42.9972 26.3861 49.0735 26.3687 51.7508 26.3861V26.3861ZM48.5206 34.3256C49.2016 34.3256 50.4042 34.1633 50.7048 32.9231C51.0343 31.5767 49.9057 31.5405 49.3644 31.5405L47.4301 31.5327L46.7556 34.3256H48.5206ZM45.7859 37.786L44.8953 41.0043H47.1731C48.069 41.0043 49.2902 40.5856 49.5894 39.5383C49.885 38.4882 49.0313 37.786 48.1386 37.786H45.7859Z" fill="white"/>
<path fill-rule="evenodd" clip-rule="evenodd" d="M21.3767 48.3744C18.0078 48.3744 14.5459 47.5937 11.0884 46.0496L11.0036 46.0103L10.963 45.929C9.41144 42.8473 8.5907 39.477 8.5907 36.1793C8.5907 32.8863 9.37778 29.66 10.9303 26.5825L10.9732 26.5007L11.0596 26.4599C14.258 25.0343 17.6984 24.3123 21.2891 24.3123C24.6337 24.3123 28.206 25.1161 31.6176 26.641L31.7049 26.6777L31.7455 26.761C33.3266 29.8995 34.1605 33.2692 34.1605 36.5125C34.1605 39.7427 33.3598 42.9721 31.7766 46.1086L31.7351 46.1908L31.6471 46.229C28.4974 47.6318 24.9458 48.3744 21.3767 48.3744M11.4084 45.627C14.767 47.1138 18.1171 47.8644 21.3767 47.8644C24.8331 47.8644 28.2703 47.1535 31.3303 45.806C32.8503 42.7666 33.6208 39.6386 33.6208 36.5125C33.6208 33.3733 32.8166 30.1084 31.2955 27.0621C27.9846 25.5976 24.5269 24.821 21.2891 24.821C17.813 24.821 14.4809 25.5148 11.3794 26.8836C9.89051 29.8663 9.13271 32.992 9.13271 36.1793C9.13271 39.3722 9.92002 42.6386 11.4084 45.627Z" fill="white"/>
</svg>
