<svg width="101" height="72" viewBox="0 0 101 72" fill="none" xmlns="http://www.w3.org/2000/svg">
<rect width="100.227" height="71.4578" rx="5.76117" fill="white"/>
<path d="M21.7678 44.8628C21.78 38.0079 21.7703 31.1531 21.7727 24.2957C22.8792 24.3084 23.9832 24.3084 25.0896 24.3109C25.0774 31.1454 25.0579 37.98 25.0994 44.8145C23.9905 44.878 22.8792 44.8272 21.7678 44.8628Z" fill="#2093FD"/>
<path fill-rule="evenodd" clip-rule="evenodd" d="M8.61983 44.8831C8.57831 38.3662 8.58564 31.8492 8.61495 25.3323C9.37538 25.3637 10.1362 25.3712 10.8969 25.3788C12.0446 25.3902 13.192 25.4017 14.3377 25.4949C14.5961 25.5158 14.8602 25.5249 15.1259 25.534C16.0557 25.566 17.0058 25.5988 17.8036 26.1402C20.5881 27.8272 20.9056 32.6114 18.2286 34.5703C19.4792 35.1852 20.483 36.4149 20.698 37.858C20.9618 39.5476 20.7859 41.4176 19.782 42.8302C18.8881 44.0116 17.4812 44.7459 16.0377 44.8044C14.6993 44.8773 13.3602 44.8675 12.0212 44.8577H12.0211H12.0211C10.8871 44.8494 9.75323 44.8412 8.61983 44.8831ZM12.0662 28.5895L12.0709 29.1771C12.0827 30.5971 12.0945 32.0171 12.0515 33.4372C12.3538 33.4033 12.6637 33.3828 12.9758 33.3621H12.9758C13.998 33.2943 15.0446 33.225 15.9278 32.68C16.597 31.7628 16.6483 30.2816 15.9156 29.3847C15.0483 28.6087 13.8614 28.6038 12.7482 28.5992H12.7482C12.5165 28.5983 12.288 28.5973 12.0662 28.5895ZM12.0844 38.9029C12.0878 38.0266 12.0913 37.1506 12.1077 36.2751C12.4056 36.293 12.705 36.3034 13.0047 36.3139C13.8601 36.3437 14.7185 36.3736 15.5541 36.575C17.3664 37.0145 17.7328 39.8245 16.4138 41.0111C15.5501 41.6458 14.5089 41.6614 13.475 41.6769C12.9944 41.6841 12.5153 41.6912 12.0564 41.7606C12.0768 40.8079 12.0806 39.8552 12.0844 38.9029Z" fill="#2093FD"/>
<path fill-rule="evenodd" clip-rule="evenodd" d="M50.7919 33.9733C49.1847 31.74 46.1072 31.3309 43.6525 31.9788C40.9755 32.7054 39.107 35.546 39.1876 38.3865C39.1119 40.5258 39.8349 42.8353 41.5495 44.1361C43.2593 45.625 45.7115 45.7038 47.7876 45.1753C49.705 44.6824 51.1168 43.097 52.0767 41.3795C51.6833 41.1418 51.2831 40.9163 50.8826 40.6906C50.3283 40.3782 49.7735 40.0656 49.236 39.7204C48.6498 40.602 47.9659 41.4709 47.0183 41.9435C46.2098 42.378 45.2426 42.2789 44.4097 41.9816C43.3838 41.5014 42.7781 40.3835 42.6608 39.2503C45.7945 39.2249 48.9282 39.2351 52.0619 39.2453H52.062C52.0815 37.4261 51.891 35.4647 50.7919 33.9733ZM45.4985 36.6459C44.6637 36.6442 43.8286 36.6426 42.993 36.6563C43.5499 33.9428 48.0392 33.8843 48.5863 36.6232C47.5572 36.6499 46.5281 36.6479 45.4985 36.6459Z" fill="#2093FD"/>
<path d="M26.1082 32.0728C27.217 32.0677 28.3284 32.0753 29.4397 32.0652C29.4715 34.5119 29.447 36.9611 29.4495 39.4104C29.4812 40.2768 29.6302 41.321 30.3947 41.8266C31.3742 42.3653 32.5881 42.3754 33.6066 41.9511C34.3931 41.6564 34.8401 40.7544 34.8254 39.916C34.9011 37.2787 34.8132 34.6415 34.8596 32.0042C35.9587 32.0017 37.0579 32.0245 38.157 31.9635C38.2425 34.0978 38.1936 36.2345 38.2009 38.3712C38.1545 40.2056 37.9787 42.2281 36.7916 43.6864C35.2382 45.3862 32.7688 45.3963 30.6829 45.1753C29.171 45.0737 27.6714 44.2022 26.9704 42.7794C26.2718 41.4303 26.3768 39.8525 26.2571 38.3738C26.2596 36.2726 26.1253 34.174 26.1082 32.0728Z" fill="#2093FD"/>
<path fill-rule="evenodd" clip-rule="evenodd" d="M57.2923 25.3945C56.3014 25.3907 55.3102 25.3869 54.319 25.3805C54.301 29.0468 54.3034 32.7122 54.3057 36.3778C54.3075 39.1974 54.3093 42.0172 54.3019 44.8374C55.1889 44.7906 56.0776 44.8024 56.9665 44.8142C57.1888 44.8172 57.4111 44.8201 57.6334 44.8221C57.6139 41.9842 57.609 39.1436 57.6286 36.3056C58.1094 36.2951 58.593 36.308 59.077 36.3209C60.2257 36.3516 61.3768 36.3823 62.4989 36.0998C64.3747 35.5587 65.491 33.5566 65.7108 31.6434C65.8402 29.9411 65.4177 28.0966 64.2624 26.8338C63.2365 25.7185 61.688 25.439 60.2665 25.4085C59.2756 25.4021 58.2841 25.3983 57.2923 25.3945ZM57.8302 30.3678C57.8341 29.7725 57.838 29.1772 57.8362 28.5818C57.8537 28.5833 57.8712 28.5848 57.8886 28.5862C58.8436 28.666 59.8072 28.7466 60.7379 29.0011C62.2644 29.3441 62.5233 31.7603 61.4315 32.7308C60.6312 33.1453 59.7319 33.2259 58.8418 33.3057C58.5041 33.3359 58.1678 33.3661 57.8386 33.4143C57.8171 32.3988 57.8236 31.3833 57.8302 30.3678Z" fill="#1B49A9"/>
<path d="M78.1357 29.8954C79.3179 29.8929 80.5025 29.9284 81.6871 29.903C82.7863 32.1871 83.5996 34.6034 84.5742 36.9434C85.7295 34.6415 86.7138 32.2481 87.8471 29.931C89.0537 29.9081 90.2603 29.8903 91.4669 29.9208C89.1001 35.175 86.748 40.4394 84.4007 45.7012C84.176 46.1332 84.0857 46.7099 83.6509 46.9716C82.4956 47.0123 81.3379 46.9919 80.1826 47.0199C80.9715 45.155 81.8605 43.3282 82.5469 41.4227C82.3588 40.5766 81.9876 39.7915 81.6896 38.9836C80.4488 35.9779 79.3716 32.9011 78.1357 29.8954Z" fill="#1B49A9"/>
<path fill-rule="evenodd" clip-rule="evenodd" d="M70.7716 31.6764C68.8469 31.585 66.9417 32.7181 66.0356 34.4839C64.8974 36.669 64.8876 39.3316 65.5739 41.6691C66.2969 44.0294 68.6417 45.7241 71.0305 45.5107C72.1574 45.4947 73.1461 44.9299 74.1084 44.3802C74.216 44.3187 74.3233 44.2574 74.4304 44.1971C74.439 44.2861 74.4524 44.4201 74.4658 44.5541C74.4793 44.6881 74.4927 44.8221 74.5013 44.9111C74.8949 44.9046 75.2888 44.9099 75.6827 44.9153C76.3692 44.9246 77.0556 44.9339 77.74 44.8806C77.7387 44.4408 77.7374 44.001 77.7361 43.5612C77.7244 39.7504 77.7128 35.9398 77.7522 32.1312C76.9671 32.1201 76.1807 32.1198 75.3948 32.1195C75.1001 32.1194 74.8055 32.1192 74.511 32.1185L74.511 32.1261C74.5085 32.4487 74.5061 32.7689 74.5061 33.0891C73.3924 32.3269 72.1516 31.5926 70.7716 31.6764ZM68.8444 36.8316C69.0569 36.0236 69.6041 35.2741 70.3588 34.9489C71.7119 34.3493 73.5829 34.9108 74.1276 36.4124C74.9214 38.3331 74.6038 41.0949 72.6254 42.0807C71.4384 42.5279 69.8996 42.195 69.2108 41.0263C68.5269 39.7636 68.4414 38.2061 68.8444 36.8316Z" fill="#1B49A9"/>
</svg>
