<svg width="101" height="72" viewBox="0 0 101 72" fill="none" xmlns="http://www.w3.org/2000/svg">
<rect width="100.227" height="71.4578" rx="5.76117" fill="white"/>
<path fill-rule="evenodd" clip-rule="evenodd" d="M16.2538 42.4324L19.6552 46.6367H11.2339L16.2538 42.4324ZM15.1842 41.1337L8.59664 46.6496L8.59394 33.0838L15.1842 41.1337ZM31.0344 27.4738C31.0344 27.4738 29.5883 26.7905 27.9082 26.8903C25.9875 27.0032 24.3807 27.7384 23.4569 28.7086C22.8756 29.318 22.2331 30.0616 21.9103 30.869C21.4422 32.0372 21.3423 33.5807 21.3423 33.5807C21.3423 33.5807 20.6705 33.0116 19.8289 31.3533C18.8503 29.4245 18.5826 28.2561 18.45 26.9232C18.332 25.7534 18.5173 24.5968 18.5173 24.5968H31.0344V27.4738ZM31.0344 31.3196V39.8733C31.0344 39.8733 30.2562 40.1716 29.6215 40.1716C28.9867 40.1716 27.9058 40.0777 26.6503 39.3887C25.4041 38.7054 24.7142 37.8787 24.1794 37.1295C23.6371 36.3675 23.1892 35.3112 23.0561 34.55C22.9491 33.9411 22.8338 32.4222 23.4569 31.1877C23.7951 30.5177 24.7026 29.3694 26.4499 29.3041C27.8742 29.2495 28.664 29.6233 29.3878 30.0198C30.7654 30.7759 31.0344 31.3196 31.0344 31.3196V31.3196ZM17.4047 39.2726L19.6625 37.3941C18.9429 36.4767 18.7528 36.131 17.9484 34.9466C17.1249 33.7343 16.435 32.4005 15.8451 30.8356C15.2066 29.1404 15.0524 28.1887 15.1229 26.9232C15.2112 25.313 15.578 24.5968 15.578 24.5968H8.5907L8.59394 28.3557C8.59394 28.3557 13.9425 35.0461 17.4047 39.2726V39.2726ZM23.8559 46.6306H31.0344V41.4061C31.0344 41.4061 29.2539 42.2213 28.0965 42.2871C27.4074 42.3273 26.7387 42.3538 25.6596 42.0672C24.4601 41.7491 23.7786 41.439 22.6669 40.5237C21.7739 39.7895 20.7529 38.7054 20.7529 38.7054L18.4819 40.5954C19.5356 41.8818 20.3137 42.8182 20.552 43.0703C21.5762 44.1506 22.0102 44.5477 22.7001 44.9327C23.3897 45.3185 25.6936 45.2976 25.6936 45.2976L23.8559 46.6306Z" fill="#E94E0F"/>
<path fill-rule="evenodd" clip-rule="evenodd" d="M85.3256 41.9833C85.3256 43.4971 85.5301 45.9853 83.8317 46.5911V46.6919H90.2823V46.5911C88.5849 45.9522 88.7886 43.4971 88.7886 41.9833V29.3047C88.7886 27.7917 88.5849 25.303 90.2823 24.664V24.5632H83.8317V24.664C85.5633 25.303 85.3256 27.758 85.3256 29.3047V41.9833ZM61.6724 29.3047L73.3179 43.9343C74.8113 45.8508 75.8644 46.9611 78.2748 47.7678V28.9013C78.2748 27.0182 78.2748 25.6727 80.0408 24.664V24.5632H74.0647V24.664C75.8644 25.6727 75.8298 27.0182 75.8298 28.9013V41.6472L63.4043 26.1099L62.9284 25.4373C62.6912 25.1684 62.5556 25.0004 62.4198 24.5969V24.5632H57.462V24.664C59.2277 25.6727 59.2277 27.0182 59.2277 28.9013V42.3204C59.2277 44.2032 59.2277 45.5482 57.4288 46.5911V46.6919H63.4383V46.5911C61.6386 45.5482 61.6724 44.2032 61.6724 42.3204V29.3047ZM42.6898 33.4754V26.8839L44.9641 26.6479C47.0015 26.4462 49.1739 27.6572 49.1739 29.9779C49.1739 32.7356 46.0164 33.4754 43.8102 33.4754H42.6898ZM42.6898 44.0014V35.6944L45.0659 35.5601C48.0538 35.3918 51.2451 36.8048 51.2451 40.0668C51.2451 43.2616 48.4279 44.5395 45.6431 44.2706L42.6898 44.0014ZM39.2263 41.9498C39.2263 43.4971 39.4302 45.9522 37.7321 46.5911V46.6919H43.3343C45.8805 46.6919 48.5635 46.7931 50.9396 45.6496C53.2144 44.5732 55.0141 42.3533 55.0141 39.7637C55.0141 36.4685 52.5351 34.4503 49.4794 33.8109C51.4149 32.9705 52.8743 31.6927 52.8743 29.4393C52.8743 26.4462 50.2608 24.5632 45.7795 24.5632H37.7321V24.664C39.4645 25.303 39.2263 27.758 39.2263 29.271V41.9498Z" fill="#005B6A"/>
</svg>
