<svg width="101" height="72" viewBox="0 0 101 72" fill="none" xmlns="http://www.w3.org/2000/svg">
<rect width="100.227" height="71.4578" rx="5.76117" fill="#00529C"/>
<path fill-rule="evenodd" clip-rule="evenodd" d="M29.7119 30.9998H34.4888C36.4233 30.9998 37.8654 31.8541 37.8654 33.6525C37.8654 34.9711 37.1968 35.7055 36.0356 36.0945V36.1242C37.4197 36.4097 38.1339 37.1591 38.1339 38.4321C38.1339 40.9353 35.9459 41.4594 34.0862 41.4594H29.7119V30.9998ZM32.4788 35.1358H33.2533C34.1609 35.1358 35.0989 34.9109 35.0989 34.0261C35.0989 33.0682 34.2058 32.9775 33.2823 32.9775H32.4788V35.1358ZM32.4788 39.4816H33.2986C34.3095 39.4816 35.3657 39.3316 35.3657 38.2675C35.3657 37.1295 34.2801 37.0236 33.3276 37.0236H32.4788V39.4816Z" fill="white"/>
<path fill-rule="evenodd" clip-rule="evenodd" d="M41.7664 30.9998H45.1592L49.1621 41.4594H46.1261L45.353 39.2271H41.4543L40.6354 41.4594H37.8232L41.7664 30.9998ZM43.4634 33.1581H43.4322L42.0938 37.2494H44.6976L43.4634 33.1581Z" fill="white"/>
<path fill-rule="evenodd" clip-rule="evenodd" d="M49.5474 30.9998H53.0738L56.5857 38.1033H56.6147L56.5708 30.9998H59.1012V41.4594H55.6636L52.0316 34.3116H52.0031L52.0919 41.4594H49.5474V30.9998Z" fill="white"/>
<path fill-rule="evenodd" clip-rule="evenodd" d="M60.0406 30.9998H62.808V35.2717H62.8379L65.9617 30.9998H69.296L65.4562 35.8697L69.5936 41.4594H66.0658L62.8379 36.7094H62.808V41.4594H60.0406V30.9998Z" fill="white"/>
<path fill-rule="evenodd" clip-rule="evenodd" d="M73.0249 30.9998H77.8018C79.7358 30.9998 81.1797 31.8541 81.1797 33.6525C81.1797 34.9711 80.5112 35.7055 79.3499 36.0945V36.1242C80.7336 36.4097 81.4478 37.1591 81.4478 38.4321C81.4478 40.9353 79.2602 41.4594 77.401 41.4594H73.0249V30.9998ZM75.7931 35.1358H76.5663C77.4744 35.1358 78.411 34.9109 78.411 34.0261C78.411 33.0682 77.5192 32.9775 76.5971 32.9775H75.7931V35.1358ZM75.7931 39.4816H76.612C77.6229 39.4816 78.68 39.3316 78.68 38.2675C78.68 37.1295 77.5939 37.0236 76.6415 37.0236H75.7931V39.4816Z" fill="white"/>
<path fill-rule="evenodd" clip-rule="evenodd" d="M82.0612 30.9998H87.0016C88.8463 30.9998 90.35 31.8385 90.35 33.6379C90.35 35.0313 89.6951 35.9604 88.3563 36.2747V36.3044C89.2472 36.5447 89.3079 37.3384 89.8287 38.6123L90.841 41.4594H87.9545L87.3589 39.5724C86.7933 37.774 86.4359 37.3233 85.4091 37.3233H84.8285V41.4594H82.0612V30.9998ZM84.8285 35.3456H85.5581C86.4508 35.3456 87.5822 35.315 87.5822 34.1314C87.5822 33.1581 86.6139 32.9775 85.5581 32.9775H84.8285V35.3456Z" fill="white"/>
<mask id="mask0_0_14" style="mask-type:luminance" maskUnits="userSpaceOnUse" x="5" y="25" width="90" height="22">
<path fill-rule="evenodd" clip-rule="evenodd" d="M5.72729 46.7417H94.3707V25.7249H5.72729V46.7417Z" fill="white"/>
</mask>
<g mask="url(#mask0_0_14)">
<path fill-rule="evenodd" clip-rule="evenodd" d="M91.6034 41.4594H94.3707V30.9998H91.6034V41.4594Z" fill="white"/>
<path fill-rule="evenodd" clip-rule="evenodd" d="M23.396 25.7248H8.91074C7.15251 25.7248 5.72717 27.1958 5.72717 29.0107V29.0453V43.4567C5.72717 45.2538 7.12624 46.7147 8.86182 46.7416H23.3883C25.147 46.7416 26.5728 45.2707 26.5728 43.4567L26.5795 29.0107C26.5795 27.1958 25.1547 25.7248 23.396 25.7248V25.7248ZM10.6327 45.0577L9.84239 45.0663C8.88583 45.0663 8.11043 44.275 8.11043 43.2984L8.1059 43.1593V29.818L8.11088 29.0996C8.14666 28.1545 8.85956 27.3937 9.79348 27.3937H11.4C12.8557 27.3937 14.0364 28.6686 14.0364 30.1728C14.0364 30.9163 13.747 31.5914 13.2782 32.0821L9.17932 36.2706L13.021 40.2101C13.5165 40.7241 13.8158 41.4001 13.8158 42.1404C13.8158 43.7518 12.3905 45.0577 10.6327 45.0577V45.0577ZM22.443 45.0444L15.2806 45.0412C15.2806 45.0412 16.109 43.2387 16.109 42.123C16.109 40.7629 15.657 39.5473 14.95 38.7432L12.5001 36.2282L15.0007 33.6265C15.7448 32.9218 16.2394 31.6712 16.2394 30.2467C16.2394 29.1188 15.9296 28.1194 15.431 27.3937H17.1665C18.6227 27.3937 19.8034 28.6686 19.8034 30.1728C19.8034 30.9163 19.5145 31.5914 19.0457 32.0821L15.0251 36.2268L23.3756 44.8022C23.1111 44.9701 22.7773 45.0444 22.443 45.0444V45.0444ZM24.1922 42.367L18.2078 36.225L21.058 33.3077C21.6387 32.5775 22.0064 31.4769 22.0064 30.2467C22.0064 29.1115 21.6921 28.0879 21.1889 27.3618L22.4648 27.4001C23.4213 27.4001 24.1967 28.1929 24.1967 29.1689L24.1922 42.367Z" fill="white"/>
</g>
</svg>
