<svg width="101" height="72" viewBox="0 0 101 72" fill="none" xmlns="http://www.w3.org/2000/svg">
<rect width="100.227" height="71.4578" rx="5.76117" fill="white"/>
<path fill-rule="evenodd" clip-rule="evenodd" d="M47.3004 12.3863H52.9605V11.4335H47.3004V12.3863Z" fill="#00AB4E"/>
<path fill-rule="evenodd" clip-rule="evenodd" d="M46.2522 27.2081V28.9864H37.95V29.4799H62.7574V28.9864H54.0048V27.2081H46.2522Z" fill="#00AB4E"/>
<path fill-rule="evenodd" clip-rule="evenodd" d="M39.3715 31.8998V32.3685H61.2126V31.8998H54.0051V30.1958H46.2521V31.8998H39.3715Z" fill="#00AB4E"/>
<path fill-rule="evenodd" clip-rule="evenodd" d="M46.2522 33.0848V34.7639H42.1135V35.2338H58.7672V34.7639H54.0048V33.0848H46.2522Z" fill="#00AB4E"/>
<path fill-rule="evenodd" clip-rule="evenodd" d="M47.3004 38.2105H52.9597V37.2578H47.3004V38.2105Z" fill="#00AB4E"/>
<path fill-rule="evenodd" clip-rule="evenodd" d="M42.1136 14.1987H46.4093C47.6268 13.6888 48.9417 13.3847 50.3166 13.3847C51.7234 13.3847 53.0714 13.6739 54.3146 14.1987H58.7673V14.6923H42.1136V14.1987Z" fill="#00AB4E"/>
<path fill-rule="evenodd" clip-rule="evenodd" d="M39.3715 17.0619H42.353C42.9063 16.4449 43.5168 15.8888 44.1767 15.4109L56.4677 15.4124C57.153 15.9098 57.7841 16.4254 58.3537 17.0619H61.2126V17.5547H39.3715V17.0619Z" fill="#00AB4E"/>
<path fill-rule="evenodd" clip-rule="evenodd" d="M37.9498 20.1978H40.3042C40.6189 19.5141 40.9922 18.8716 41.4098 18.2668L59.2603 18.2854C59.6702 18.8834 60.0317 19.5233 60.3407 20.1978H62.7573V20.6674H37.9498V20.1978Z" fill="#00AB4E"/>
<path fill-rule="evenodd" clip-rule="evenodd" d="M37.2271 23.0115H39.3761C39.498 22.425 39.6581 21.8541 39.8529 21.3015L60.8132 21.306C61.0029 21.8502 61.1486 22.4311 61.2666 23.0115H63.4051V23.5065H37.2271V23.0115Z" fill="#00AB4E"/>
<path fill-rule="evenodd" clip-rule="evenodd" d="M37.2271 25.9263H39.0811V25.8585C39.0811 25.3044 39.1131 24.759 39.175 24.2239L61.4673 24.23C61.5273 24.7636 61.5526 25.3063 61.5526 25.8585V25.9263H63.4051V26.4443H37.2271V25.9263Z" fill="#00AB4E"/>
<path fill-rule="evenodd" clip-rule="evenodd" d="M47.242 48.7818C47.2887 48.7888 47.3344 48.7948 47.3785 48.7983C47.4234 48.8035 47.4781 48.805 47.542 48.805C47.7776 48.805 47.9644 48.7197 48.1012 48.5497C48.2382 48.3793 48.307 48.1442 48.307 47.8424C48.307 47.579 48.2372 47.3637 48.0976 47.1926C47.9598 47.0223 47.7809 46.9373 47.5635 46.9373C47.5353 46.9373 47.4935 46.9405 47.4398 46.946C47.3862 46.9525 47.3213 46.9628 47.242 46.9775V48.7818ZM47.242 52.5758C47.3354 52.5913 47.418 52.6031 47.4935 52.6111C47.5687 52.6183 47.6315 52.6231 47.6816 52.6231C48.0052 52.6231 48.2716 52.4985 48.4786 52.2544C48.686 52.0086 48.7899 51.6912 48.7899 51.305C48.7899 50.8826 48.6886 50.5452 48.484 50.2911C48.2803 50.0373 48.0093 49.9112 47.6703 49.9112C47.6238 49.9112 47.5235 49.9225 47.3711 49.945C47.3141 49.9532 47.271 49.9595 47.242 49.9632V52.5758ZM44.7091 53.7878C44.8662 53.6295 44.976 53.4564 45.0399 53.2678C45.1038 53.0808 45.1359 52.7789 45.1359 52.3617V47.1406C45.1359 46.7224 45.1038 46.4223 45.0399 46.2372C44.976 46.0539 44.8662 45.8828 44.7091 45.7243H47.4719C48.3783 45.7243 49.0725 45.8896 49.5567 46.2167C50.0399 46.5463 50.2801 47.0158 50.2801 47.6275C50.2801 47.9794 50.186 48.2926 49.9955 48.5654C49.8049 48.838 49.5272 49.0616 49.1628 49.2359C49.6642 49.3948 50.0425 49.6514 50.3012 50.0088C50.5583 50.3644 50.6866 50.8076 50.6866 51.3376C50.6866 51.6512 50.6371 51.9498 50.5373 52.2344C50.4372 52.5195 50.2909 52.7759 50.0977 53.0047C49.8518 53.2871 49.5665 53.4877 49.246 53.607C48.9234 53.7283 48.4786 53.7878 47.9113 53.7878H44.7091Z" fill="#0089CF"/>
<path fill-rule="evenodd" clip-rule="evenodd" d="M53.7244 51.0207C53.7244 51.5417 53.8176 51.9393 54.007 52.213C54.1971 52.4863 54.472 52.6231 54.8318 52.6231C55.2182 52.6231 55.5077 52.4891 55.703 52.219C55.8967 51.9499 55.9938 51.5494 55.9938 51.0207V47.1409C55.9938 46.7965 55.9648 46.5186 55.9044 46.3053C55.8472 46.0927 55.7307 45.8986 55.5557 45.7243H58.5051C58.3529 45.8791 58.2433 46.0452 58.1768 46.2245C58.1114 46.4016 58.078 46.707 58.078 47.1409V52.3618C58.078 52.7784 58.1114 53.0806 58.1768 53.2674C58.2433 53.4572 58.3529 53.6295 58.5051 53.7871H56.0366V52.936C55.7366 53.3017 55.414 53.5723 55.0681 53.7436C54.7217 53.9157 54.3285 54.0022 53.89 54.0022C53.5155 54.0022 53.1824 53.9357 52.893 53.8044C52.6043 53.6741 52.3538 53.478 52.1436 53.2186C51.9609 52.9865 51.8316 52.7184 51.7546 52.412C51.6773 52.1074 51.6394 51.6665 51.6394 51.0892V47.1409C51.6394 46.707 51.6078 46.4016 51.5429 46.2245C51.4795 46.0452 51.3697 45.8791 51.2111 45.7243H54.1502C53.9952 45.8836 53.8838 46.0542 53.8204 46.2388C53.755 46.4221 53.7244 46.7232 53.7244 47.1409V51.0207Z" fill="#0089CF"/>
<path fill-rule="evenodd" clip-rule="evenodd" d="M61.8001 52.3594C61.8001 52.7783 61.8322 53.0807 61.8981 53.267C61.9646 53.4568 62.0737 53.6294 62.2269 53.7872H59.2867C59.4433 53.6294 59.5547 53.4568 59.6191 53.267C59.683 53.0807 59.715 52.7783 59.715 52.3594V47.1405C59.715 46.7068 59.683 46.4015 59.6191 46.2244C59.5547 46.0456 59.4433 45.8792 59.2867 45.7249H62.2269C62.0703 45.8832 61.959 46.0538 61.8951 46.2386C61.8317 46.422 61.8001 46.7228 61.8001 47.1405V49.4224L63.4204 47.1405C63.5428 46.9744 63.6232 46.8401 63.6663 46.7371C63.7091 46.6346 63.7302 46.536 63.7302 46.4385C63.7302 46.3494 63.7035 46.2559 63.6478 46.1566C63.5926 46.0586 63.4774 45.914 63.3019 45.7249H65.9335L63.4725 49.1036L66.3636 53.7872H65.2422C64.6602 53.7872 64.2488 53.7212 64.0102 53.5874C63.77 53.4541 63.4943 53.1245 63.1779 52.5975L61.8001 50.293V52.3594Z" fill="#0089CF"/>
<path fill-rule="evenodd" clip-rule="evenodd" d="M71.0706 53.9785C69.8419 53.9785 68.8344 53.5811 68.0481 52.7877C67.2613 51.9944 66.8691 50.979 66.8691 49.744C66.8691 49.1798 66.9846 48.6288 67.2153 48.0926C67.4453 47.5561 67.7712 47.0827 68.1923 46.672C68.5788 46.3038 69.0178 46.0227 69.5111 45.8271C70.0046 45.6321 70.524 45.5335 71.0706 45.5335C72.3093 45.5335 73.3222 45.9272 74.1054 46.713C74.8907 47.4996 75.2823 48.513 75.2823 49.7563C75.2823 50.3217 75.1648 50.8762 74.9299 51.4197C74.6959 51.9642 74.3733 52.4348 73.9581 52.8338C73.576 53.2057 73.1385 53.4888 72.6468 53.6851C72.1533 53.8804 71.6277 53.9785 71.0706 53.9785M69.0848 49.4846C69.0848 50.4833 69.2734 51.2861 69.6497 51.8919C70.0251 52.4986 70.5196 52.8 71.134 52.8C71.7296 52.8 72.201 52.5641 72.5469 52.0907C72.8939 51.615 73.0671 50.96 73.0671 50.1239C73.0671 49.1242 72.8772 48.3237 72.4992 47.7219C72.1212 47.1189 71.6233 46.8185 71.0062 46.8185C70.4177 46.8185 69.9494 47.0566 69.6042 47.5331C69.2578 48.0095 69.0848 48.6596 69.0848 49.4846" fill="#0089CF"/>
<path fill-rule="evenodd" clip-rule="evenodd" d="M79.0667 45.7243C79.8025 45.7243 80.3845 45.9197 80.813 46.3106C81.2419 46.7012 81.4551 47.2277 81.4551 47.8892C81.4551 48.6318 81.2262 49.2155 80.7704 49.641C80.3134 50.0669 79.6872 50.28 78.8914 50.28C78.8027 50.28 78.6582 50.2722 78.4567 50.257H78.4306C78.7762 50.0556 79.0344 49.8033 79.1994 49.5014C79.3647 49.1975 79.4481 48.8239 79.4481 48.3792C79.4481 47.9433 79.3462 47.5976 79.1393 47.3398C78.9343 47.0842 78.6538 46.9534 78.2966 46.9489V52.3588C78.2966 52.7767 78.3289 53.0801 78.3967 53.2674C78.4611 53.4555 78.5707 53.6293 78.7246 53.7876H75.7853C75.9403 53.6293 76.0517 53.4555 76.1161 53.2674C76.1805 53.0801 76.2123 52.7767 76.2123 52.3588V47.1464C76.2123 46.7273 76.1805 46.4249 76.1161 46.2398C76.0517 46.055 75.9403 45.8839 75.7853 45.7243H79.0667Z" fill="#0089CF"/>
<path fill-rule="evenodd" clip-rule="evenodd" d="M84.4519 52.3594C84.4519 52.7783 84.4837 53.0807 84.5499 53.267C84.6159 53.4568 84.7255 53.6294 84.8799 53.7872H81.9401C82.0966 53.6294 82.2075 53.4568 82.2709 53.267C82.3348 53.0807 82.3671 52.7783 82.3671 52.3594V47.1405C82.3671 46.7068 82.3348 46.4015 82.2709 46.2244C82.2075 46.0456 82.0966 45.8792 81.9401 45.7249H84.8799C84.7224 45.8832 84.6131 46.0538 84.5486 46.2386C84.4837 46.422 84.4519 46.7228 84.4519 47.1405V52.3594Z" fill="#0089CF"/>
<path fill-rule="evenodd" clip-rule="evenodd" d="M85.6898 53.7872C85.8794 53.5666 86.0136 53.3303 86.0899 53.0779C86.1674 52.8233 86.2064 52.3862 86.2064 51.7679V47.4369C86.2064 47.0112 86.161 46.6833 86.0688 46.4497C85.9785 46.2176 85.8258 45.976 85.6151 45.7244H87.9083L91.2857 50.6592V47.4771C91.2857 47.086 91.2439 46.7631 91.1602 46.5045C91.0797 46.2476 90.9454 45.9873 90.7586 45.7244H92.8871C92.7333 45.9998 92.6217 46.2696 92.5532 46.5343C92.4836 46.7996 92.4475 47.1262 92.4475 47.5124V47.8433V53.9901C91.4092 53.8585 90.4853 53.2242 89.6834 52.0873C89.6544 52.0438 89.6341 52.014 89.619 51.9945L87.3696 48.8189V52.2436C87.3696 52.6535 87.4071 52.9656 87.4818 53.1805C87.5562 53.3966 87.684 53.5981 87.8619 53.7872H85.6898Z" fill="#0089CF"/>
<path fill-rule="evenodd" clip-rule="evenodd" d="M12.2371 48.7818C12.2841 48.7888 12.3293 48.7948 12.3739 48.7983C12.4183 48.8035 12.4727 48.805 12.5377 48.805C12.772 48.805 12.9585 48.7197 13.0945 48.5497C13.2326 48.3793 13.3009 48.1442 13.3009 47.8424C13.3009 47.579 13.231 47.3637 13.093 47.1926C12.9544 47.0223 12.775 46.9373 12.5582 46.9373C12.5294 46.9373 12.4884 46.9405 12.4347 46.946C12.3811 46.9525 12.3162 46.9628 12.2371 46.9775V48.7818ZM12.2371 52.5758C12.3303 52.5913 12.4132 52.6031 12.4884 52.6111C12.5641 52.6183 12.6267 52.6231 12.6752 52.6231C13.0016 52.6231 13.2667 52.4985 13.473 52.2544C13.6804 52.0086 13.7838 51.6912 13.7838 51.305C13.7838 50.8826 13.683 50.5452 13.4789 50.2911C13.2754 50.0373 13.0047 49.9112 12.6655 49.9112C12.6193 49.9112 12.5197 49.9225 12.366 49.945C12.309 49.9532 12.2664 49.9595 12.2371 49.9632V52.5758ZM9.70325 53.7878C9.86004 53.6295 9.97014 53.4564 10.0345 53.2678C10.099 53.0808 10.1308 52.7789 10.1308 52.3617V47.1406C10.1308 46.7224 10.099 46.4223 10.0345 46.2372C9.97014 46.0539 9.86004 45.8828 9.70325 45.7243H12.4668C13.373 45.7243 14.0669 45.8896 14.5509 46.2167C15.0343 46.5463 15.2761 47.0158 15.2761 47.6275C15.2761 47.9794 15.1804 48.2926 14.9899 48.5654C14.798 48.838 14.5216 49.0616 14.1582 49.2359C14.6597 49.3948 15.0382 49.6514 15.2951 50.0088C15.553 50.3644 15.6818 50.8076 15.6818 51.3376C15.6818 51.6512 15.6312 51.9498 15.5317 52.2344C15.4321 52.5195 15.2853 52.7759 15.0926 53.0047C14.8455 53.2871 14.5611 53.4877 14.2396 53.607C13.9185 53.7283 13.473 53.7878 12.9057 53.7878H9.70325Z" fill="#0089CF"/>
<path fill-rule="evenodd" clip-rule="evenodd" d="M18.8559 50.2675H20.3841L19.6219 47.7842L18.8559 50.2675ZM16.2119 53.7877C16.3803 53.5743 16.5163 53.3715 16.6246 53.1792C16.7311 52.9856 16.817 52.7878 16.8814 52.5879L18.6257 47.1757C18.6367 47.1405 18.6527 47.0919 18.674 47.0297C18.752 46.8098 18.791 46.634 18.791 46.5022C18.791 46.3819 18.7661 46.2651 18.714 46.1536C18.6627 46.0423 18.5672 45.8982 18.4276 45.7244H21.0593L23.1697 52.3368C23.2629 52.6285 23.3799 52.8963 23.5216 53.1434C23.6614 53.3905 23.8177 53.6061 23.9899 53.7877H20.7652C20.9292 53.5863 21.0359 53.4295 21.0862 53.3177C21.136 53.2062 21.1609 53.0854 21.1609 52.9583C21.1609 52.8811 21.156 52.8068 21.1483 52.7385C21.1386 52.6685 21.1252 52.6089 21.1068 52.5577L20.7328 51.398H18.4915L18.1435 52.5054C18.1012 52.649 18.0724 52.753 18.0606 52.819C18.0486 52.8848 18.0427 52.9426 18.0427 52.9931C18.0427 53.1322 18.0714 53.268 18.1304 53.3993C18.1889 53.5306 18.2782 53.6606 18.395 53.7877H16.2119Z" fill="#0089CF"/>
<path fill-rule="evenodd" clip-rule="evenodd" d="M24.669 53.7872C24.8589 53.5666 24.9921 53.3303 25.0691 53.0779C25.1471 52.8233 25.1858 52.3862 25.1858 51.7679V47.4369C25.1858 47.0112 25.1394 46.6833 25.0483 46.4497C24.9569 46.2176 24.8047 45.976 24.593 45.7244H26.8877L30.2641 50.6592V47.4771C30.2641 47.086 30.2231 46.7631 30.1407 46.5045C30.0578 46.2476 29.9236 45.9873 29.737 45.7244H31.8652C31.7123 45.9998 31.6009 46.2696 31.5311 46.5343C31.4608 46.7996 31.4277 47.1262 31.4277 47.5124V47.8433V53.9901C30.3865 53.8585 29.4663 53.2242 28.6623 52.0873C28.6328 52.0438 28.6115 52.014 28.5979 51.9945L26.3478 48.8189V52.2436C26.3478 52.6535 26.386 52.9656 26.4602 53.1805C26.5359 53.3966 26.6637 53.5981 26.8428 53.7872H24.669Z" fill="#0089CF"/>
<path fill-rule="evenodd" clip-rule="evenodd" d="M35.3242 52.3594C35.3242 52.7783 35.3578 53.0807 35.4233 53.267C35.4887 53.4568 35.5991 53.6294 35.7517 53.7872H32.8124C32.9699 53.6294 33.0798 53.4568 33.1442 53.267C33.2081 53.0807 33.2399 52.7783 33.2399 52.3594V47.1405C33.2399 46.7068 33.2081 46.4015 33.1442 46.2244C33.0798 46.0456 32.9699 45.8792 32.8124 45.7249H35.7517C35.5955 45.8832 35.4849 46.0538 35.4204 46.2386C35.356 46.422 35.3242 46.7228 35.3242 47.1405V49.4224L36.9445 47.1405C37.0667 46.9744 37.1491 46.8401 37.1919 46.7371C37.235 46.6346 37.2563 46.536 37.2563 46.4385C37.2563 46.3494 37.2281 46.2559 37.1729 46.1566C37.1172 46.0586 37.0023 45.914 36.8273 45.7249H39.46L36.9992 49.1036L39.8877 53.7872H38.7681C38.1858 53.7872 37.7747 53.7212 37.536 53.5874C37.2961 53.4541 37.0189 53.1245 36.7041 52.5975L35.3242 50.293V52.3594Z" fill="#0089CF"/>
</svg>
