<svg width="101" height="72" viewBox="0 0 101 72" fill="none" xmlns="http://www.w3.org/2000/svg">
<rect width="100.227" height="71.4578" rx="5.76117" fill="#EE3124"/>
<path fill-rule="evenodd" clip-rule="evenodd" d="M8.59082 46.8719H31.4837V24.2957H8.59082V46.8719Z" fill="white"/>
<path fill-rule="evenodd" clip-rule="evenodd" d="M23.8497 28.5618H11.6842L17.0713 35.5829H29.2379L23.8497 28.5618Z" fill="#ED3124"/>
<path fill-rule="evenodd" clip-rule="evenodd" d="M29.2377 35.583H17.0711L11.684 42.6035H23.8495L29.2377 35.583Z" fill="#820024"/>
<path fill-rule="evenodd" clip-rule="evenodd" d="M86.5935 40.2989H83.6271V36.8189H86.5935C87.9773 36.8189 88.4723 37.7134 88.4723 38.5498C88.4723 39.3959 87.9773 40.2989 86.5935 40.2989V40.2989ZM83.6271 30.8667H86.4048C87.5701 30.8667 88.2641 31.4729 88.2641 32.495C88.2641 33.5139 87.5701 34.1196 86.4048 34.1196H83.6271V30.8667ZM89.5341 35.3959C90.1995 35.0358 91.291 34.0217 91.291 32.37C91.291 29.7904 89.5066 28.1849 86.6334 28.1849H80.5987V42.978H86.8874C89.7314 42.978 91.4997 41.339 91.4997 38.6945C91.4997 36.7078 90.3176 35.7862 89.5341 35.3959V35.3959ZM68.8139 37.6362C68.7001 37.4443 63.5157 28.1557 63.5157 28.1557H60.5536V42.9498H63.5804V34.1121C63.8107 34.4993 68.8139 43.0694 68.8139 43.0694C68.8139 43.0694 73.7939 34.5003 74.016 34.1143V42.9498H77.0461V28.1557H74.0856C74.0856 28.1557 68.9196 37.4443 68.8139 37.6362V37.6362ZM53.8097 42.978H56.8473V28.1849H53.8097V42.978ZM48.7941 39.4145C47.9108 40.1101 46.8415 40.4759 45.7145 40.4759C42.9777 40.4759 40.8493 38.3276 40.8493 35.583C40.8493 32.838 42.9777 30.688 45.7145 30.688C46.8415 30.688 47.9108 31.0544 48.7941 31.751L48.8362 31.784L50.9468 29.7037L50.8988 29.6596C49.4547 28.429 47.6169 27.7499 45.7145 27.7499C41.2867 27.7499 37.6844 31.2645 37.6844 35.583C37.6844 39.9006 41.2867 43.414 45.7145 43.414C47.6169 43.414 49.4547 42.7365 50.8988 41.506L50.9468 41.4597L48.8362 39.3815L48.7941 39.4145Z" fill="white"/>
</svg>
