<svg width="101" height="72" viewBox="0 0 101 72" fill="none" xmlns="http://www.w3.org/2000/svg">
<rect width="100.227" height="71.4578" rx="5.76117" fill="white"/>
<path fill-rule="evenodd" clip-rule="evenodd" d="M11.4835 36.629H12.8161C13.5826 36.629 14.1975 36.6889 14.8757 37.4678C15.3512 38.0024 15.8795 39.1957 15.8795 41.1158C15.8795 41.8089 15.89 42.4912 15.7597 43.1936C15.5442 44.3044 15.0305 46.0782 12.0862 46.0782C11.301 46.0782 11.4835 46.0582 11.4835 46.0582V36.629ZM13.0017 47.7156C16.9621 47.7156 18.7379 45.9597 18.7379 41.165C18.7379 39.8963 18.3621 37.7727 17.1703 36.4742C15.941 35.145 14.3524 34.9759 13.0049 34.9759H8.59082V47.7156H13.0017Z" fill="#004F38"/>
<path fill-rule="evenodd" clip-rule="evenodd" d="M25.5089 44.417C25.5089 44.8384 25.4901 45.4051 25.0447 45.809C24.6654 46.1396 24.1364 46.1668 23.927 46.1668C23.4267 46.1668 22.9795 45.9846 22.7859 45.3716C22.7373 45.1744 22.716 44.9778 22.716 44.7883C22.716 43.8573 23.3373 43.4655 24.0294 43.3008C24.3946 43.2188 24.6348 43.1994 25.5089 43.128V44.417ZM25.5089 41.9783L24.0643 42.1185C22.5038 42.3 21.9141 42.44 21.2447 42.8777C20.1713 43.6042 20.1573 44.6654 20.1573 45.0155C20.1573 45.884 20.4208 46.5406 20.783 46.9193C21.2619 47.4697 22.0177 47.6734 22.7492 47.6734C24.5407 47.6734 25.3947 46.8651 25.3947 46.8651L25.4127 47.4409H27.8211V41.4126C27.8211 40.7324 27.8406 39.7827 27.0555 39.1057C26.6481 38.754 26.2875 38.5958 25.7357 38.5146C25.1816 38.4191 24.9862 38.3805 24.4525 38.3805C22.8246 38.3805 21.5932 38.6623 20.89 39.9017C20.5879 40.4374 20.6095 40.9745 20.6095 41.3853H22.8246C22.8426 41.0272 22.857 40.5322 23.1437 40.1872C23.2864 39.9909 23.6212 39.7121 24.2391 39.7121C24.4402 39.7121 25.0286 39.7121 25.3274 40.195C25.4901 40.4812 25.5089 40.8558 25.5089 41.2766V41.9783Z" fill="#004F38"/>
<path fill-rule="evenodd" clip-rule="evenodd" d="M44.7433 44.417C44.7433 44.8384 44.7261 45.4051 44.2748 45.809C43.9071 46.1396 43.3715 46.1668 43.1568 46.1668C42.6586 46.1668 42.2113 45.9846 42.0209 45.3716C41.9708 45.1744 41.9545 44.9778 41.9545 44.7883C41.9545 43.8573 42.5703 43.4655 43.2663 43.3008C43.6316 43.2188 43.8713 43.1994 44.7433 43.128V44.417ZM44.7433 41.9783L43.3003 42.1185C41.7341 42.3 41.1523 42.44 40.4791 42.8777C39.4106 43.6042 39.3917 44.6654 39.3917 45.0155C39.3917 45.884 39.6552 46.5406 40.0148 46.9193C40.497 47.4697 41.2584 47.6734 41.9863 47.6734C43.779 47.6734 44.6313 46.8651 44.6313 46.8651L44.6459 47.4409H47.0558V41.4126C47.0558 40.7324 47.0718 39.7827 46.2932 39.1057C45.8841 38.754 45.5177 38.5958 44.9701 38.5146C44.4174 38.4191 44.224 38.3805 43.6866 38.3805C42.0581 38.3805 40.8275 38.6623 40.1275 39.9017C39.8244 40.4374 39.8448 40.9745 39.8448 41.3853H42.0581C42.0785 41.0272 42.0938 40.5322 42.3791 40.1872C42.5167 39.9909 42.8522 39.7121 43.477 39.7121C43.6755 39.7121 44.2643 39.7121 44.5673 40.195C44.7261 40.4812 44.7433 40.8558 44.7433 41.2766V41.9783Z" fill="#004F38"/>
<path fill-rule="evenodd" clip-rule="evenodd" d="M81.1386 47.4409H78.6203V42.0463C78.6203 41.6982 78.6203 41.4131 78.5854 41.1181C78.5668 40.8365 78.4794 39.9177 77.3824 39.9177C77.0908 39.9177 76.8443 39.9909 76.6857 40.056C75.9425 40.3968 75.9247 40.9942 75.9085 41.472V47.4409H73.38V38.6106H75.9085V39.6164C76.5454 39.0522 77.1167 38.4361 78.5313 38.4361C79.7222 38.4361 80.3111 38.8921 80.5543 39.1738C81.1159 39.7982 81.1159 40.6105 81.1386 41.2443V47.4409Z" fill="#004F38"/>
<path fill-rule="evenodd" clip-rule="evenodd" d="M37.5421 47.4409H35.0215V42.0463C35.0215 41.6982 35.0215 41.4131 34.981 41.1181C34.9665 40.8365 34.8789 39.9177 33.7689 39.9177C33.4919 39.9177 33.2431 39.9909 33.0852 40.056C32.3382 40.3968 32.317 40.9942 32.3009 41.472V47.4409H29.774V38.6106H32.3009V39.6164C32.9442 39.0522 33.5098 38.4361 34.9283 38.4361C36.1218 38.4361 36.7044 38.8921 36.953 39.1738C37.521 39.7982 37.521 40.6105 37.5421 41.2443V47.4409Z" fill="#004F38"/>
<path fill-rule="evenodd" clip-rule="evenodd" d="M48.902 38.6061H51.4296V39.6346C51.9126 39.2015 52.7658 38.4261 54.2849 38.4261C56.0163 38.4261 56.4984 39.4551 56.619 39.789C57.6482 38.8014 58.3288 38.4261 59.3195 38.4261C59.8009 38.4261 60.1363 38.5052 60.4571 38.6212C61.8119 39.1369 61.8451 40.3396 61.8667 41.1164V47.4323H59.3042V41.6813C59.2881 41.0539 59.2703 40.704 59.1024 40.4249C59.0741 40.3543 58.8213 39.9119 58.1852 39.9119C57.9705 39.9119 57.5583 39.9643 57.363 40.0719C56.6605 40.4089 56.6321 40.9862 56.619 41.4598V47.4323H54.1147V41.7156C54.1147 41.0383 54.1271 39.9119 52.9813 39.9119C52.7277 39.9119 52.2788 39.9842 52.057 40.1072C51.4296 40.4926 51.4119 41.0539 51.4296 41.8398V47.4323H48.902V38.6061Z" fill="#004F38"/>
<path fill-rule="evenodd" clip-rule="evenodd" d="M69.3206 42.8327C69.3206 43.3384 69.3005 43.8152 69.2503 44.3039C69.1967 44.7883 69.1142 45.7676 68.3551 46.1799C68.1371 46.2831 67.9085 46.3375 67.6729 46.3375C66.241 46.3375 66.113 44.8483 66.0808 44.3039C66.0489 43.8971 66.0249 43.4966 66.0249 43.1019C66.0249 42.7504 66.0489 42.2602 66.1018 41.6819C66.1528 41.2144 66.2543 40.318 66.9841 39.8964C67.2344 39.7717 67.4743 39.7195 67.7515 39.7195C69.1142 39.7195 69.2348 41.1327 69.2674 41.6819C69.3005 42.0676 69.3206 42.4575 69.3206 42.8327M71.8948 42.8778C71.8948 42.0972 71.8948 40.6318 71.0214 39.634C69.9585 38.3806 68.4401 38.3806 67.9085 38.3806C67.2845 38.3806 65.8523 38.4063 64.7304 39.415C63.4597 40.5441 63.4597 42.3366 63.4597 43.247C63.4597 44.9717 63.8511 46.7981 66.0489 47.4323C66.6885 47.6291 67.0302 47.6608 67.6729 47.6608C68.278 47.6608 69.7819 47.6608 70.9008 46.4239C71.8948 45.3342 71.8948 43.6918 71.8948 42.8778" fill="#004F38"/>
<path fill-rule="evenodd" clip-rule="evenodd" d="M8.59082 17.1499V23.2098H21.7328V19.9096L8.59082 17.1499Z" fill="#F15B22"/>
<path fill-rule="evenodd" clip-rule="evenodd" d="M37.4525 23.2098L21.7296 17.1499L21.7329 19.9096L37.4525 23.2098Z" fill="#FFC222"/>
<path fill-rule="evenodd" clip-rule="evenodd" d="M21.7295 23.2098H37.4465L21.7295 19.9095V23.2098Z" fill="#F7931D"/>
<path fill-rule="evenodd" clip-rule="evenodd" d="M37.4487 23.2043V23.2098L70.4638 30.1472V23.2043H37.4487Z" fill="#F15B22"/>
<path fill-rule="evenodd" clip-rule="evenodd" d="M91.6341 34.5949V23.204H70.4648V30.1496L91.6341 34.5949Z" fill="#F7931D"/>
<path fill-rule="evenodd" clip-rule="evenodd" d="M70.4637 30.1496L37.4557 23.2119L70.4637 34.6003V30.1496Z" fill="#FFC222"/>
</svg>
