<svg width="101" height="72" viewBox="0 0 101 72" fill="none" xmlns="http://www.w3.org/2000/svg">
<rect width="100.227" height="71.4578" rx="5.76117" fill="#108EE9"/>
<path fill-rule="evenodd" clip-rule="evenodd" d="M21.6339 24.2957H21.2999C18.5236 24.354 15.7891 25.4628 13.7728 27.3702C11.4092 29.5545 10.0528 32.7374 10.0227 35.9454V36.2439C10.0795 39.3852 11.3975 42.4948 13.6927 44.6556C15.7256 46.6165 18.5119 47.7586 21.34 47.8053H21.6674C25.4893 47.7619 29.1676 45.626 31.1555 42.3797C32.856 39.6886 33.3788 36.3039 32.6238 33.2176C31.9907 30.5549 30.3937 28.1289 28.1821 26.5082C26.3028 25.1077 23.9776 24.339 21.6339 24.2957ZM16.4439 33.8479C17.523 34.163 18.6739 33.9713 19.7246 33.6328C20.3036 33.4423 20.8736 33.2245 21.4436 33.0067L21.4436 33.0067C22.3652 32.6546 23.2867 32.3024 24.2465 32.0655C25.5311 31.7654 26.9743 32.0071 28.0033 32.8575C28.2069 33.0527 28.2065 33.3347 28.206 33.6021C28.2059 33.6682 28.2058 33.7334 28.2088 33.7962C28.1973 34.6569 28.2014 35.5178 28.2055 36.3787V36.379V36.379V36.379V36.3791V36.3791C28.2115 37.6478 28.2175 38.9164 28.1737 40.1838C28.0187 40.118 27.8645 40.0481 27.7101 39.9782L27.71 39.9781C27.0742 39.69 26.4349 39.4002 25.7198 39.3868C24.2287 39.305 22.8503 39.799 21.4693 40.2939L21.4693 40.2939C20.3456 40.6966 19.2201 41.1 18.0308 41.1942C16.9517 41.2693 15.8242 41.0142 14.9488 40.3656C14.7695 40.1178 14.7785 39.8077 14.7872 39.5042C14.7908 39.3807 14.7943 39.2584 14.7851 39.1417C14.8018 38.3713 14.7944 37.5995 14.787 36.8276V36.8276C14.7752 35.583 14.7633 34.3383 14.852 33.0993C15.0488 33.1868 15.2383 33.291 15.4277 33.3951L15.4277 33.3952C15.7541 33.5746 16.0803 33.754 16.4439 33.8479ZM39.0899 30.151C38.499 30.1547 37.9083 30.1584 37.3177 30.1514C37.3169 32.1305 37.3169 34.1101 37.3169 36.0899C37.3169 38.0696 37.3169 40.0496 37.3161 42.0296C37.9728 42.0304 38.6291 42.0304 39.2855 42.0304H39.29C39.9476 42.0304 40.6053 42.0304 41.2633 42.0312C42.2205 42.0329 43.1877 41.8495 44.0429 41.4077C46.3181 40.2939 47.636 37.6161 47.2001 35.1334C46.8392 32.549 44.5775 30.3531 41.9499 30.1781C40.9969 30.1389 40.0433 30.1449 39.0899 30.151H39.0899ZM39.804 38.5024C39.8089 36.5702 39.8138 34.638 39.7967 32.7058C40.0519 32.7136 40.3086 32.7091 40.5655 32.7047C41.1274 32.6949 41.6903 32.6851 42.2405 32.8041C43.612 33.1176 44.6693 34.3931 44.7662 35.787C44.9116 37.1743 44.1047 38.6065 42.8218 39.1734C42.1265 39.5014 41.3622 39.4855 40.6058 39.4697C40.3356 39.4641 40.0664 39.4584 39.8017 39.4685L39.804 38.5024ZM51.6201 34.955C51.7002 32.379 54.0238 30.0647 56.6364 30.1531C59.1972 30.1264 61.4456 32.3906 61.5475 34.9167C61.5741 36.3679 61.57 37.8197 61.5659 39.2714V39.2715V39.2715V39.2716C61.5633 40.1899 61.5607 41.1082 61.5659 42.0262L61.5642 42.0262H61.5635C60.7341 42.0279 59.9063 42.0296 59.0786 42.0262C59.0744 41.6014 59.0748 41.1765 59.0752 40.7519V40.7509C59.0757 40.3259 59.0761 39.9012 59.0719 39.4769C58.0953 39.4818 57.1193 39.4809 56.1435 39.48H56.1431H56.143H56.1429H56.1428C55.4598 39.4794 54.7769 39.4788 54.094 39.4802C54.0915 39.7968 54.0927 40.1137 54.0939 40.4306V40.4307V40.4307V40.4318C54.096 40.9672 54.098 41.5029 54.0823 42.0379C53.5311 42.0246 52.9806 42.0261 52.4304 42.0275H52.4302H52.4293H52.4292H52.4292C52.1544 42.0283 51.8797 42.029 51.605 42.0279C51.6081 41.1712 51.6058 40.3142 51.6035 39.4573V39.4555C51.5996 37.9548 51.5956 36.4543 51.6201 34.955ZM54.7304 33.5578C54.0525 34.2889 54.0723 35.2755 54.0912 36.221C54.096 36.4613 54.1007 36.699 54.094 36.9292C54.7568 36.9298 55.4199 36.9294 56.0831 36.929H56.0831H56.0832H56.085C57.0808 36.9284 58.0766 36.9278 59.0719 36.9308C59.0657 36.7015 59.071 36.465 59.0764 36.2259C59.0972 35.3018 59.1189 34.3393 58.4806 33.6095C57.5902 32.4423 55.6525 32.4156 54.7304 33.5578ZM65.9174 34.9817C65.9909 32.7141 67.7665 30.6099 70.02 30.2281C71.6971 29.9063 73.4945 30.5649 74.587 31.8688C75.4322 32.7975 75.8632 34.0546 75.8632 35.3018C75.8665 36.7968 75.8654 38.2909 75.8643 39.7854V39.7856C75.8637 40.5329 75.8632 41.2803 75.8632 42.0279C75.5814 42.0296 75.2995 42.0286 75.0175 42.0276H75.0174C74.4735 42.0256 73.9293 42.0237 73.3859 42.0412C73.368 40.7709 73.3708 39.5 73.3737 38.2291C73.3759 37.2515 73.3781 36.274 73.3709 35.2968C73.3842 34.3898 72.8981 33.4861 72.103 33.0359C71.2778 32.5424 70.1603 32.6157 69.4036 33.2093C68.7488 33.6978 68.3829 34.5115 68.3946 35.3218C68.3908 36.5995 68.3914 37.8766 68.3919 39.1538C68.3923 40.1117 68.3927 41.0696 68.3913 42.0279C68.0882 42.0267 67.7851 42.0272 67.482 42.0278C66.9516 42.0288 66.4211 42.0297 65.8906 42.0212C65.9084 40.8901 65.9051 39.7587 65.9019 38.6271V38.6266C65.8984 37.4115 65.8949 36.1964 65.9174 34.9817ZM81.0115 32.454C81.972 30.96 83.746 29.9963 85.5384 30.1664C87.5646 30.2914 89.362 31.8321 89.9233 33.7579C90.1305 34.408 90.1403 35.0872 90.1502 35.7658V35.766C90.1558 36.1541 90.1614 36.542 90.2039 36.9242V42.0146C89.5675 42.0321 88.9311 42.0299 88.2946 42.0277L88.293 42.0277C88.0814 42.027 87.8698 42.0262 87.6582 42.0262C87.6571 41.7524 87.6576 41.4784 87.6581 41.2043C87.6591 40.6256 87.6601 40.0467 87.6465 39.4685C86.6389 39.4838 85.6306 39.4817 84.6222 39.4796C83.9738 39.4783 83.3254 39.4769 82.6769 39.4802C82.6761 39.9046 82.6761 40.3289 82.6761 40.7535C82.6761 41.178 82.6761 41.6027 82.6752 42.0279H80.1863C80.1854 40.9333 80.1854 39.8391 80.1854 38.7451C80.1854 37.6511 80.1854 36.5573 80.1846 35.4636C80.1729 34.4098 80.4252 33.3394 81.0115 32.454ZM83.3 33.5745C82.6353 34.3029 82.6551 35.2816 82.6741 36.2198V36.2203C82.6789 36.4609 82.6837 36.6988 82.6769 36.9292C83.784 36.9303 84.8911 36.9299 85.9976 36.9295H85.998C86.551 36.9293 87.1038 36.9292 87.6565 36.9292C87.6491 36.694 87.6543 36.4512 87.6596 36.2059V36.2058C87.6793 35.2858 87.6998 34.3298 87.0602 33.6045C86.1615 32.4357 84.2154 32.4206 83.3 33.5745Z" fill="white"/>
</svg>
