<svg width="101" height="72" viewBox="0 0 101 72" fill="none" xmlns="http://www.w3.org/2000/svg">
<rect width="100.227" height="71.4578" rx="5.76117" fill="#FFC134"/>
<rect x="9.70679" y="28.3355" width="12.3599" height="12.8624" fill="white"/>
<path fill-rule="evenodd" clip-rule="evenodd" d="M24.1512 30.6066C23.309 32.4107 23.2669 33.4295 23.2669 34.5757C23.2669 35.7218 23.309 36.7406 24.1512 38.5448C24.1804 38.6115 24.2145 38.6819 24.2503 38.7558C24.4992 39.2696 24.8297 39.9516 24.1302 40.731C23.4774 41.3889 22.7405 41.2616 22.2562 40.9857C22.5299 41.4951 22.6352 42.2379 22.0035 42.8747C21.2094 43.5799 20.5171 43.2239 20.0029 42.9595C19.9445 42.9295 19.8884 42.9007 19.8348 42.8747C18.045 42.0257 17.0343 41.9832 15.8973 41.9832C14.7603 41.9832 13.7496 42.0257 11.9598 42.8747C11.9018 42.9028 11.8409 42.9345 11.7774 42.9676C11.2647 43.2346 10.5779 43.5923 9.79104 42.8747C9.15937 42.2167 9.26465 41.4738 9.53837 40.9857C9.03303 41.2616 8.29607 41.3889 7.66439 40.731C6.94479 39.9292 7.29814 39.2305 7.56035 38.712C7.5897 38.6539 7.6179 38.5982 7.64333 38.5448C8.48557 36.7406 8.52769 35.7218 8.52769 34.5757C8.52769 33.4295 8.48557 32.4107 7.64333 30.6066C7.61421 30.5399 7.58009 30.4694 7.54428 30.3955C7.29534 29.8818 6.96488 29.1998 7.66439 28.4204C8.31713 27.7836 9.05409 27.8898 9.53837 28.1657C9.26465 27.6563 9.15937 26.9134 9.79104 26.2767C10.5864 25.5513 11.2795 25.9075 11.7939 26.1718C11.8515 26.2014 11.9068 26.2298 11.9598 26.2554C13.7496 27.1044 14.7603 27.1469 15.8973 27.1469C17.0343 27.1469 18.045 27.1044 19.8348 26.2554C19.9009 26.2261 19.9708 26.1917 20.0441 26.1556C20.5538 25.9047 21.2304 25.5715 22.0035 26.2767C22.6352 26.9346 22.5299 27.6775 22.2562 28.1657C22.7615 27.8898 23.4774 27.7624 24.1302 28.4204C24.8498 29.2221 24.4964 29.9209 24.2342 30.4394C24.2049 30.4974 24.1767 30.5532 24.1512 30.6066ZM17.1396 36.4859L21.3087 40.0093L17.8134 35.7855C17.8134 35.7855 17.2659 35.2124 17.2659 34.5757C17.2659 33.9389 17.8134 33.3658 17.8134 33.3658L21.3297 29.1421L21.3087 29.1208L17.1396 32.6654C17.1396 32.6654 16.5711 33.2173 15.9394 33.2173C15.3077 33.2173 14.7392 32.6654 14.7392 32.6654L10.5491 29.1208L10.528 29.1421L14.0444 33.3658C14.0444 33.3658 14.5918 33.9389 14.5918 34.5757C14.5918 35.2124 14.0444 35.7855 14.0444 35.7855L10.528 40.0093H10.5491L14.7392 36.4859C14.7392 36.4859 15.3077 35.9341 15.9394 35.9341C16.5711 35.9341 17.1396 36.4859 17.1396 36.4859Z" fill="url(#paint0_radial_0_21)"/>
<path d="M14.5918 34.5757C14.5918 33.9389 14.0443 33.3659 14.0443 33.3659L10.5911 29.227L13.2652 33.8965C13.5179 34.321 13.5179 34.8516 13.2652 35.2761L10.528 40.0093L14.0443 35.7855C14.0443 35.7855 14.5918 35.2124 14.5918 34.5757Z" fill="url(#paint1_linear_0_21)"/>
<path d="M16.7395 32.3046C16.2342 32.7079 15.5604 32.7715 14.9919 32.4744L13.4758 31.6042L14.7392 32.6654C14.7392 32.6654 15.3077 33.2173 15.9394 33.2173C16.5711 33.2173 17.1396 32.6654 17.1396 32.6654L21.3087 29.1208L22.0667 28.3143L16.7395 32.3046Z" fill="url(#paint2_linear_0_21)"/>
<path d="M22.2772 40.9644L21.3297 39.9881L21.3087 40.0093L17.1396 36.4859C17.1396 36.4859 16.5711 35.9341 15.9394 35.9341C15.3077 35.9341 14.7392 36.4859 14.7392 36.4859L13.4758 37.5472V37.5472L14.6339 36.9104C15.3498 36.5072 16.2342 36.5708 16.908 37.059L22.2772 40.9644Z" fill="url(#paint3_linear_0_21)"/>
<path d="M14.9077 40.7734L13.9602 39.9668C13.9602 39.9668 13.8338 39.8395 13.6865 39.8395C13.5391 39.8395 13.4127 39.9668 13.4127 39.9668L12.4652 40.7734V40.7734L13.2653 39.8183C13.2653 39.8183 13.3917 39.6909 13.3917 39.5423C13.3917 39.3938 13.2653 39.2664 13.2653 39.2664L12.4652 38.3113V38.3113L13.4127 39.1178C13.4127 39.1178 13.5391 39.2452 13.6865 39.2452C13.8338 39.2452 13.9602 39.1178 13.9602 39.1178L14.9077 38.3113V38.3113L14.1076 39.2664C14.1076 39.2664 13.9812 39.3938 13.9812 39.5423C13.9812 39.6909 14.1076 39.8183 14.1076 39.8183L14.9077 40.7734V40.7734Z" fill="white"/>
<path d="M20.5928 30.0123L21.3297 30.6278V30.6278L20.6981 29.8849L20.5928 30.0123Z" fill="white"/>
<path d="M20.4243 29.5666L19.94 28.9935C19.94 28.9935 19.7295 28.76 19.7295 28.5265C19.7295 28.2718 19.94 28.0596 19.94 28.0596L21.3087 26.404V26.404L19.6663 27.7837C19.6663 27.7837 19.4347 27.9959 19.2031 27.9959C18.9504 27.9959 18.7398 27.7837 18.7398 27.7837L17.8555 26.9983C17.7923 27.0195 17.7292 27.0195 17.666 27.0408L18.4872 28.0171C18.4872 28.0171 18.6977 28.2506 18.6977 28.4841C18.6977 28.7388 18.4872 28.951 18.4872 28.951L17.1185 30.6066V30.6066L18.7609 29.227C18.7609 29.227 18.9925 29.0147 19.2241 29.0147C19.4768 29.0147 19.6874 29.227 19.6874 29.227L20.2348 29.6939" fill="white"/>
<path d="M20.2349 29.7151L20.4244 29.8849L20.5928 29.7364L20.4244 29.5666" fill="#EAEAEA"/>
<path fill-rule="evenodd" clip-rule="evenodd" d="M35.753 38.6297H35.7951H35.8162V39.9881H37.5007V25.7885H35.732V31.6678H35.6899C35.1424 30.7764 34.1738 30.1184 32.5104 30.1184C29.731 30.1184 28.3834 32.4107 28.3834 35.0002C28.3834 37.6321 29.6047 40.2215 32.4893 40.2215C34.1949 40.2215 35.2898 39.3513 35.753 38.6297ZM35.7109 35.1912C35.7109 36.8043 34.8897 38.7995 32.8894 38.7995C30.9944 38.7995 30.1942 36.6557 30.2364 35.1487C30.1942 33.3871 30.9523 31.5617 32.8683 31.5617C34.7844 31.5617 35.7109 33.3871 35.7109 35.1912Z" fill="#1D1D1B"/>
<path fill-rule="evenodd" clip-rule="evenodd" d="M39.2694 28.1869H41.2697V26.1705H39.2694V28.1869ZM41.1644 30.3306H39.3957V39.9881H41.1644V30.3306Z" fill="#1D1D1B"/>
<path fill-rule="evenodd" clip-rule="evenodd" d="M46.8917 44.2119C50.3449 44.2119 51.8398 42.5139 51.8398 39.5848H51.8188V30.3519H50.1764V31.7952H50.1343C49.6079 30.7339 48.6604 30.1184 46.9759 30.1184C44.0912 30.1184 42.7015 32.7715 42.7015 35.2549C42.7015 37.7594 44.0702 40.0093 46.8075 40.0093C48.0287 40.0093 49.271 39.4999 50.029 38.5023H50.0711V39.4574C50.0711 41.4951 48.9552 42.7686 47.1022 42.7686C45.8178 42.7686 44.9966 42.5139 43.6491 41.8983L43.4596 43.5539C44.9966 44.0845 45.881 44.2119 46.8917 44.2119ZM47.2707 31.5405C49.1447 31.5405 50.0711 33.2597 50.0711 35.2761C50.0711 37.0802 48.9131 38.566 47.2707 38.566C45.6073 38.566 44.5966 36.9741 44.5966 35.1488C44.5966 33.4932 45.4809 31.5405 47.2707 31.5405Z" fill="#1D1D1B"/>
<path fill-rule="evenodd" clip-rule="evenodd" d="M53.3558 28.1869H55.3562V26.1705H53.3558V28.1869ZM55.2298 30.3306H53.4611V39.9881H55.2298V30.3306Z" fill="#1D1D1B"/>
<path fill-rule="evenodd" clip-rule="evenodd" d="M58.4725 25.7885H57.2933V39.9881H58.4725V38.4599H58.5146C59.1463 39.6909 60.1359 40.2215 61.5045 40.2215C64.1365 40.2215 65.442 38.0354 65.442 35.17C65.442 32.2409 64.326 30.1184 61.5045 30.1184C59.6305 30.1184 58.683 31.498 58.5146 31.965H58.4725V25.7885ZM58.4725 35.17C58.4725 33.4083 59.1463 31.1372 61.315 31.1372C63.5891 31.1372 64.1576 33.3022 64.1576 35.17C64.1576 37.0378 63.568 39.2027 61.315 39.2027C59.2094 39.2027 58.4725 36.9317 58.4725 35.17Z" fill="#1D1D1B"/>
<path fill-rule="evenodd" clip-rule="evenodd" d="M72.6642 38.4387H72.6852V39.9881H73.8433C73.7591 39.3301 73.7591 38.757 73.7591 37.9717V33.7055C73.7591 31.1797 72.7484 30.0972 70.3901 30.0972C69.5479 30.0972 68.3056 30.3943 67.5686 30.7552V31.9013C68.453 31.3495 69.4005 31.116 70.3901 31.116C71.9904 31.116 72.5799 31.9438 72.5799 33.5993V34.0875H72.3483C69.8637 34.0875 66.4526 34.2361 66.4526 37.4835C66.4526 38.375 66.8948 40.2216 69.611 40.2216C70.8112 40.2216 72.1378 39.5848 72.6642 38.4387ZM72.2641 35.1275H72.601H72.622V35.7218C72.622 36.7619 72.5589 39.2028 69.7795 39.2028C68.6846 39.2028 67.7792 38.7358 67.7792 37.4623C67.7792 35.3398 70.2217 35.1275 72.2641 35.1275Z" fill="#1D1D1B"/>
<path d="M75.5699 32.623C75.5699 31.8801 75.5699 31.116 75.4857 30.3519H76.6227V32.0711H76.6649C77.0649 31.2009 77.7808 30.1184 79.7601 30.1184C82.1184 30.1184 83.0238 31.7103 83.0238 33.8328V40.0093H81.8446V34.13C81.8446 32.3046 81.2129 31.1372 79.5706 31.1372C77.4018 31.1372 76.728 33.0475 76.728 34.6606V40.0093H75.5489V32.623H75.5699Z" fill="#1D1D1B"/>
<path d="M84.7924 25.7885H85.9716V34.2997L90.2459 30.3307H91.762L87.0875 34.6181L92.3305 39.9881H90.6881L85.9505 35.0214V39.9881H84.7714V25.7885H84.7924Z" fill="#1D1D1B"/>
<path fill-rule="evenodd" clip-rule="evenodd" d="M76.4543 41.1767H75.8857V45.7613H76.4332V45.3156H76.4753C76.6227 45.549 76.9807 45.825 77.5281 45.825C78.4546 45.825 78.8546 44.976 78.8546 44.127C78.8546 43.2992 78.4125 42.5563 77.5071 42.5563C76.9596 42.5563 76.6438 42.7685 76.4753 43.0657H76.4543V41.1767ZM76.4543 44.2119C76.4543 43.6388 76.7701 43.0445 77.3807 43.0445C77.9913 43.0445 78.244 43.6388 78.223 44.1906C78.223 44.6788 77.9703 45.3792 77.3597 45.3792C76.728 45.3792 76.4543 44.7425 76.4543 44.2119Z" fill="#1D1D1B"/>
<path d="M79.1494 46.6315C79.2126 46.6527 79.3179 46.674 79.4231 46.674C79.9285 46.674 80.0969 45.9735 80.0969 45.9099C80.0969 45.8462 80.0338 45.6764 79.9916 45.5703L78.9388 42.6624H79.5705L80.4128 45.2519H80.4338L81.2761 42.6624H81.8446L80.7075 45.8462C80.497 46.4405 80.2654 47.1409 79.5074 47.1409C79.3179 47.1409 79.2126 47.1197 79.1283 47.0985L79.1494 46.6315Z" fill="#1D1D1B"/>
<path fill-rule="evenodd" clip-rule="evenodd" d="M84.5187 41.4951H83.2764V45.7613H84.5187C85.9084 45.7613 86.7717 45.0396 86.7717 43.5963C86.7717 42.2804 85.782 41.4951 84.5187 41.4951ZM84.5187 45.2307H83.887H83.8659V42.0257H84.5818C85.4662 42.0257 86.14 42.62 86.14 43.6176C86.14 44.7213 85.5715 45.2307 84.5187 45.2307Z" fill="#1D1D1B"/>
<path fill-rule="evenodd" clip-rule="evenodd" d="M87.2981 41.4951H88.4562C89.3405 41.4951 89.9512 41.7922 89.9512 42.5775C89.9512 43.1718 89.6143 43.469 89.0668 43.5963V43.6176C89.6353 43.66 90.0564 44.0421 90.0564 44.6364C90.0564 45.549 89.2984 45.7825 88.4351 45.7825H87.2981V41.4951ZM87.9298 43.3204H88.2456C88.8352 43.3204 89.3405 43.2567 89.3405 42.6412C89.3405 42.1318 88.9194 42.0045 88.5615 42.0045H87.9298V43.3204ZM88.372 45.2731H87.9087V43.8086H88.3088C88.8352 43.8086 89.4037 43.9147 89.4037 44.5727C89.4037 45.167 88.9194 45.2731 88.372 45.2731Z" fill="#1D1D1B"/>
<path d="M92.6253 42.153C92.3095 42.0257 92.141 41.9832 91.8252 41.9832C91.4883 41.9832 91.0882 42.1106 91.0882 42.5563C91.0882 43.3841 92.9201 43.1931 92.9201 44.5939C92.9201 45.5066 92.2252 45.8674 91.362 45.8674C91.0672 45.8674 90.7724 45.7825 90.4987 45.6976L90.5618 45.1245C90.7724 45.2094 91.1303 45.3368 91.4462 45.3368C91.7831 45.3368 92.2884 45.1458 92.2884 44.6364C92.2884 43.6812 90.4565 43.9359 90.4565 42.62C90.4565 41.8559 91.0461 41.4526 91.8252 41.4526C92.0989 41.4526 92.4358 41.4951 92.7306 41.6012L92.6253 42.153Z" fill="#1D1D1B"/>
<defs>
<radialGradient id="paint0_radial_0_21" cx="0" cy="0" r="1" gradientUnits="userSpaceOnUse" gradientTransform="translate(17.1046 32.9086) scale(10.0102 10.0864)">
<stop offset="0.1684" stop-color="#F29020"/>
<stop offset="0.3042" stop-color="#F18D21"/>
<stop offset="0.4222" stop-color="#F08224"/>
<stop offset="0.5333" stop-color="#ED702A"/>
<stop offset="0.5765" stop-color="#EB672D"/>
<stop offset="0.6167" stop-color="#EA5E2F"/>
<stop offset="0.6834" stop-color="#E74433"/>
<stop offset="0.7143" stop-color="#E63635"/>
<stop offset="0.7553" stop-color="#E43231"/>
<stop offset="0.8001" stop-color="#DE2425"/>
<stop offset="0.8367" stop-color="#D71416"/>
<stop offset="0.9694" stop-color="#BA1819"/>
</radialGradient>
<linearGradient id="paint1_linear_0_21" x1="10.5302" y1="29.3086" x2="10.5302" y2="40.0668" gradientUnits="userSpaceOnUse">
<stop stop-color="#6B2A70"/>
<stop offset="0.0967907" stop-color="#742D6C"/>
<stop offset="0.2518" stop-color="#8B3362"/>
<stop offset="0.4456" stop-color="#B13F51"/>
<stop offset="0.6689" stop-color="#E64E39"/>
<stop offset="0.6786" stop-color="#E84F38"/>
</linearGradient>
<linearGradient id="paint2_linear_0_21" x1="17.1517" y1="35.1799" x2="22.7269" y2="28.8012" gradientUnits="userSpaceOnUse">
<stop offset="0.0408163" stop-color="#81358A"/>
<stop offset="0.199" stop-color="#A63E64"/>
<stop offset="0.283" stop-color="#AE475D"/>
<stop offset="0.4175" stop-color="#C45E4A"/>
<stop offset="0.5847" stop-color="#E7842A"/>
<stop offset="0.6326" stop-color="#F29020"/>
</linearGradient>
<linearGradient id="paint3_linear_0_21" x1="13.4696" y1="40.9634" x2="22.2779" y2="40.9634" gradientUnits="userSpaceOnUse">
<stop stop-color="#AA3364"/>
<stop offset="0.161" stop-color="#B3375E"/>
<stop offset="0.4187" stop-color="#CA414D"/>
<stop offset="0.6786" stop-color="#E84F38"/>
<stop offset="0.7256" stop-color="#E74B35"/>
<stop offset="0.777" stop-color="#E33D2E"/>
<stop offset="0.8303" stop-color="#DD2821"/>
<stop offset="0.8673" stop-color="#D71416"/>
<stop offset="1" stop-color="#C41512"/>
</linearGradient>
</defs>
</svg>
