<svg width="101" height="72" viewBox="0 0 101 72" fill="none" xmlns="http://www.w3.org/2000/svg">
<rect width="100.227" height="71.4578" rx="5.76117" fill="white"/>
<path fill-rule="evenodd" clip-rule="evenodd" d="M16.1603 27.3646C17.1108 27.21 18.086 27.2279 19.041 27.3231C19.9265 27.5057 20.8198 27.7096 21.6323 28.1184C23.2763 28.9014 24.6757 30.1705 25.6083 31.7331C26.3815 33.177 26.9135 34.7967 26.8338 36.4512C26.8562 39.8475 24.7004 43.0836 21.6469 44.5275C19.6672 45.4673 17.3644 45.5961 15.249 45.0808C13.8182 44.6417 12.4379 43.9316 11.3953 42.8405C10.4021 41.9209 9.65249 40.7492 9.17666 39.4879C8.55607 37.9365 8.49996 36.2115 8.76368 34.5772C9.24624 32.1498 10.7489 29.9241 12.8755 28.6337C13.8653 27.9829 15.0033 27.5964 16.1603 27.3646ZM14.8899 31.7231C14.1739 31.7959 13.3918 32.0468 12.9956 32.692C12.558 33.31 12.5123 34.083 12.4689 34.8173C12.4653 34.8776 12.4618 34.9376 12.4581 34.9973C12.4491 35.1825 12.4326 35.3675 12.416 35.5525L12.416 35.5525C12.3826 35.9258 12.3491 36.2993 12.3784 36.6752C12.4002 36.9291 12.4156 37.1838 12.431 37.4386C12.4695 38.0751 12.5079 38.7119 12.6466 39.3367C12.8183 40.1242 13.5287 40.7347 14.312 40.878C15.7719 41.1407 17.259 41.1177 18.7373 41.0947L18.7377 41.0947C18.8729 41.0926 19.0081 41.0905 19.1432 41.0886C19.748 41.055 20.3529 40.9934 20.9511 40.8982C21.8466 40.7817 22.6378 40.0536 22.7848 39.1575C23.0418 38.0586 23.0878 36.925 23.0115 35.8038C22.8678 35.0846 22.3583 34.4361 21.6659 34.1728C21.354 34.0224 21.008 34.0233 20.6685 34.0242C20.6087 34.0244 20.5491 34.0245 20.4898 34.0238C19.8222 34.0247 19.1546 34.0243 18.487 34.0239H18.487C17.3187 34.0233 16.1507 34.0226 14.9831 34.0283C14.8488 34.0308 14.7236 33.985 14.5994 33.9396C14.5533 33.9227 14.5074 33.9059 14.4612 33.8917C14.4579 33.6408 14.4668 33.2655 14.8046 33.2588C15.6842 33.239 16.5646 33.2448 17.4449 33.2506H17.4449C18.6043 33.2583 19.7636 33.266 20.9208 33.2151C20.7951 32.6326 20.4393 32.0244 19.8266 31.8631C19.2733 31.7152 18.701 31.6402 18.132 31.5875C17.9698 31.5855 17.8072 31.5824 17.6446 31.5793H17.6446C16.7229 31.5617 15.7971 31.5441 14.8899 31.7231ZM21.1564 36.6159C20.8613 36.5363 20.5078 36.6528 20.4046 36.9564C20.3397 37.3059 20.4436 37.6425 20.5467 37.977C20.59 38.1175 20.6332 38.2576 20.6638 38.398C20.6975 38.4177 20.7481 38.4468 20.7986 38.476C20.8491 38.5051 20.8995 38.5341 20.9331 38.5537C21.0487 38.4865 21.1665 38.426 21.2889 38.3734C21.3021 38.0778 21.3734 37.7935 21.4448 37.5092C21.4764 37.3831 21.5081 37.2571 21.5346 37.13C21.4796 36.9206 21.3416 36.729 21.1564 36.6159Z" fill="#01ACD7"/>
<path fill-rule="evenodd" clip-rule="evenodd" d="M38.3635 30.156C37.4982 29.8177 36.5376 29.8558 35.6308 29.9678C33.6692 30.2702 31.9477 31.7645 31.3664 33.6587C31.1026 34.4092 31.1083 35.2191 31.1778 36.002C31.4124 38.0049 32.9218 39.7635 34.8374 40.3762C36.1953 40.7862 37.7619 40.7996 39.0155 40.0659C39.1792 39.9755 39.3278 39.8639 39.4766 39.7522L39.4766 39.7522C39.6154 39.6479 39.7543 39.5436 39.9054 39.4566L39.9077 39.5606C39.9263 40.3863 39.9473 41.32 39.3196 41.9433C38.8988 42.4563 38.2625 42.7263 37.6194 42.8249C36.229 43.0791 34.7589 42.6053 33.7253 41.6554C33.4955 41.889 33.2548 42.1122 33.0141 42.3353C32.6247 42.6963 32.2353 43.0572 31.8927 43.4622C32.9745 44.4838 34.3448 45.2209 35.8306 45.4169C37.2827 45.5995 38.8449 45.511 40.1388 44.7661C41.2364 44.1578 42.1005 43.1195 42.4394 41.9086C42.6497 41.3052 42.6469 40.6606 42.6441 40.03L42.6436 39.9237C42.6425 36.5845 42.6425 33.2465 42.6436 29.9073C42.1178 29.9008 41.5919 29.9011 41.0661 29.9014C40.6863 29.9016 40.3065 29.9018 39.9267 29.8995C39.927 29.9912 39.9275 30.0829 39.928 30.1746C39.9297 30.4727 39.9313 30.7708 39.9245 31.0689C39.4565 30.6869 38.9392 30.3498 38.3635 30.156ZM34.9171 33.0661C35.3671 32.6673 35.9641 32.515 36.5466 32.4288C37.7058 32.2529 39.0099 32.7827 39.6035 33.8189C39.8429 34.2387 39.8329 34.7132 39.8231 35.1832C39.8196 35.3478 39.8162 35.5118 39.8235 35.6727C39.9211 36.6607 39.1501 37.5322 38.2669 37.8682C37.1997 38.2692 35.8833 38.2961 34.9519 37.5557C33.5558 36.5106 33.5278 34.1258 34.9171 33.0661ZM62.2063 29.9017C61.0459 29.8939 59.8362 30.24 59.0001 31.0756C58.9927 30.9688 58.9857 30.8622 58.9788 30.7557L58.9788 30.7555C58.9668 30.5717 58.9548 30.3882 58.9406 30.2053C58.0271 30.1941 57.1136 30.1907 56.2001 30.2053C56.2014 32.9698 56.2012 35.7343 56.2011 38.4988C56.2009 40.5722 56.2008 42.6456 56.2013 44.719C56.8432 44.7603 57.4866 44.7567 58.1299 44.7531C58.429 44.7515 58.7281 44.7498 59.027 44.7526C59.0479 43.4719 59.0433 42.1905 59.0386 40.9089V40.9088V40.9087V40.9086V40.9086L59.0386 40.9062L59.0386 40.9038L59.0386 40.9015L59.0386 40.8991C59.037 40.4646 59.0354 40.03 59.0349 39.5955C61.0504 41.1939 64.2589 41.0181 66.0713 39.1844C68.0441 37.2096 68.1575 33.69 66.2575 31.629C65.2576 30.4819 63.7224 29.8479 62.2063 29.9017ZM59.1673 34.0597C59.4625 33.1737 60.3647 32.6449 61.2412 32.4713C62.1446 32.2887 63.1546 32.5161 63.8526 33.13C65.0354 34.2031 65.0444 36.2653 63.9289 37.3888C62.8101 38.4697 60.8304 38.4496 59.7183 37.3686C59.2447 36.9508 58.9967 36.2966 59.0382 35.6716C59.0475 35.5068 59.0431 35.3396 59.0387 35.1723V35.1722V35.1722V35.1722V35.1722V35.1722C59.0287 34.7935 59.0187 34.4139 59.1673 34.0597ZM48.0056 30.0395C49.6003 29.7191 51.3454 29.9118 52.7336 30.7978C53.7896 31.4341 54.5931 32.4657 54.9522 33.643C55.4449 35.1899 55.2238 36.9598 54.3013 38.3062C53.3845 39.6627 51.819 40.4938 50.203 40.6495C49.2075 40.7167 48.1785 40.6831 47.2369 40.3213C45.677 39.7982 44.3685 38.5134 43.9084 36.9262C43.4146 35.4386 43.6435 33.736 44.4897 32.4187C45.273 31.1865 46.586 30.3453 48.0056 30.0395ZM48.6734 32.4859C48.2761 32.599 47.9046 32.7962 47.5792 33.0482C46.4525 33.9342 46.1775 35.6862 46.9799 36.8724C47.8968 38.3812 50.2624 38.6792 51.5036 37.4157C52.1107 36.8589 52.3992 36.0278 52.3183 35.2134C52.3868 33.4078 50.3803 31.9527 48.6734 32.4859ZM74.7236 29.9689C73.0908 29.755 71.3222 29.9824 69.9676 30.9782C69.1854 31.5987 68.5166 32.4523 68.3842 33.4671C68.7741 33.5338 69.1608 33.618 69.5476 33.7022C70.0514 33.8118 70.5553 33.9215 71.0663 33.9925C71.2874 33.1064 72.0572 32.4019 72.9606 32.2563C73.5453 32.1554 74.1535 32.1857 74.7225 32.3582C75.2196 32.5195 75.5978 33.0628 75.3801 33.5803C74.9746 33.9493 74.4229 34.0609 73.8974 34.1672L73.8973 34.1673C73.8295 34.181 73.7622 34.1946 73.6957 34.2087C73.6048 34.2217 73.5135 34.2345 73.4221 34.2474C72.088 34.4355 70.7011 34.6311 69.5659 35.4005C68.162 36.3806 68.1563 38.687 69.4548 39.7579C70.5265 40.6775 72.0359 40.7828 73.3803 40.6047C74.3106 40.4311 75.2477 40.029 75.8414 39.2639C75.8447 39.4527 75.8447 39.6414 75.8447 39.8303C75.8447 40.0192 75.8447 40.2082 75.8481 40.3975C76.0528 40.3972 76.2577 40.3966 76.4625 40.3959H76.4629H76.463C77.1125 40.3938 77.7627 40.3918 78.4135 40.402C78.4161 39.1381 78.4157 37.8746 78.4153 36.6112V36.6063V36.6063V36.6062C78.4151 35.6576 78.4148 34.7091 78.4157 33.7606C78.4258 32.9911 78.1442 32.2417 77.72 31.6077C77.0309 30.6421 75.8616 30.1549 74.7236 29.9689ZM71.1908 37.6352C71.0427 37.2846 71.3289 36.9385 71.6151 36.766C72.1922 36.4485 72.8418 36.33 73.4902 36.2118C74.2715 36.0693 75.0511 35.9272 75.7 35.4375C75.6938 35.5913 75.6987 35.7523 75.7037 35.9156C75.7206 36.4668 75.7382 37.0435 75.333 37.4549C74.5497 38.2345 73.3568 38.3779 72.303 38.3107C71.8653 38.2849 71.2896 38.1337 71.1908 37.6352ZM79.5431 30.1974C79.2414 30.198 78.9397 30.1985 78.638 30.1985C79.4341 31.8589 80.2478 33.5109 81.0616 35.163C81.8251 36.7131 82.5887 38.2633 83.3378 39.8206C82.9696 40.6287 82.5693 41.422 82.1689 42.2152C81.7458 43.0538 81.3226 43.8922 80.9374 44.7482C81.2616 44.7468 81.586 44.7493 81.9105 44.7518C82.6318 44.7573 83.3534 44.7628 84.074 44.7258C86.4386 39.889 88.8008 35.0521 91.1609 30.2131C90.1004 30.1862 89.041 30.1907 87.9816 30.2086C86.9649 32.4366 85.9358 34.6601 84.9011 36.8791C84.596 36.2215 84.2877 35.5654 83.9793 34.9093C83.4757 33.8376 82.9721 32.766 82.4827 31.6883C82.4043 31.5129 82.318 31.3409 82.2316 31.169C82.0732 30.8535 81.9149 30.5383 81.806 30.2019C81.0517 30.1947 80.2974 30.1961 79.5431 30.1974Z" fill="#010101"/>
</svg>
