<svg width="101" height="72" viewBox="0 0 101 72" fill="none" xmlns="http://www.w3.org/2000/svg">
<rect width="100.227" height="71.4578" rx="5.76117" fill="white"/>
<path fill-rule="evenodd" clip-rule="evenodd" d="M18.4463 36.7606C18.4353 36.7606 18.4463 41.879 18.4463 41.879C18.4463 42.5234 17.8716 43.0867 17.1196 43.0867H16.3977V43.3487H22.5012V43.0867H21.78C21.0368 43.0867 20.4529 42.5144 20.4529 41.879V36.6802V30.4751C20.4529 29.8509 21.0274 29.2686 21.78 29.2686H22.5012V29.0064H16.3977V29.2686H17.1196C17.8809 29.2686 18.4463 29.8509 18.4463 30.4751V36.0343H11.2134V30.4751C11.2134 29.8509 11.799 29.2686 12.5427 29.2686H13.2635V29.0064H7.15906V29.2686H7.87983C8.63118 29.2686 9.20741 29.8509 9.20741 30.4751V36.6802V41.879C9.20741 42.5144 8.63118 43.0867 7.87983 43.0867H7.15906V43.3487H13.2635V43.0867H12.5427C11.799 43.0867 11.2134 42.5144 11.2134 41.879C11.2134 41.879 11.2237 36.7606 11.2134 36.7606H18.4463Z" fill="#231F20"/>
<path fill-rule="evenodd" clip-rule="evenodd" d="M32.9624 39.596C33.015 40.4386 32.4711 41.7191 31.7189 42.3711C30.9944 43.0002 29.9636 43.5488 28.5836 43.5488C27.0163 43.5488 25.6673 42.7434 25.176 42.5631C24.8786 42.4524 24.4882 42.465 24.2557 42.6026C23.9854 42.7646 23.817 43.0239 23.7535 43.5091H23.5244V38.5385H23.7535C23.9633 40.0671 24.7044 40.9666 25.1666 41.4755C25.9186 42.3116 27.3383 42.7844 28.7085 42.573C29.7963 42.4047 30.9863 41.2679 30.8575 39.8631C30.8106 39.3548 30.6937 38.6143 29.5967 37.9254C28.9094 37.4919 27.9299 36.8769 27.0043 36.2854C25.8363 35.5409 24.7743 34.733 24.4766 34.4044C24.0847 33.9776 23.5982 33.3599 23.5982 32.3723C23.5982 31.528 23.9325 30.5625 24.643 29.9194C25.3535 29.276 26.316 28.7931 27.6947 28.7931C29.0745 28.7931 30.1206 29.497 30.4745 29.659C30.8289 29.8179 31.2235 29.7817 31.4475 29.659C31.6661 29.5378 31.8123 29.3575 31.875 28.873H32.1054V33.5807H31.875C31.6661 32.0508 30.9761 30.9061 30.4964 30.4835C30.0164 30.0601 29.0745 29.4769 27.6739 29.7389C26.3293 29.9893 25.6758 30.5733 25.5522 31.6087C25.4583 32.3977 25.9027 32.8829 26.1577 33.1771C26.682 33.7818 29.9985 35.5907 31.4997 36.8399C32.2737 37.4824 32.879 38.2475 32.9624 39.596" fill="#231F20"/>
<path fill-rule="evenodd" clip-rule="evenodd" d="M42.6278 36.0252C45.2856 36.9023 46.043 38.7072 45.5504 40.5678C44.9709 42.7524 42.4094 43.1981 41.578 43.3027C41.2031 43.3494 40.2473 43.3462 39.301 43.3462C37.6123 43.3471 35.4753 43.3412 33.7612 43.3412V43.0811H34.639C35.1975 43.0811 35.836 42.628 35.836 41.9452V30.494C35.836 29.8086 35.1975 29.3474 34.6442 29.3474H33.7671V29.0856H39.0647C40.3395 29.0856 41.033 29.2026 41.4777 29.2875C42.2317 29.4266 44.4268 30.0501 44.9504 32.0222C45.353 33.5486 44.5611 35.4716 42.6278 36.0252V36.0252ZM37.8212 35.6222C38.5529 35.8027 40.7067 35.8525 41.5422 35.3415C42.8514 34.5418 43.3064 33.2584 43.0638 32.1218C42.9199 31.4398 42.5444 30.8117 41.8965 30.373C40.6218 29.5075 38.7833 29.6491 37.8212 29.9301V35.6222ZM37.8212 42.5373C38.8532 42.8455 40.8188 43.0811 42.19 42.1364C43.8322 41.0053 44.1781 38.2384 41.859 36.7981C40.9251 36.2164 38.5944 36.2583 37.8212 36.4312V42.5373Z" fill="#231F20"/>
<path fill-rule="evenodd" clip-rule="evenodd" d="M59.5209 29.2569L59.7353 34.1151L59.4327 34.125C59.286 32.8968 58.8054 32.0312 58.1999 31.4684C58.0252 31.3071 57.6944 30.9784 57.2153 30.6893C56.4201 30.206 55.2362 29.7791 53.8305 30.0207C51.7184 30.3821 50.6325 31.7248 50.0893 33.0172C49.4202 34.6068 48.9971 37.3249 50.1307 39.6165C51.0522 41.4773 52.8213 42.2524 54.1857 42.4523C55.3495 42.6222 57.9274 42.5714 59.8941 40.0195L60.2059 40.2193C58.6794 42.2911 56.6505 43.6207 54.3327 43.5997C51.364 43.5743 49.4995 42.0005 48.6466 41.0648C47.7477 40.0779 47.0583 38.208 47.0498 36.5788C47.0422 35.1306 47.3736 33.5177 47.9151 32.5758C48.844 30.9564 50.7895 29.3469 53.3486 29.1061C55.267 28.926 56.5273 29.2876 57.6036 29.8795C58.1422 30.1762 58.4447 30.21 58.7377 30.0922C59.0305 29.9697 59.2652 29.7299 59.2652 29.2569H59.5209Z" fill="#231F20"/>
<path fill-rule="evenodd" clip-rule="evenodd" d="M72.0991 43.3462H86.9889V29.0207H72.0991V43.3462Z" fill="white"/>
<path fill-rule="evenodd" clip-rule="evenodd" d="M64.6509 36.1836L72.0966 43.3487V29.0181L64.6509 36.1836Z" fill="#EE3624"/>
<path fill-rule="evenodd" clip-rule="evenodd" d="M72.0988 43.3486H86.989L79.5436 36.1835L72.0988 43.3486Z" fill="#EE3624"/>
<path fill-rule="evenodd" clip-rule="evenodd" d="M79.5436 36.1836L86.9898 29.0181H72.098L79.5436 36.1836Z" fill="#EE3624"/>
<path fill-rule="evenodd" clip-rule="evenodd" d="M86.9913 29.0181V43.3487L94.4362 36.1836L86.9913 29.0181Z" fill="#EE3624"/>
</svg>
