<svg width="101" height="72" viewBox="0 0 101 72" fill="none" xmlns="http://www.w3.org/2000/svg">
<rect width="100.227" height="71.4578" rx="5.76117" fill="white"/>
<path fill-rule="evenodd" clip-rule="evenodd" d="M64.0778 20.0082C63.7459 20.0091 63.415 20.0204 63.0892 20.0575V20.0575C61.8148 20.2022 60.6159 20.838 59.7548 21.8189V21.8189C59.116 22.5466 58.6725 23.4478 58.4844 24.4115V24.4115C58.3916 24.8872 58.3798 25.3641 58.3798 25.8462V25.8462V29.0459V30.5969V31.0527C58.3798 31.1747 58.3516 31.1843 58.4819 31.1843V31.1843H60.521H62.5527H64.5967C65.264 31.1843 65.9367 31.1583 66.6021 31.2208V31.2208C67.2576 31.2824 67.9249 31.4754 68.455 31.8919V31.8919C69.2005 32.4778 69.5036 33.4884 69.2487 34.418V34.418C69.0043 35.3104 68.2711 35.9088 67.433 36.1572V36.1572C67.3402 36.1847 67.2464 36.2084 67.1518 36.2284V36.2284C67.097 36.2402 67.023 36.238 66.9731 36.262V36.262C66.9486 36.2737 66.886 36.2884 66.9318 36.3335V36.3335C66.9433 36.3448 66.9919 36.3446 67.0276 36.3443V36.3443C67.0423 36.3442 67.0548 36.3442 67.062 36.3448V36.3448C67.325 36.3709 67.5866 36.418 67.8418 36.49V36.49C68.6222 36.71 69.3798 37.1831 69.7414 37.9596V37.9596C70.1693 38.8786 69.9512 40.0168 69.2598 40.7297V40.7297C68.7153 41.2913 67.9552 41.5779 67.2029 41.6729V41.6729C66.8256 41.7203 66.4456 41.7106 66.0664 41.7106V41.7106H64.0223H61.9783H59.9465H58.9245H58.6689C58.6107 41.7106 58.446 41.6808 58.3982 41.7106V41.7106C58.3703 41.7282 58.3798 41.7537 58.3798 41.8001V41.8001V43.7528V47.1986V50.6806V52.7416C58.3798 52.7623 58.3662 52.8527 58.3798 52.8694V52.8694C58.3961 52.889 58.5331 52.8717 58.5667 52.8717V52.8717H58.8223H59.8443H61.8761H63.9201H65.9576C67.1715 52.8717 68.3273 52.5462 69.3109 51.7853V51.7853C70.6451 50.7535 71.4331 49.113 71.4398 47.3914V47.3914C71.4401 47.3248 71.4403 47.2581 71.4403 47.1915V47.1915V47.094C71.4401 46.9466 71.4398 46.7991 71.4398 46.6517V46.6517V44.8368C71.4398 43.9581 71.4398 43.0796 71.4398 42.2011V42.2011C71.4398 41.1218 71.4398 40.0426 71.4398 38.9634V38.9634C71.4398 37.7725 71.4398 36.5815 71.4398 35.3906V35.3906C71.4398 34.1583 71.4398 32.9258 71.4398 31.6935V31.6935C71.4398 30.5051 71.4398 29.3169 71.4398 28.1284V28.1284C71.4398 27.0687 71.4398 26.0091 71.4398 24.9494V24.9494C71.4398 24.0898 71.4398 23.2301 71.4398 22.3705V22.3705V20.6532C71.4398 20.4436 71.4398 20.2339 71.4398 20.0241V20.0241H71.4189C70.7695 20.0252 70.1199 20.0241 69.4703 20.0241V20.0241H67.433H65.3888C64.9851 20.0241 64.5746 20.0093 64.1653 20.0082V20.0082H64.0778ZM60.9356 32.8476C60.9189 32.8855 60.9356 32.9691 60.9356 33.0098V33.0098V34.4671V35.1481C60.9356 35.205 60.9091 35.4005 60.9492 35.4294V35.4294C60.9835 35.4541 61.132 35.4294 61.1762 35.4294V35.4294H61.4215H61.8936H62.8311C63.139 35.4294 63.4476 35.435 63.7554 35.4294V35.4294C64.1366 35.4225 64.506 35.3087 64.777 35.0295V35.0295C65.0837 34.7137 65.1934 34.2492 65.1001 33.823V33.823C65.0576 33.6344 64.9756 33.4577 64.8546 33.3066V33.3066C64.6224 33.0169 64.2767 32.8564 63.9105 32.8267V32.8267C63.7366 32.8127 63.561 32.8192 63.3866 32.8192V32.8192H62.4491H61.4932H61.0278C61.0027 32.8192 60.9859 32.8169 60.9737 32.8169V32.8169C60.9551 32.8169 60.9469 32.8221 60.9356 32.8476V32.8476ZM62.9498 37.1392H60.935C60.935 37.1661 60.935 37.1929 60.935 37.2198V37.2198V38.6773V39.538V39.8522C60.935 39.897 60.9171 39.9917 60.935 40.033V40.033C60.9621 40.0953 61.2124 40.0602 61.2926 40.0602V40.0602H61.8026H62.8101H63.823C64.1523 40.0602 64.4681 40.0391 64.7598 39.8588V39.8588C65.1144 39.6397 65.356 39.257 65.4166 38.8308V38.8308C65.4861 38.3434 65.3284 37.839 64.9765 37.5082V37.5082C64.6917 37.2406 64.3385 37.1421 63.9629 37.1392V37.1392C63.8502 37.1382 63.7376 37.1379 63.625 37.1379V37.1379C63.3999 37.1379 63.1748 37.1392 62.9498 37.1392V37.1392Z" fill="url(#paint0_linear_0_6)"/>
<mask id="mask0_0_6" style="mask-type:luminance" maskUnits="userSpaceOnUse" x="58" y="20" width="14" height="33">
<path fill-rule="evenodd" clip-rule="evenodd" d="M64.0778 20.0082C63.7459 20.0091 63.415 20.0204 63.0892 20.0575V20.0575C61.8148 20.2022 60.6159 20.838 59.7548 21.8189V21.8189C59.116 22.5466 58.6725 23.4478 58.4844 24.4115V24.4115C58.3916 24.8872 58.3798 25.3641 58.3798 25.8462V25.8462V29.0459V30.5969V31.0527C58.3798 31.1747 58.3516 31.1843 58.4819 31.1843V31.1843H60.521H62.5527H64.5967C65.264 31.1843 65.9367 31.1583 66.6021 31.2208V31.2208C67.2576 31.2824 67.9249 31.4754 68.455 31.8919V31.8919C69.2005 32.4778 69.5036 33.4884 69.2487 34.418V34.418C69.0043 35.3104 68.2711 35.9088 67.433 36.1572V36.1572C67.3402 36.1847 67.2464 36.2084 67.1518 36.2284V36.2284C67.097 36.2402 67.023 36.238 66.9731 36.262V36.262C66.9486 36.2737 66.886 36.2884 66.9318 36.3335V36.3335C66.9433 36.3448 66.9919 36.3446 67.0276 36.3443V36.3443C67.0423 36.3442 67.0548 36.3442 67.062 36.3448V36.3448C67.325 36.3709 67.5866 36.418 67.8418 36.49V36.49C68.6222 36.71 69.3798 37.1831 69.7414 37.9596V37.9596C70.1693 38.8786 69.9512 40.0168 69.2598 40.7297V40.7297C68.7153 41.2913 67.9552 41.5779 67.2029 41.6729V41.6729C66.8256 41.7203 66.4456 41.7106 66.0664 41.7106V41.7106H64.0223H61.9783H59.9465H58.9245H58.6689C58.6107 41.7106 58.446 41.6808 58.3982 41.7106V41.7106C58.3703 41.7282 58.3798 41.7537 58.3798 41.8001V41.8001V43.7528V47.1986V50.6806V52.7416C58.3798 52.7623 58.3662 52.8527 58.3798 52.8694V52.8694C58.3961 52.889 58.5331 52.8717 58.5667 52.8717V52.8717H58.8223H59.8443H61.8761H63.9201H65.9576C67.1715 52.8717 68.3273 52.5462 69.3109 51.7853V51.7853C70.6451 50.7535 71.4331 49.113 71.4398 47.3914V47.3914C71.4401 47.3248 71.4403 47.2581 71.4403 47.1915V47.1915V47.094C71.4401 46.9466 71.4398 46.7991 71.4398 46.6517V46.6517V44.8368C71.4398 43.9581 71.4398 43.0796 71.4398 42.2011V42.2011C71.4398 41.1218 71.4398 40.0426 71.4398 38.9634V38.9634C71.4398 37.7725 71.4398 36.5815 71.4398 35.3906V35.3906C71.4398 34.1583 71.4398 32.9258 71.4398 31.6935V31.6935C71.4398 30.5051 71.4398 29.3169 71.4398 28.1284V28.1284C71.4398 27.0687 71.4398 26.0091 71.4398 24.9494V24.9494C71.4398 24.0898 71.4398 23.2301 71.4398 22.3705V22.3705V20.6532C71.4398 20.4436 71.4398 20.2339 71.4398 20.0241V20.0241H71.4189C70.7695 20.0252 70.1199 20.0241 69.4703 20.0241V20.0241H67.433H65.3888C64.9851 20.0241 64.5746 20.0093 64.1653 20.0082V20.0082H64.0778ZM60.9356 32.8476C60.9189 32.8855 60.9356 32.9691 60.9356 33.0098V33.0098V34.4671V35.1481C60.9356 35.205 60.9091 35.4005 60.9492 35.4294V35.4294C60.9835 35.4541 61.132 35.4294 61.1762 35.4294V35.4294H61.4215H61.8936H62.8311C63.139 35.4294 63.4476 35.435 63.7554 35.4294V35.4294C64.1366 35.4225 64.506 35.3087 64.777 35.0295V35.0295C65.0837 34.7137 65.1934 34.2492 65.1001 33.823V33.823C65.0576 33.6344 64.9756 33.4577 64.8546 33.3066V33.3066C64.6224 33.0169 64.2767 32.8564 63.9105 32.8267V32.8267C63.7366 32.8127 63.561 32.8192 63.3866 32.8192V32.8192H62.4491H61.4932H61.0278C61.0027 32.8192 60.9859 32.8169 60.9737 32.8169V32.8169C60.9551 32.8169 60.9469 32.8221 60.9356 32.8476V32.8476ZM62.9498 37.1392H60.935C60.935 37.1661 60.935 37.1929 60.935 37.2198V37.2198V38.6773V39.538V39.8522C60.935 39.897 60.9171 39.9917 60.935 40.033V40.033C60.9621 40.0953 61.2124 40.0602 61.2926 40.0602V40.0602H61.8026H62.8101H63.823C64.1523 40.0602 64.4681 40.0391 64.7598 39.8588V39.8588C65.1144 39.6397 65.356 39.257 65.4166 38.8308V38.8308C65.4861 38.3434 65.3284 37.839 64.9765 37.5082V37.5082C64.6917 37.2406 64.3385 37.1421 63.9629 37.1392V37.1392C63.8502 37.1382 63.7376 37.1379 63.625 37.1379V37.1379C63.3999 37.1379 63.1748 37.1392 62.9498 37.1392V37.1392Z" fill="white"/>
</mask>
<g mask="url(#mask0_0_6)">
</g>
<path fill-rule="evenodd" clip-rule="evenodd" d="M33.1256 20.0813C32.365 20.2076 31.6351 20.5069 30.9971 20.9482V20.9482C29.5273 21.9652 28.6478 23.6871 28.6413 25.4991V25.4991C28.6395 26.0319 28.6413 26.5646 28.6413 27.0975V27.0975V30.4908V34.436V37.6902V38.6722V38.9316C28.6413 39.032 28.6404 39.011 28.7521 39.0653V39.0653C28.8764 39.1255 29.0013 39.1841 29.1267 39.2411V39.2411C30.1284 39.6951 31.1847 40.0405 32.2749 40.1765V40.1765C33.0586 40.2743 33.8955 40.3015 34.6356 39.9818V39.9818C35.2285 39.7257 35.701 39.253 35.9438 38.6402V38.6402C36.0999 38.2464 36.1447 37.8304 36.1447 37.409V37.409V32.7387V31.6872V31.3518C36.1447 31.3183 36.1261 31.2137 36.1447 31.1855V31.1855C36.1678 31.1504 36.351 31.1729 36.4038 31.1729V31.1729H36.8032H37.5906H40.7512V31.2691V35.8797C40.7512 36.421 40.7523 36.9624 40.7512 37.5036V37.5036C40.7501 38.1342 40.6598 38.7671 40.4075 39.3467V39.3467C40.1561 39.9244 39.7529 40.4122 39.2546 40.7836V40.7836C38.0459 41.6847 36.4443 41.9194 34.9836 41.987V41.987C33.9385 42.0354 32.8893 41.9936 31.8488 41.8873V41.8873C30.7736 41.7776 29.6858 41.6143 28.6413 41.3264V41.3264V41.7003V44.2639V48.0042V51.3829V52.4578V52.7595C28.6413 52.7756 28.6298 52.8549 28.6413 52.8679V52.8679C28.6631 52.8923 28.8611 52.868 28.9003 52.868V52.868H29.165H29.7069H30.7784H32.9259H35.0743C35.985 52.868 36.9193 52.9322 37.8095 52.702V52.702C39.3662 52.2999 40.6889 51.1743 41.3622 49.6839V49.6839C41.7318 48.866 41.8529 47.9964 41.8529 47.1057V47.1057V45.6379V43.165V39.9603V36.3128V32.4654V28.7054V25.3187V22.5509V20.6898V20.0087H41.319H39.0873H36.8547H34.6289C34.5298 20.0087 34.4307 20.0082 34.3317 20.0082V20.0082C33.9283 20.0082 33.5259 20.0148 33.1256 20.0813" fill="url(#paint1_linear_0_6)"/>
<mask id="mask1_0_6" style="mask-type:luminance" maskUnits="userSpaceOnUse" x="28" y="20" width="14" height="33">
<path fill-rule="evenodd" clip-rule="evenodd" d="M33.1256 20.0813C32.365 20.2076 31.6351 20.5069 30.9971 20.9482V20.9482C29.5273 21.9652 28.6478 23.6871 28.6413 25.4991V25.4991C28.6395 26.0319 28.6413 26.5646 28.6413 27.0975V27.0975V30.4908V34.436V37.6902V38.6722V38.9316C28.6413 39.032 28.6404 39.011 28.7521 39.0653V39.0653C28.8764 39.1255 29.0013 39.1841 29.1267 39.2411V39.2411C30.1284 39.6951 31.1847 40.0405 32.2749 40.1765V40.1765C33.0586 40.2743 33.8955 40.3015 34.6356 39.9818V39.9818C35.2285 39.7257 35.701 39.253 35.9438 38.6402V38.6402C36.0999 38.2464 36.1447 37.8304 36.1447 37.409V37.409V32.7387V31.6872V31.3518C36.1447 31.3183 36.1261 31.2137 36.1447 31.1855V31.1855C36.1678 31.1504 36.351 31.1729 36.4038 31.1729V31.1729H36.8032H37.5906H40.7512V31.2691V35.8797C40.7512 36.421 40.7523 36.9624 40.7512 37.5036V37.5036C40.7501 38.1342 40.6598 38.7671 40.4075 39.3467V39.3467C40.1561 39.9244 39.7529 40.4122 39.2546 40.7836V40.7836C38.0459 41.6847 36.4443 41.9194 34.9836 41.987V41.987C33.9385 42.0354 32.8893 41.9936 31.8488 41.8873V41.8873C30.7736 41.7776 29.6858 41.6143 28.6413 41.3264V41.3264V41.7003V44.2639V48.0042V51.3829V52.4578V52.7595C28.6413 52.7756 28.6298 52.8549 28.6413 52.8679V52.8679C28.6631 52.8923 28.8611 52.868 28.9003 52.868V52.868H29.165H29.7069H30.7784H32.9259H35.0743C35.985 52.868 36.9193 52.9322 37.8095 52.702V52.702C39.3662 52.2999 40.6889 51.1743 41.3622 49.6839V49.6839C41.7318 48.866 41.8529 47.9964 41.8529 47.1057V47.1057V45.6379V43.165V39.9603V36.3128V32.4654V28.7054V25.3187V22.5509V20.6898V20.0087H41.319H39.0873H36.8547H34.6289C34.5298 20.0087 34.4307 20.0082 34.3317 20.0082V20.0082C33.9283 20.0082 33.5259 20.0148 33.1256 20.0813" fill="white"/>
</mask>
<g mask="url(#mask1_0_6)">
</g>
<path fill-rule="evenodd" clip-rule="evenodd" d="M48.4682 20.0217C47.8955 20.0591 47.3287 20.1921 46.7978 20.417V20.417C45.6275 20.9133 44.6543 21.8397 44.081 23.002V23.002C43.7055 23.763 43.5157 24.6089 43.5123 25.4616V25.4616C43.5117 25.5996 43.5123 25.7376 43.5123 25.8757V25.8757V28.295V32.596C43.548 32.5643 43.5846 32.5331 43.6218 32.5022V32.5022C43.7529 32.393 43.8894 32.2909 44.0299 32.1952V32.1952C44.9052 31.5998 45.9264 31.2664 46.951 31.0695V31.0695C47.785 30.9092 48.6342 30.8403 49.4818 30.8236V30.8236C50.3157 30.8073 51.152 30.8365 51.9814 30.9289V30.9289C52.8277 31.023 53.6688 31.1699 54.5009 31.3536V31.3536C54.6031 31.3762 54.7051 31.3993 54.807 31.4232V31.4232C54.8616 31.4362 55.0706 31.4537 55.0996 31.4968V31.4968C55.1204 31.5275 55.0996 31.6503 55.0996 31.6858V31.6858V32.1294V33.8017C54.9814 33.7403 54.8626 33.6802 54.7428 33.622V33.622C53.8375 33.1814 52.8831 32.8541 51.8927 32.6932V32.6932C50.562 32.4768 49.0561 32.4828 47.907 33.3024V33.3024C46.7978 34.0936 46.4097 35.4975 46.5295 36.8325V36.8325C46.6462 38.1317 47.3441 39.2456 48.5191 39.765V39.765C49.6801 40.2781 51.0272 40.209 52.243 39.9615V39.9615C53.2405 39.7585 54.1916 39.3866 55.0996 38.9204V38.9204V39.0856V41.0346C55.0996 41.0709 55.1207 41.1941 55.0996 41.2254V41.2254C55.0712 41.2672 54.8592 41.285 54.807 41.2973V41.2973C54.5949 41.3472 54.3818 41.3939 54.1684 41.4381V41.4381C53.33 41.6117 52.483 41.7495 51.631 41.828V41.828C50.797 41.9049 49.9546 41.9199 49.118 41.8875V41.8875C48.2641 41.8546 47.4091 41.764 46.574 41.5734V41.5734C45.4731 41.3224 44.3773 40.8907 43.5123 40.1269V40.1269V40.4859V42.996V46.7411V50.3872V52.5492C43.5123 52.5747 43.4959 52.6815 43.5123 52.7021V52.7021C43.548 52.7467 43.8451 52.7101 43.9147 52.7101V52.7101H44.9992H47.1796H49.3485C50.114 52.7101 50.8929 52.7521 51.6566 52.6959V52.6959C53.0414 52.5943 54.3528 51.9205 55.2657 50.8434V50.8434C56.1401 49.8116 56.5715 48.506 56.5715 47.1451V47.1451V45.9247V43.5915V40.4402V36.7627V32.8669V29.0128V25.5207V22.6542V20.7201V20.0106H56.1711H52.8043H49.4506C49.2921 20.0106 49.1329 20.0082 48.9739 20.0082V20.0082C48.8051 20.0082 48.6363 20.011 48.4682 20.0217" fill="url(#paint2_linear_0_6)"/>
<mask id="mask2_0_6" style="mask-type:luminance" maskUnits="userSpaceOnUse" x="43" y="20" width="14" height="33">
<path fill-rule="evenodd" clip-rule="evenodd" d="M48.4682 20.0217C47.8955 20.0591 47.3287 20.1921 46.7978 20.417V20.417C45.6275 20.9133 44.6543 21.8397 44.081 23.002V23.002C43.7055 23.763 43.5157 24.6089 43.5123 25.4616V25.4616C43.5117 25.5996 43.5123 25.7376 43.5123 25.8757V25.8757V28.295V32.596C43.548 32.5643 43.5846 32.5331 43.6218 32.5022V32.5022C43.7529 32.393 43.8894 32.2909 44.0299 32.1952V32.1952C44.9052 31.5998 45.9264 31.2664 46.951 31.0695V31.0695C47.785 30.9092 48.6342 30.8403 49.4818 30.8236V30.8236C50.3157 30.8073 51.152 30.8365 51.9814 30.9289V30.9289C52.8277 31.023 53.6688 31.1699 54.5009 31.3536V31.3536C54.6031 31.3762 54.7051 31.3993 54.807 31.4232V31.4232C54.8616 31.4362 55.0706 31.4537 55.0996 31.4968V31.4968C55.1204 31.5275 55.0996 31.6503 55.0996 31.6858V31.6858V32.1294V33.8017C54.9814 33.7403 54.8626 33.6802 54.7428 33.622V33.622C53.8375 33.1814 52.8831 32.8541 51.8927 32.6932V32.6932C50.562 32.4768 49.0561 32.4828 47.907 33.3024V33.3024C46.7978 34.0936 46.4097 35.4975 46.5295 36.8325V36.8325C46.6462 38.1317 47.3441 39.2456 48.5191 39.765V39.765C49.6801 40.2781 51.0272 40.209 52.243 39.9615V39.9615C53.2405 39.7585 54.1916 39.3866 55.0996 38.9204V38.9204V39.0856V41.0346C55.0996 41.0709 55.1207 41.1941 55.0996 41.2254V41.2254C55.0712 41.2672 54.8592 41.285 54.807 41.2973V41.2973C54.5949 41.3472 54.3818 41.3939 54.1684 41.4381V41.4381C53.33 41.6117 52.483 41.7495 51.631 41.828V41.828C50.797 41.9049 49.9546 41.9199 49.118 41.8875V41.8875C48.2641 41.8546 47.4091 41.764 46.574 41.5734V41.5734C45.4731 41.3224 44.3773 40.8907 43.5123 40.1269V40.1269V40.4859V42.996V46.7411V50.3872V52.5492C43.5123 52.5747 43.4959 52.6815 43.5123 52.7021V52.7021C43.548 52.7467 43.8451 52.7101 43.9147 52.7101V52.7101H44.9992H47.1796H49.3485C50.114 52.7101 50.8929 52.7521 51.6566 52.6959V52.6959C53.0414 52.5943 54.3528 51.9205 55.2657 50.8434V50.8434C56.1401 49.8116 56.5715 48.506 56.5715 47.1451V47.1451V45.9247V43.5915V40.4402V36.7627V32.8669V29.0128V25.5207V22.6542V20.7201V20.0106H56.1711H52.8043H49.4506C49.2921 20.0106 49.1329 20.0082 48.9739 20.0082V20.0082C48.8051 20.0082 48.6363 20.011 48.4682 20.0217" fill="white"/>
</mask>
<g mask="url(#mask2_0_6)">
</g>
<defs>
<linearGradient id="paint0_linear_0_6" x1="71.4403" y1="18.5866" x2="58.8155" y2="18.5866" gradientUnits="userSpaceOnUse">
<stop stop-color="#43C311"/>
<stop offset="1" stop-color="#288C00"/>
</linearGradient>
<linearGradient id="paint1_linear_0_6" x1="28.6703" y1="52.961" x2="42.0192" y2="52.961" gradientUnits="userSpaceOnUse">
<stop stop-color="#21469E"/>
<stop offset="1" stop-color="#1E81EB"/>
</linearGradient>
<linearGradient id="paint2_linear_0_6" x1="56.5715" y1="20.0082" x2="43.505" y2="20.0082" gradientUnits="userSpaceOnUse">
<stop stop-color="#F42D3E"/>
<stop offset="1" stop-color="#9C0017"/>
</linearGradient>
</defs>
</svg>
