<svg width="101" height="72" viewBox="0 0 101 72" fill="none" xmlns="http://www.w3.org/2000/svg">
<rect width="100.227" height="71.4578" rx="5.76117" fill="#05B0EE"/>
<path fill-rule="evenodd" clip-rule="evenodd" d="M66.6184 42.3655C65.0416 45.9175 62.5357 48.6174 59.0765 50.4097C58.0314 50.9512 56.9282 51.341 55.7853 51.6192C55.7079 51.6381 55.6253 51.6343 55.4568 51.6483C56.0696 51.2216 56.619 50.8534 57.1262 50.4279C59.9069 48.0948 61.6987 45.171 62.1358 41.5479C62.6249 37.4942 61.5732 33.8218 58.9964 30.6298C57.098 28.2781 54.7006 26.5919 51.9521 25.3528C50.8611 24.8608 49.8016 24.3128 48.6318 24.0236C47.2384 23.679 45.8238 23.5496 44.3759 23.5601C45.3342 22.7896 46.393 22.1954 47.5119 21.7099C49.7636 20.7325 52.1185 20.2574 54.5721 20.3994C57.3207 20.5585 59.7749 21.547 61.9265 23.2481C65.1386 25.7874 67.1694 29.0803 67.8716 33.1182C68.4267 36.3107 67.9299 39.4111 66.6184 42.3655M52.1689 50.6887C51.6251 51.0276 51.0309 51.2736 50.4454 51.535C50.1358 51.6732 49.8532 51.6714 49.5385 51.5888C44.4301 50.2485 40.9148 47.0524 38.7301 42.3046C38.7078 42.2562 38.6614 42.201 38.7359 42.0979C41.3623 44.4244 44.4486 45.2793 47.8901 44.8423C49.9934 44.575 51.8824 43.7268 53.442 42.2893C57.1979 38.8277 57.5678 34.6176 56.0207 29.9449C56.3701 30.2274 56.5895 30.546 56.8188 30.8502C58.2429 32.7384 59.0894 34.8667 59.3367 37.214C59.9792 43.3132 57.1529 47.5819 52.1689 50.6887M46.5516 52.5058C42.1799 52.8792 38.7385 51.0594 35.8916 47.9146C34.0722 45.9048 32.8935 43.5446 32.5206 40.8493C31.979 36.9342 32.6577 33.2891 35.1713 30.1167C35.4973 29.7052 35.8669 29.3301 36.2778 28.9931C34.6751 33.6553 35.0495 38.2271 36.9004 42.6921C38.779 47.2245 42.0281 50.4516 46.553 52.3728V52.3728V52.3728C46.624 52.3714 46.716 52.385 46.7118 52.459C46.7063 52.5554 46.6106 52.5019 46.5516 52.5058M41.6122 27.265C44.3685 25.2461 47.9386 25.3947 50.5753 27.572C52.378 29.0605 53.6213 30.9312 53.9083 33.2578C54.3243 36.6304 53.5388 39.6742 50.8244 41.9508C48.1673 44.1793 44.1307 44.0942 41.5023 41.8344C39.6842 40.2711 38.7065 38.2629 38.3435 35.9235C38.2543 35.3496 38.1925 34.7731 38.198 34.1864C38.2856 31.3618 39.2887 28.9671 41.6122 27.265M70.8894 33.2898C70.0683 28.9114 67.9023 25.3283 64.4066 22.5757C61.1423 20.005 57.3776 18.7879 53.2576 18.5966C51.5928 18.5195 49.9493 18.6983 48.333 19.0879C44.5236 20.0059 41.1868 21.7394 38.6276 24.7928C38.5341 24.9043 38.4291 24.9932 38.2901 25.057C35.772 26.2136 33.6364 27.8669 31.9307 30.0534C29.3387 33.3765 28.1993 37.1258 28.7879 41.3302C29.3474 45.3272 31.3167 48.4997 34.5919 50.8379C37.9994 53.2705 41.8795 54.2034 46 54.3049C47.2506 54.3356 48.4778 54.1327 49.6968 53.8625C50.1638 53.7589 50.6154 53.5372 51.1134 53.6139C52.0591 53.7598 53.0089 53.8407 54.0139 53.8189C54.8999 53.8483 55.8265 53.7772 56.745 53.6116C62.3233 52.6052 66.5111 49.6186 69.2221 44.6512C71.1641 41.0928 71.6346 37.264 70.8894 33.2898" fill="white"/>
</svg>
