<svg width="101" height="72" viewBox="0 0 101 72" fill="none" xmlns="http://www.w3.org/2000/svg">
<rect width="100.227" height="71.4578" rx="5.76117" fill="#003D79"/>
<path fill-rule="evenodd" clip-rule="evenodd" d="M7.24949 37.8456C7.24949 36.5641 7.22688 35.4886 7.15906 34.5297H9.51204L9.62237 36.1771H9.68838C10.2217 35.3066 11.197 34.277 13.0162 34.277C14.4362 34.277 15.5453 35.1024 16.0103 36.337H16.056C16.4338 35.7196 16.876 35.2625 17.3858 34.9411C17.9853 34.5071 18.6733 34.277 19.5606 34.277C21.357 34.277 23.1749 35.5348 23.1749 39.1033V45.6667H20.5133V39.5156C20.5133 37.6633 19.8932 36.5641 18.5851 36.5641C17.6519 36.5641 16.9635 37.2514 16.677 38.0523C16.6097 38.3259 16.5432 38.6693 16.5432 38.9872V45.6667H13.8807V39.2173C13.8807 37.6633 13.2827 36.5641 12.0181 36.5641C10.9976 36.5641 10.3108 37.3887 10.0662 38.1647C9.95447 38.4409 9.90971 38.7602 9.90971 39.0797V45.6667H7.24949V37.8456Z" fill="white"/>
<path fill-rule="evenodd" clip-rule="evenodd" d="M33.5449 42.9916C33.5449 43.9974 33.5892 44.9791 33.7002 45.6672H31.2372L31.0604 44.4325H30.993C30.3279 45.3024 29.1966 45.9189 27.7992 45.9189C25.6248 45.9189 24.4054 44.2964 24.4054 42.6031C24.4054 39.789 26.8224 38.3724 30.8155 38.395V38.2113C30.8155 37.4792 30.5268 36.2678 28.6194 36.2678C27.5542 36.2678 26.4446 36.6112 25.713 37.0906L25.1799 35.2625C25.98 34.7584 27.3787 34.2775 29.0854 34.2775C32.5473 34.2775 33.5449 36.5431 33.5449 38.9663V42.9916ZM30.882 40.2247C28.9524 40.1785 27.1117 40.613 27.1117 42.3057C27.1117 43.4023 27.7992 43.9065 28.6646 43.9065C29.7503 43.9065 30.5501 43.1744 30.7934 42.3742C30.8594 42.1684 30.882 41.9388 30.882 41.7565V40.2247Z" fill="white"/>
<path fill-rule="evenodd" clip-rule="evenodd" d="M35.4312 37.8456C35.4312 36.5641 35.4068 35.4886 35.3422 34.5297H37.7358L37.8697 36.1991H37.9352C38.4016 35.331 39.5772 34.277 41.3736 34.277C43.2598 34.277 45.2117 35.5348 45.2117 39.0576V45.6667H42.4836V39.3786C42.4836 37.7766 41.9069 36.5641 40.4205 36.5641C39.3335 36.5641 38.5796 37.3647 38.2904 38.2113C38.2031 38.4635 38.1801 38.8073 38.1801 39.1252V45.6667H35.4312V37.8456Z" fill="white"/>
<path fill-rule="evenodd" clip-rule="evenodd" d="M57.041 30.0547V42.5329C57.041 43.6762 57.0847 44.9134 57.1292 45.6672H54.6889L54.5798 43.9065H54.5345C53.8909 45.1421 52.5801 45.9189 51.0069 45.9189C48.4348 45.9189 46.3934 43.6552 46.3934 40.2247C46.3707 36.4965 48.6333 34.2775 51.2284 34.2775C52.7142 34.2775 53.7799 34.9188 54.2671 35.7427H54.3121V30.0547H57.041ZM54.3121 39.1709C54.3121 38.9446 54.2892 38.6688 54.2465 38.4409C54.0021 37.3431 53.1365 36.4506 51.8942 36.4506C50.1419 36.4506 49.1657 38.0523 49.1657 40.1335C49.1657 42.1684 50.1419 43.6552 51.8721 43.6552C52.9807 43.6552 53.9574 42.8779 54.2232 41.6661C54.2892 41.4134 54.3121 41.1393 54.3121 40.841V39.1709Z" fill="white"/>
<path fill-rule="evenodd" clip-rule="evenodd" d="M58.9689 45.6666H61.7222V34.5303H58.9689V45.6666Z" fill="white"/>
<path fill-rule="evenodd" clip-rule="evenodd" d="M63.6503 38.1199C63.6503 36.6111 63.6273 35.5347 63.561 34.5294H65.935L66.0219 36.6556H66.1139C66.6454 35.0776 67.91 34.5294 69.063 34.5294C69.3287 34.5294 69.4837 34.4826 69.7062 34.5294V37.0001C69.4837 36.9544 69.2403 36.9088 68.9075 36.9088C67.599 36.9088 66.7109 37.777 66.4672 39.034C66.424 39.2857 66.3793 39.5843 66.3793 39.906V45.6671H63.6503V38.1199Z" fill="white"/>
<path fill-rule="evenodd" clip-rule="evenodd" d="M70.9707 45.6666H73.72V34.5303H70.9707V45.6666Z" fill="white"/>
<path fill-rule="evenodd" clip-rule="evenodd" d="M70.3203 21.0652C68.6688 22.0512 64.7735 24.3545 63.3194 25.2122V25.2122C62.4332 25.6777 60.3807 25.881 59.2198 24.2671V24.2671C59.199 24.238 57.6757 22.2756 57.6135 22.2017V22.2017C57.5699 22.1495 56.5851 20.6436 54.3908 20.5965V20.5965C54.0666 20.5886 52.4547 20.5797 50.8819 21.5013V21.5013C48.7914 22.7327 43.9294 25.5985 43.9294 25.5985V25.5985C43.9281 25.5985 43.9281 25.601 43.9256 25.601V25.601C41.9271 26.78 40.3699 27.6979 40.3699 27.6979V27.6979L42.2097 30.0275C43.0703 31.1293 45.0112 31.9817 46.6943 30.9855V30.9855C46.6943 30.9855 52.9134 27.2725 52.9362 27.2618V27.2618C55.6259 25.7409 57.7012 25.7409 59.0787 26.3068V26.3068C60.3151 26.8455 61.3908 28.1876 61.3908 28.1876V28.1876C61.3908 28.1876 62.7965 29.9837 63.0445 30.2979V30.2979C63.8444 31.313 65.1683 30.9142 65.1683 30.9142V30.9142C65.1683 30.9142 65.6588 30.8569 66.3983 30.4042V30.4042C66.3983 30.4042 72.4223 26.803 72.4262 26.8019V26.8019C74.339 25.6449 76.0933 25.4288 76.9899 25.5139V25.5139C79.7982 25.777 80.6707 27.7997 81.8883 29.2108V29.2108C82.6054 30.0408 83.2524 30.5121 84.242 30.4883V30.4883C84.8922 30.4741 85.6267 30.0676 85.735 29.9942V29.9942L92.9486 25.7022C92.9486 25.7022 92.2084 24.5529 90.6926 22.7646V22.7646C89.3359 21.1692 87.8949 21.891 86.746 22.4777V22.4777C86.2633 22.7238 84.5144 23.9233 82.7817 24.7601V24.7601C81.5471 25.3561 79.7738 25.1768 78.8019 23.9387V23.9387C78.7438 23.8634 77.1715 21.9008 77.0062 21.6593V21.6593C76.3716 20.8398 75.1334 20.1058 73.5466 20.1058V20.1058C72.5817 20.1058 71.4868 20.3771 70.3203 21.0652" fill="url(#paint0_linear_0_16)"/>
<defs>
<linearGradient id="paint0_linear_0_16" x1="40.3699" y1="31.4267" x2="92.9486" y2="31.4267" gradientUnits="userSpaceOnUse">
<stop stop-color="#FFCA06"/>
<stop offset="0.330844" stop-color="#FBAA18"/>
<stop offset="0.694742" stop-color="#FFC907"/>
<stop offset="1" stop-color="#FAA619"/>
</linearGradient>
</defs>
</svg>
