<svg width="101" height="72" viewBox="0 0 101 72" fill="none" xmlns="http://www.w3.org/2000/svg">
<rect width="100.227" height="71.4578" rx="5.76117" fill="#4C3494"/>
<path fill-rule="evenodd" clip-rule="evenodd" d="M81.8781 27.097C79.5236 25.0214 76.2858 24.0515 73.1716 24.348C72.3935 24.4188 71.6215 24.557 70.8723 24.7783C68.1279 25.5663 65.7208 27.4433 64.2837 29.9045C62.3516 33.1503 62.1202 37.3162 63.6116 40.7771C64.7192 43.3844 66.8363 45.5483 69.4317 46.6958C72.3795 47.999 75.8679 48.0384 78.8419 46.7955C80.3578 46.1588 81.7327 45.1862 82.835 43.9678C84.8478 41.7734 85.9186 38.7786 85.8502 35.8136C85.8327 32.525 84.3869 29.2468 81.8781 27.097ZM68.3943 31.2139C69.501 29.5669 71.3262 28.4185 73.3022 28.1736C74.8689 27.9611 76.5119 28.2725 77.8692 29.092C79.1731 29.8643 80.1922 31.0757 80.8012 32.4567C82.0043 35.2118 81.7344 38.6264 79.9179 41.0562C79.0566 42.2072 77.8473 43.1046 76.4742 43.5471C74.7498 44.1078 72.808 43.9871 71.1746 43.1973C69.8865 42.5789 68.8096 41.5538 68.0954 40.3206C66.4989 37.5515 66.5909 33.8658 68.3943 31.2139ZM31.275 25.5611C29.1501 24.4617 26.6773 24.0944 24.3132 24.4075C22.034 24.7005 19.8434 25.6871 18.1434 27.2352C16.3997 28.792 15.1755 30.9043 14.6463 33.1757C14.0075 35.8722 14.3019 38.7926 15.5243 41.2862C16.6468 43.6154 18.5973 45.537 20.9483 46.6224C23.2765 47.7034 25.9605 47.9623 28.4666 47.4367C30.8746 46.9364 33.0985 45.6174 34.7012 43.7562C36.2294 41.9982 37.181 39.7652 37.4483 37.4571C37.7068 35.3046 37.3869 33.0821 36.5081 31.0976C35.4662 28.7282 33.5901 26.7296 31.275 25.5611ZM21.8228 29.4165C22.7604 28.7404 23.8724 28.3153 25.0177 28.1684C26.389 27.9917 27.8164 28.2086 29.0564 28.827C30.5162 29.5381 31.6878 30.7827 32.3774 32.2451C33.1607 33.8754 33.3737 35.755 33.0784 37.5322C32.8059 39.1538 32.0637 40.7185 30.8772 41.8731C29.8573 42.9008 28.5008 43.5856 27.0699 43.8069C25.3174 44.0824 23.4571 43.7037 21.9884 42.6996C20.4716 41.6894 19.407 40.0774 18.9469 38.3273C18.493 36.599 18.55 34.7308 19.1432 33.0427C19.648 31.6048 20.575 30.3034 21.8228 29.4165ZM38.5059 24.9296L38.5051 24.9296C38.5045 25.7646 38.5047 26.5999 38.5049 27.4354C38.505 27.8532 38.5051 28.271 38.5051 28.6888C39.0729 28.6901 39.6402 28.6899 40.2078 28.6898C40.397 28.6897 40.5862 28.6897 40.7754 28.6897C42.1799 31.9145 43.5826 35.1402 44.9852 38.3658C46.0031 40.7068 47.0211 43.0478 48.0396 45.3882C48.5137 46.4745 49.51 47.3221 50.6693 47.5906C51.0911 47.7007 51.5261 47.6962 51.9596 47.6918C52.0944 47.6904 52.229 47.6891 52.3631 47.6912C53.6934 44.5634 55.0281 41.4375 56.3628 38.3116C57.9539 34.5853 59.5448 30.8592 61.1283 27.1302C61.1687 26.6765 61.1625 26.2184 61.1563 25.7603C61.1526 25.4828 61.1489 25.2053 61.1555 24.9287H53.7967V24.9351C53.7958 26.1872 53.7949 27.4384 53.7967 28.6897C54.117 28.69 54.4373 28.6899 54.7577 28.6898C55.1848 28.6897 55.6119 28.6895 56.039 28.6905C55.4533 30.1229 54.8689 31.5558 54.2846 32.9887C53.1513 35.7681 52.018 38.5473 50.8743 41.322C49.9835 39.2166 49.0929 37.1111 48.2023 35.0056C47.3119 32.9006 46.4215 30.7956 45.5309 28.6905C45.9077 28.6892 46.2847 28.6895 46.6618 28.6897C47.0389 28.6899 47.4162 28.6901 47.7934 28.6888V24.9296C44.6979 24.9279 41.6023 24.9287 38.5059 24.9296Z" fill="white"/>
</svg>
