<svg width="101" height="72" viewBox="0 0 101 72" fill="none" xmlns="http://www.w3.org/2000/svg">
<rect width="100.227" height="71.4578" rx="5.76117" fill="white"/>
<path fill-rule="evenodd" clip-rule="evenodd" d="M50.4864 26.9929C50.19 27.0146 49.862 27.3231 49.7444 27.4921C49.4824 27.8687 49.5633 28.0222 49.5358 28.4682C49.493 28.2654 48.7201 27.4667 48.5328 27.3211C48.1395 27.0158 47.7086 26.7261 47.1376 26.5015C43.4722 25.0589 39.5288 28.1965 40.3002 32.1639C40.542 31.9442 40.6195 31.7752 40.9299 31.6016C41.8869 31.0659 42.9511 31.4045 43.456 32.1984C44.0515 33.1356 43.7451 34.7431 42.0094 35.0575C43.5309 36.5539 46.4403 36.6657 48.3454 35.2137C49.0478 34.6786 49.7458 33.8373 50.1034 32.6944C50.5521 31.2598 50.3058 30.3419 49.8825 29.0548C50.0809 29.2023 50.3201 29.3564 50.6508 29.3754C51.0641 29.3996 51.2571 29.231 51.5409 29.112C51.4626 29.3788 51.3316 29.619 51.2396 29.918C50.7237 31.5914 51.2246 33.7499 52.4315 34.8593C52.7324 35.1363 52.5083 34.9923 52.9946 35.3792C54.916 36.9106 57.4557 36.7346 59.3991 35.2053C59.1059 35.0321 58.402 35.0776 57.9355 34.2958C56.8469 32.4733 59.1426 30.5201 60.7523 31.9386C60.8888 32.0594 60.9009 32.1424 61.0463 32.25C61.2391 31.8461 61.1294 30.7748 61.0326 30.3185C60.2755 26.7558 56.0242 25.1176 53.0418 27.3392C52.5496 27.7061 52.3551 28.001 51.9355 28.4424C51.9661 27.3816 51.6138 27.3772 51.1069 26.9964C52.6904 26.7596 53.2807 26.478 54.2557 25.6679C55.0201 25.0328 55.657 23.8133 55.8333 22.7159C56.0553 21.3358 55.677 20.0713 55.058 19.1365C54.535 18.346 53.4414 17.3559 52.4679 17.1568C53.0431 18.7731 51.9722 19.8298 50.8034 19.8261C49.5445 19.822 48.4631 18.4741 49.1317 17.1774C48.3946 17.2103 47.1456 18.3613 46.6479 19.082C45.2333 21.1312 45.6275 24.0487 47.3655 25.6031C48.3265 26.4628 48.8718 26.7005 50.4864 26.9929" fill="#2A4095"/>
<path fill-rule="evenodd" clip-rule="evenodd" d="M40.2452 15.3815C40.7792 15.3073 57.3349 15.3701 58.73 15.3701C59.468 15.3701 61.0673 15.2447 61.6202 15.5532C62.4109 15.9943 62.2864 16.9109 62.2864 17.9849V39.6347C62.2867 40.3555 62.3254 41.4154 61.1442 41.5824C60.3973 41.6886 58.8875 41.5999 58.0608 41.5999H42.6193C41.8806 41.5999 40.2476 41.7348 39.7186 41.4051C38.9279 40.9125 39.0753 40.0777 39.0753 38.9644V17.3145C39.0753 16.8086 39.0427 16.3728 39.2892 15.9908C39.4798 15.6957 39.7818 15.446 40.2452 15.3815ZM61.2168 14.3763H40.1314L39.873 14.4641C39.59 14.5385 39.445 14.5858 39.1854 14.7518C38.8793 14.9478 38.6938 15.1295 38.5056 15.4116C38.0245 16.1303 38.1056 16.7123 38.1056 17.6757V39.0674C38.1056 39.9367 38.0041 40.7283 38.4176 41.4195C38.7303 41.9416 39.202 42.3824 39.9824 42.5317C40.5949 42.6488 54.6137 42.5707 55.9504 42.5707C56.823 42.5707 60.7596 42.6226 61.2845 42.5442C62.0795 42.4253 62.5789 41.9754 62.8957 41.4862C63.3525 40.7821 63.2563 40.0906 63.2563 39.1709V17.7268C63.2563 16.781 63.3403 16.1337 62.8767 15.429C62.2937 14.5418 61.4926 14.5184 61.2168 14.3763V14.3763Z" fill="#2A4095"/>
<path fill-rule="evenodd" clip-rule="evenodd" d="M12.9053 46.5989H17.6305C18.6601 46.5989 19.4304 46.8432 19.9439 47.334C20.4555 47.8247 20.7124 48.5235 20.7124 49.4302C20.7124 50.3601 20.4321 51.0889 19.8736 51.6118C19.315 52.137 18.4611 52.3985 17.3137 52.3985H15.756V55.8063H12.9053V46.5989ZM15.756 50.5337H16.4557C17.0081 50.5337 17.3952 50.4375 17.6176 50.2464C17.8406 50.0559 17.9519 49.8115 17.9519 49.5135C17.9519 49.2242 17.8552 48.9797 17.6609 48.7784C17.4681 48.577 17.1043 48.4765 16.5692 48.4765H15.756V50.5337ZM24.141 51.2927L21.7011 51.0355C21.7931 50.6068 21.9259 50.2703 22.0992 50.026C22.2724 49.7796 22.5208 49.5671 22.8484 49.3871C23.0815 49.2564 23.4023 49.1558 23.8114 49.085C24.2201 49.0143 24.6632 48.9778 25.1403 48.9778C25.9042 48.9778 26.5164 49.0207 26.9808 49.1063C27.4432 49.1923 27.8306 49.3723 28.1386 49.6443C28.3569 49.833 28.528 50.101 28.6521 50.4458C28.7785 50.791 28.8405 51.121 28.8405 51.436V54.3852C28.8405 54.7002 28.8599 54.9469 28.9003 55.1246C28.9389 55.3026 29.0266 55.5296 29.1595 55.8063H26.7688C26.6723 55.6347 26.6106 55.5062 26.5804 55.4163C26.5529 55.3262 26.523 55.1867 26.4926 54.9961C26.1588 55.3175 25.827 55.5471 25.4955 55.6843C25.0438 55.8683 24.5198 55.9605 23.9227 55.9605C23.1284 55.9605 22.5248 55.7763 22.1143 55.4054C21.7011 55.0367 21.4958 54.58 21.4958 54.0401C21.4958 53.5322 21.6433 53.1142 21.9407 52.7865C22.2385 52.4584 22.786 52.214 23.5843 52.0555C24.5408 51.8627 25.1619 51.7278 25.4464 51.6482C25.7309 51.5712 26.0326 51.4706 26.3493 51.344C26.3493 51.029 26.2854 50.8103 26.1547 50.6837C26.0265 50.5573 25.7994 50.495 25.4741 50.495C25.0567 50.495 24.7445 50.5617 24.5345 50.6966C24.3718 50.8038 24.2412 51.001 24.141 51.2927ZM26.3493 52.6301C25.9984 52.7565 25.6325 52.868 25.2492 52.9664C24.7316 53.1056 24.4021 53.2427 24.2648 53.3781C24.1216 53.5171 24.0509 53.6759 24.0509 53.8536C24.0509 54.0574 24.1216 54.2247 24.2605 54.353C24.4021 54.4816 24.6074 54.5459 24.8792 54.5459C25.1637 54.5459 25.4289 54.475 25.6754 54.336C25.9193 54.1966 26.0927 54.0272 26.1952 53.8259C26.2981 53.6244 26.3493 53.363 26.3493 53.0416V52.6301ZM30.3684 49.132H32.7484V50.2189C33.1033 49.7728 33.4609 49.4557 33.8245 49.2651C34.1885 49.074 34.6294 48.9778 35.1515 48.9778C35.858 48.9778 36.4079 49.1877 36.8081 49.6103C37.2061 50.0301 37.4052 50.6818 37.4052 51.5625V55.8063H34.8371V52.1348C34.8371 51.7149 34.76 51.419 34.6059 51.2454C34.4519 51.0718 34.2355 50.9839 33.9574 50.9839C33.6516 50.9839 33.4011 51.1018 33.2105 51.3355C33.02 51.5712 32.9236 51.9912 32.9236 52.6001V55.8063H30.3684V49.132ZM39.0232 55.8062H41.5785V49.132H39.0232V55.8062ZM43.2091 49.132H45.5889V50.2189C45.9442 49.7728 46.3018 49.4557 46.6653 49.2651C47.0293 49.074 47.4698 48.9778 47.9923 48.9778C48.6984 48.9778 49.2486 49.1877 49.6485 49.6103C50.047 50.0301 50.2457 50.6818 50.2457 51.5625V55.8063H47.6775V52.1348C47.6775 51.7149 47.6007 51.419 47.4463 51.2454C47.2924 51.0718 47.0763 50.9839 46.7981 50.9839C46.492 50.9839 46.2416 51.1018 46.0512 51.3355C45.8606 51.5712 45.7645 51.9912 45.7645 52.6001V55.8063H43.2091V49.132V49.132Z" fill="#FF0000"/>
<path fill-rule="evenodd" clip-rule="evenodd" d="M52.588 46.5989H57.9105C58.7966 46.5989 59.4773 46.8198 59.9526 47.2589C60.4274 47.6981 60.665 48.2427 60.665 48.8921C60.665 49.4363 60.496 49.9036 60.1558 50.2916C59.9307 50.553 59.5993 50.757 59.1648 50.9089C59.8262 51.0677 60.3098 51.3398 60.6219 51.7278C60.9326 52.1154 61.0889 52.6021 61.0889 53.1871C61.0889 53.6654 60.9773 54.0939 60.7571 54.475C60.5345 54.8566 60.2307 55.1568 59.8474 55.38C59.6079 55.5167 59.248 55.6176 58.7668 55.6796C58.1269 55.7635 57.7031 55.8063 57.4935 55.8063H52.588V46.5989ZM55.4518 50.2125H56.691C57.1337 50.2125 57.4442 50.1351 57.6171 49.9832C57.7909 49.8285 57.8787 49.608 57.8787 49.3185C57.8787 49.0509 57.7909 48.8407 57.6171 48.6905C57.4442 48.5386 57.1401 48.4636 56.7099 48.4636H55.4518V50.2125ZM55.4518 53.8259H56.9006C57.3905 53.8259 57.7353 53.738 57.9361 53.5644C58.1376 53.3905 58.2381 53.1594 58.2381 52.8656C58.2381 52.5936 58.1398 52.375 57.9407 52.2097C57.7418 52.045 57.3927 51.9612 56.8942 51.9612H55.4518V53.8259ZM64.7332 51.2927L62.2937 51.0355C62.3856 50.6068 62.5184 50.2703 62.6917 50.026C62.865 49.7796 63.1133 49.5671 63.4405 49.3871C63.674 49.2564 63.9949 49.1558 64.4038 49.085C64.8125 49.0143 65.2556 48.9778 65.7328 48.9778C66.4967 48.9778 67.1089 49.0207 67.5732 49.1063C68.0357 49.1923 68.4227 49.3723 68.7311 49.6443C68.9489 49.833 69.1204 50.101 69.2445 50.4458C69.3709 50.791 69.433 51.121 69.433 51.436V54.3852C69.433 54.7002 69.4522 54.9469 69.4928 55.1246C69.5313 55.3026 69.6192 55.5296 69.752 55.8063H67.3613C67.2652 55.6347 67.2032 55.5062 67.1729 55.4163C67.1453 55.3262 67.1153 55.1867 67.0855 54.9961C66.7514 55.3175 66.4196 55.5471 66.0882 55.6843C65.6363 55.8683 65.1121 55.9605 64.5152 55.9605C63.7209 55.9605 63.1174 55.7763 62.7065 55.4054C62.2937 55.0367 62.0882 54.58 62.0882 54.0401C62.0882 53.5322 62.2357 53.1142 62.5332 52.7865C62.8308 52.4584 63.3785 52.214 64.1769 52.0555C65.1334 51.8627 65.7539 51.7278 66.0389 51.6482C66.3234 51.5712 66.6253 51.4706 66.9416 51.344C66.9416 51.029 66.8777 50.8103 66.7471 50.6837C66.6185 50.5573 66.3919 50.495 66.0664 50.495C65.6491 50.495 65.337 50.5617 65.1269 50.6966C64.9642 50.8038 64.8337 51.001 64.7332 51.2927ZM66.9416 52.6301C66.591 52.7565 66.2251 52.868 65.8417 52.9664C65.3241 53.1056 64.9946 53.2427 64.8575 53.3781C64.7141 53.5171 64.6433 53.6759 64.6433 53.8536C64.6433 54.0574 64.7141 54.2247 64.8531 54.353C64.9946 54.4816 65.1996 54.5459 65.4717 54.5459C65.7563 54.5459 66.0216 54.475 66.2679 54.336C66.5119 54.1966 66.6848 54.0272 66.7877 53.8259C66.8906 53.6244 66.9416 53.363 66.9416 53.0416V52.6301ZM70.9608 49.132H73.341V50.2189C73.6962 49.7728 74.0534 49.4557 74.4174 49.2651C74.7811 49.074 75.2219 48.9778 75.7441 48.9778C76.4504 48.9778 77.0002 49.1877 77.4006 49.6103C77.7986 50.0301 77.9977 50.6818 77.9977 51.5625V55.8063H75.4295V52.1348C75.4295 51.7149 75.3524 51.419 75.1985 51.2454C75.0444 51.0718 74.8283 50.9839 74.5499 50.9839C74.2438 50.9839 73.9936 51.1018 73.803 51.3355C73.6126 51.5712 73.5161 51.9912 73.5161 52.6001V55.8063H70.9608V49.132ZM79.5256 46.5989H82.1322V51.3398L84.0393 49.132H87.1788L84.7905 51.4682L87.3198 55.8063H84.4457L83.0934 53.1313L82.1322 54.0723V55.8063H79.5256V46.5989V46.5989Z" fill="#2A4095"/>
<path fill-rule="evenodd" clip-rule="evenodd" d="M40.5897 38.0031H41.5678C41.7808 38.0031 41.9401 38.0538 42.0468 38.1553C42.1528 38.2569 42.2058 38.4013 42.2058 38.5892C42.2058 38.7816 42.1473 38.9325 42.032 39.0409C41.9163 39.1497 41.7395 39.2035 41.5024 39.2035H41.1799V39.9091H40.5897V38.0031ZM41.1799 38.8177H41.3245C41.4388 38.8177 41.519 38.7976 41.565 38.7582C41.6109 38.7189 41.634 38.6681 41.634 38.6063C41.634 38.5464 41.6143 38.496 41.5738 38.4543C41.5341 38.4127 41.4587 38.3918 41.3479 38.3918H41.1799V38.8177ZM43.4567 39.595H42.7903L42.695 39.9091H42.0945L42.8108 38.0031H43.4543L44.1677 39.9091H43.552L43.4567 39.595ZM43.3322 39.1823L43.1244 38.4972L42.9159 39.1823H43.3322ZM44.3588 38.0031H44.9073L45.6214 39.0553V38.0031H46.1769V39.9091H45.6214L44.9116 38.8626V39.9091H44.3588V38.0031ZM46.5915 39.9091H47.1813V38.0031H46.5915V39.9091ZM47.6072 38.0031H48.1562L48.8698 39.0553V38.0031H49.4253V39.9091H48.8698L48.16 38.8626V39.9091H47.6072V38.0031ZM51.6592 39.2194V38.823H52.5685V39.6335C52.3945 39.7526 52.2408 39.8337 52.1073 39.8765C51.9736 39.9196 51.8148 39.941 51.6316 39.941C51.4057 39.941 51.2214 39.9023 51.0791 39.8254C50.9369 39.7484 50.8263 39.6335 50.7482 39.4809C50.6699 39.3285 50.6308 39.1536 50.6308 38.9561C50.6308 38.748 50.6736 38.5671 50.7591 38.4134C50.845 38.2598 50.9698 38.1432 51.1355 38.0631C51.2642 38.0019 51.4379 37.9711 51.6558 37.9711C51.8659 37.9711 52.0232 37.9902 52.1274 38.0284C52.2318 38.0662 52.3181 38.1254 52.3869 38.2057C52.4553 38.2861 52.5072 38.3876 52.542 38.5104L51.9756 38.6128C51.9522 38.5403 51.9126 38.485 51.8571 38.4468C51.8012 38.4081 51.7304 38.3891 51.6437 38.3891C51.5151 38.3891 51.4122 38.4339 51.3354 38.5233C51.2588 38.6131 51.2207 38.7552 51.2207 38.9488C51.2207 39.1549 51.2593 39.3021 51.3369 39.3903C51.4141 39.4786 51.5219 39.5228 51.6603 39.5228C51.7258 39.5228 51.7883 39.5139 51.8481 39.4945C51.9075 39.4757 51.9756 39.4429 52.0528 39.3978V39.2194H51.6592ZM52.9245 39.9091V38.0031H53.9046C54.0862 38.0031 54.2255 38.0185 54.3212 38.0499C54.4173 38.0811 54.4949 38.1395 54.5535 38.2235C54.6125 38.3085 54.6417 38.4115 54.6417 38.5332C54.6417 38.6389 54.6189 38.7302 54.5739 38.8067C54.5292 38.8841 54.4672 38.9462 54.3881 38.9942C54.3378 39.0243 54.2685 39.0496 54.1815 39.0697C54.2517 39.0928 54.3023 39.1163 54.3344 39.1398C54.3557 39.1555 54.3871 39.1891 54.4282 39.2398C54.4688 39.291 54.4963 39.3304 54.5104 39.3584L54.7961 39.9091H54.1316L53.8172 39.3279C53.7774 39.2524 53.7422 39.2035 53.7108 39.1811C53.6685 39.1519 53.6201 39.1368 53.5666 39.1368H53.5148V39.9091H52.9245ZM53.5148 38.7775H53.763C53.79 38.7775 53.8422 38.7689 53.9194 38.7514C53.9583 38.7438 53.9901 38.7241 54.0147 38.6916C54.0393 38.6593 54.0518 38.6226 54.0518 38.5808C54.0518 38.5191 54.032 38.4717 53.9931 38.4389C53.9541 38.4054 53.8812 38.3891 53.7733 38.3891H53.5148V38.7775ZM54.8642 38.9576C54.8642 38.6464 54.9503 38.4042 55.1236 38.2311C55.297 38.0576 55.5381 37.9711 55.8472 37.9711C56.1639 37.9711 56.4079 38.0565 56.5793 38.2262C56.7508 38.3968 56.8364 38.6355 56.8364 38.942C56.8364 39.1644 56.7992 39.3467 56.7243 39.4893C56.6493 39.6316 56.5408 39.7428 56.3997 39.8223C56.2578 39.9016 56.0813 39.941 55.87 39.941C55.6556 39.941 55.4783 39.9067 55.3371 39.8386C55.1968 39.7696 55.0825 39.6617 54.9952 39.513C54.908 39.3655 54.8642 39.1799 54.8642 38.9576ZM55.4514 38.9588C55.4514 39.1507 55.4873 39.2892 55.5588 39.3732C55.6303 39.457 55.728 39.4989 55.8509 39.4989C55.9774 39.4989 56.0757 39.4577 56.145 39.3759C56.2145 39.2933 56.249 39.1458 56.249 38.9325C56.249 38.7533 56.2126 38.6226 56.1404 38.5399C56.0679 38.457 55.9697 38.4156 55.8457 38.4156C55.7273 38.4156 55.6315 38.4577 55.5596 38.5418C55.4873 38.6257 55.4514 38.7646 55.4514 38.9588ZM58.3915 38.0031H58.9787V39.1383C58.9787 39.2505 58.9614 39.3569 58.9261 39.457C58.8909 39.5571 58.8364 39.6445 58.7611 39.7195C58.6862 39.7947 58.6079 39.847 58.5262 39.8775C58.4118 39.9196 58.2745 39.941 58.1145 39.941C58.0217 39.941 57.9206 39.934 57.8114 39.9216C57.702 39.9087 57.6105 39.8829 57.537 39.8442C57.4632 39.8056 57.3959 39.751 57.3354 39.6802C57.2741 39.6094 57.2323 39.5359 57.2098 39.4604C57.1734 39.3394 57.1552 39.2318 57.1552 39.1383V38.0031H57.7429V39.1651C57.7429 39.2693 57.7716 39.3504 57.8287 39.4085C57.8863 39.4672 57.9662 39.4964 58.0679 39.4964C58.1686 39.4964 58.2476 39.4675 58.3055 39.41C58.3626 39.3528 58.3915 39.271 58.3915 39.1651V38.0031ZM59.3643 38.0031H60.3424C60.5554 38.0031 60.7148 38.0538 60.8214 38.1553C60.9271 38.2569 60.9803 38.4013 60.9803 38.5892C60.9803 38.7816 60.922 38.9325 60.8067 39.0409C60.6908 39.1497 60.5142 39.2035 60.277 39.2035H59.9544V39.9091H59.3643V38.0031ZM59.9544 38.8177H60.099C60.2133 38.8177 60.2935 38.7976 60.3399 38.7582C60.3855 38.7189 60.4087 38.6681 60.4087 38.6063C60.4087 38.5464 60.3889 38.496 60.3485 38.4543C60.3086 38.4127 60.2334 38.3918 60.1226 38.3918H59.9544V38.8177V38.8177Z" fill="#2A4095"/>
<path fill-rule="evenodd" clip-rule="evenodd" d="M40.3191 45.1831C41.2061 45.1831 41.9248 45.9031 41.9248 46.7913C41.9248 47.6795 41.2061 48.3995 40.3191 48.3995C39.4322 48.3995 38.7133 47.6795 38.7133 46.7913C38.7133 45.9031 39.4322 45.1831 40.3191 45.1831" fill="#2A4095"/>
</svg>
