<svg width="101" height="72" viewBox="0 0 101 72" fill="none" xmlns="http://www.w3.org/2000/svg">
<rect width="100.227" height="71.4578" rx="5.76117" fill="white"/>
<path fill-rule="evenodd" clip-rule="evenodd" d="M42.1552 18.579H51.9259C54.6778 18.579 57.9416 18.6683 60.1251 20.5903C61.5836 21.8743 62.349 23.92 62.1721 26.116C61.573 33.563 57.1102 37.7341 51.1258 37.7341H46.3068C45.4867 37.7341 44.9431 38.2765 44.7118 39.7458L43.367 48.2842C43.2798 48.8382 43.0392 49.1646 42.6001 49.2041H36.5811C35.9132 49.2041 35.6759 48.6941 35.8505 47.5896L40.1848 20.1992C40.3584 19.1016 40.96 18.579 42.1552 18.579" fill="#1B3D92"/>
<path fill-rule="evenodd" clip-rule="evenodd" d="M48.439 27.154H58.1999C63.4402 27.154 65.4133 29.8017 65.1087 33.6982C64.6064 40.1214 60.7155 43.6732 55.5549 43.6732H52.9491C52.2419 43.6732 51.766 44.1399 51.5733 45.4083L50.4557 52.7718C50.3831 53.2501 50.1312 53.531 49.7526 53.5652H43.6321C43.0561 53.5652 42.8513 53.1253 43.002 52.1728L46.7397 28.5514C46.8893 27.6046 47.408 27.154 48.439 27.154" fill="#00A2D3"/>
<path fill-rule="evenodd" clip-rule="evenodd" d="M44.3861 39.3309L46.0922 28.5512C46.2421 27.6047 46.7611 27.154 47.792 27.154H57.553C59.1689 27.154 60.4741 27.4058 61.4973 27.8695C60.5165 34.4974 56.2217 38.1799 50.5981 38.1799H45.7788C45.1447 38.1799 44.6708 38.5035 44.3861 39.3309" fill="#1B2E7F"/>
</svg>
