<svg width="101" height="72" viewBox="0 0 101 72" fill="none" xmlns="http://www.w3.org/2000/svg">
<rect width="100.227" height="71.4578" rx="5.76117" fill="white"/>
<mask id="mask0_0_17" style="mask-type:luminance" maskUnits="userSpaceOnUse" x="0" y="0" width="101" height="72">
<rect width="100.227" height="71.4578" rx="5.76117" fill="white"/>
</mask>
<g mask="url(#mask0_0_17)">
<path fill-rule="evenodd" clip-rule="evenodd" d="M35.829 20.2788L35.7953 20.9291L48.3993 35.5566L48.8521 35.6285L48.9091 35.6001L49.1303 35.1961L43.7549 17.3968L42.8426 16.7885L35.829 20.2788Z" fill="#0096B8"/>
<path fill-rule="evenodd" clip-rule="evenodd" d="M48.3992 35.5566L48.8514 35.6285L39.5566 21.6392L35.7952 20.9291L48.3992 35.5566Z" fill="#005675"/>
<path fill-rule="evenodd" clip-rule="evenodd" d="M42.8427 16.7885L39.6295 20.5306L40.9417 21.0981L43.755 17.3974V17.3967L42.8427 16.7885Z" fill="#0BBBEF"/>
<path fill-rule="evenodd" clip-rule="evenodd" d="M40.9404 21.0982L48.9091 35.6001L49.1304 35.1948L43.7556 17.398L40.9404 21.0982Z" fill="#007290"/>
<path fill-rule="evenodd" clip-rule="evenodd" d="M55.3458 16.8266L49.9553 40.8973L50.1454 41.349L50.2357 41.3892L50.8462 41.231L64.2212 21.1882L64.2064 20.1426L56.0558 16.4356L55.3458 16.8266Z" fill="#81B73E"/>
<path fill-rule="evenodd" clip-rule="evenodd" d="M58.7917 21.6461L50.2367 41.3891L50.8456 41.231L64.2212 21.1881L58.7917 21.6461Z" fill="#69931D"/>
<path fill-rule="evenodd" clip-rule="evenodd" d="M49.9548 40.8961L50.1455 41.3478L57.253 20.8081L55.3454 16.8272L49.9548 40.8961Z" fill="#277933"/>
<path fill-rule="evenodd" clip-rule="evenodd" d="M64.2056 20.1432L58.4838 20.2164L58.7922 21.6465L64.2211 21.1883L64.2063 20.1432H64.2056Z" fill="#AECC53"/>
<path fill-rule="evenodd" clip-rule="evenodd" d="M55.3458 16.8265L57.2515 20.8068L58.4838 20.2165L56.0557 16.4364L55.3458 16.8265Z" fill="#69931D"/>
<path fill-rule="evenodd" clip-rule="evenodd" d="M54.3656 10.0041L43.9319 10.1153L43.6066 10.7332L49.3716 27.1711L49.7139 27.399L49.724 27.4006L50.0415 27.2191L55.0399 10.6958L54.3656 10.0041Z" fill="#E4032E"/>
<path fill-rule="evenodd" clip-rule="evenodd" d="M43.6067 10.7331L49.3717 27.1711L49.7122 27.3992L47.6497 12.7233L43.6067 10.7325V10.7331Z" fill="#791B15"/>
<path fill-rule="evenodd" clip-rule="evenodd" d="M49.6111 12.7259L49.7237 27.4003L50.0413 27.2176L55.0394 10.6959L49.6111 12.7259Z" fill="#B51227"/>
<path fill-rule="evenodd" clip-rule="evenodd" d="M62.5679 54.3616C62.5762 54.1893 62.586 53.9144 62.5943 53.5387V46.3096L62.572 45.6084C62.5666 45.4598 62.5598 45.3585 62.5525 45.3043C62.5453 45.248 62.5339 45.1998 62.5183 45.156C62.4661 44.9779 62.3519 44.8519 62.1804 44.7754C62.0215 44.7054 61.7864 44.6717 61.4819 44.6695V44.4242L65.4176 44.4229C65.9902 44.4253 66.5067 44.4637 66.9679 44.5424C67.4293 44.6189 67.8007 44.7256 68.0852 44.862C68.9074 45.2717 69.3141 45.9609 69.3095 46.9398C69.3196 48.3415 68.441 49.2352 66.6224 49.466L66.3175 49.5178C66.7265 49.5335 67.2791 49.6754 67.5368 49.7385C67.7922 49.8003 68.0424 49.8983 68.2882 50.0323C69.2529 50.541 69.7284 51.3536 69.7188 52.4795C69.7234 53.845 69.0889 54.7319 67.8002 55.1516C67.5191 55.2363 67.1656 55.3024 66.7392 55.3512C66.3107 55.3996 65.8467 55.4241 65.3447 55.4252H61.4819V55.1788C61.9372 55.1729 62.2499 55.0999 62.3885 54.9289C62.4459 54.8715 62.4871 54.8073 62.5141 54.734C62.5419 54.66 62.5588 54.5326 62.5679 54.3616V54.3616ZM63.7794 44.7618V49.349H65.3154C67.1013 49.3378 68.0263 48.5601 68.0359 47.0019C68.0486 45.4889 67.0743 44.7506 65.1838 44.7618H63.7794ZM68.344 52.3557C68.3331 51.2875 67.965 50.531 67.23 50.1077C67.0065 49.9892 66.7234 49.8972 66.3826 49.8316C66.0429 49.7666 65.667 49.7339 65.2567 49.7328H63.7794V55.0877H65.2567C66.3271 55.0923 67.1096 54.8827 67.5916 54.4439C67.8353 54.2321 68.0208 53.9471 68.1496 53.588C68.2778 53.2292 68.3416 52.8171 68.344 52.3557V52.3557Z" fill="black"/>
<path fill-rule="evenodd" clip-rule="evenodd" d="M75.3521 55.1113C75.2721 54.9458 75.2158 54.7487 75.1922 54.2443L75.1846 54.0959L75.0902 54.2086C74.9775 54.3401 74.867 54.4572 74.7598 54.5552C74.6508 54.654 74.5244 54.7555 74.3832 54.8579C74.0728 55.0977 73.7733 55.2665 73.4865 55.3645C73.1992 55.4625 72.876 55.5098 72.5155 55.5063C71.8877 55.5098 71.4057 55.3533 71.0613 55.046C70.8692 54.8647 70.7174 54.6363 70.6063 54.3592C70.4968 54.0823 70.44 53.7853 70.4376 53.4655C70.4444 52.2881 71.1332 51.5294 72.543 51.1927C72.9157 51.1018 73.3097 51.0272 73.7242 50.9697C74.1392 50.9112 74.6111 50.863 75.1374 50.8257L75.1922 49.7992C75.1922 49.448 75.1766 49.163 75.1439 48.9469C75.1112 48.7277 75.057 48.5364 74.9806 48.3752C74.772 47.9476 74.3453 47.7429 73.7294 47.7429C72.7408 47.7369 72.2054 48.2312 72.1496 49.2115C72.1444 49.368 72.1304 49.4785 72.1104 49.5436C72.0917 49.6067 72.0595 49.6527 72.0143 49.6865C71.9157 49.7565 71.759 49.7959 71.5347 49.7992C71.0496 49.806 70.8682 49.6552 70.8762 49.4007C70.8794 49.135 70.9637 48.8775 71.1322 48.6295C71.3019 48.3807 71.5373 48.1637 71.8417 47.9802C72.3889 47.6617 73.0896 47.4995 73.949 47.4959C74.8895 47.4995 75.5202 47.7222 75.8646 48.1501C76.0043 48.3292 76.1076 48.5519 76.1743 48.8211C76.2418 49.089 76.2758 49.4301 76.2752 49.8441L76.2739 49.931L76.2664 50.3328L76.2459 51.3933L76.2311 52.8508L76.2166 53.5567C76.2181 53.8888 76.2311 54.1419 76.2537 54.4256C76.2747 54.7013 76.3689 55.0098 76.5797 55.0909C76.7987 55.1764 77.0103 55.2101 77.4126 55.2126C77.7079 55.2071 77.9353 55.1709 78.0894 55.1023C78.2649 55.0247 78.3734 54.8579 78.4204 54.6216C78.4655 54.3918 78.4847 54.0407 78.4806 53.5714V49.457C78.4902 48.8965 78.4281 48.5026 78.2763 48.2965C78.1273 48.0962 77.8507 48.0094 77.4707 48.014V47.7943L79.5636 47.6356V49.3838L79.6727 49.1791C79.982 48.6014 80.3334 48.1917 80.7251 47.9465C81.116 47.7009 81.606 47.5782 82.1962 47.5852C83.0843 47.5716 83.7018 47.8833 84.0633 48.507C84.1965 48.7163 84.2925 48.9673 84.3501 49.2624C84.4075 49.5572 84.4371 49.9334 84.4347 50.3924V53.5714C84.4295 54.0453 84.4482 54.3986 84.4918 54.6284C84.537 54.8647 84.6431 55.0302 84.8196 55.1056C84.966 55.1698 85.306 55.2036 85.5957 55.2112C85.8677 55.2036 86.0774 55.1674 86.2214 55.1023C86.3925 55.0234 86.4965 54.8568 86.5404 54.6216C86.5832 54.391 86.6019 54.0407 86.5962 53.5714V46.097C86.6019 45.6683 86.5845 45.3509 86.5438 45.1459C86.5009 44.9316 86.3958 44.7855 86.224 44.7212C86.0748 44.6662 85.8511 44.6404 85.5575 44.639V44.4209L87.734 44.3039C87.7068 44.8113 87.6863 45.3291 87.6717 45.8594C87.6577 46.412 87.6505 46.8949 87.6505 47.3081V52.3295L90.0478 49.5741C90.3871 49.1802 90.5729 48.8492 90.5758 48.5837C90.5926 48.2143 90.2378 48.0477 89.6539 48.0172V47.7989H92.7702V48.0205C92.5831 48.0431 92.4203 48.0793 92.2815 48.1289C92.1309 48.1828 91.9765 48.2603 91.8187 48.3605C91.6588 48.4618 91.5241 48.5554 91.4159 48.6398C91.3053 48.7264 91.1748 48.8502 91.0253 49.01C90.8755 49.1701 90.6575 49.4121 90.372 49.7374L89.5809 50.6311L91.6523 54.0499C91.889 54.455 92.1065 54.7408 92.3064 54.9028C92.4971 55.0585 92.7406 55.1584 93.0336 55.2058V55.4287H91.1387C91.0868 55.3185 91.0149 55.1742 90.9235 54.9975L90.6222 54.4201L90.3912 53.9854L88.8586 51.365L87.6536 52.78L87.6505 53.5714C87.6447 54.0407 87.6632 54.3918 87.7068 54.6216C87.7512 54.8579 87.8565 55.0234 88.0304 55.1023C88.1828 55.1709 88.4086 55.2071 88.7029 55.2126V55.4287H82.2987V55.2126C82.7324 55.2001 83.0306 55.126 83.1497 54.9591C83.1975 54.8952 83.2338 54.8219 83.2598 54.7397C83.2847 54.6575 83.3005 54.5505 83.3078 54.4201C83.3164 54.3175 83.3252 54.1689 83.3348 53.9742C83.3457 53.7785 83.3509 53.6443 83.3519 53.5724V50.4847C83.3548 49.7238 83.2769 49.16 83.1126 48.8018C82.8624 48.238 82.4119 47.9555 81.7726 47.953C81.0594 47.9508 80.4912 48.3066 80.07 49.01C79.9112 49.276 79.7879 49.5787 79.6986 49.9163C79.6106 50.2538 79.5644 50.5873 79.5636 50.9137V53.5714C79.5582 54.0453 79.5769 54.3986 79.6202 54.6284C79.6654 54.8647 79.7715 55.0302 79.9483 55.1056C80.1027 55.1731 80.3319 55.2071 80.6314 55.2126V55.4287H77.4813C77.2023 55.4388 76.6695 55.4535 76.4061 55.45C76.1291 55.4456 75.996 55.4151 75.744 55.395C75.5202 55.3261 75.426 55.2654 75.3521 55.1113M71.6377 53.4192C71.6429 53.9203 71.759 54.3265 71.9907 54.6327C72.223 54.9412 72.5368 55.0999 72.9246 55.1067C73.3162 55.1012 73.6871 54.994 74.0325 54.7871C74.378 54.5788 74.6508 54.3006 74.8478 53.9563C74.9679 53.7366 75.0557 53.4543 75.1104 53.1108C75.1652 52.7708 75.1922 52.3466 75.1922 51.8389V51.0509C74.4904 51.1151 73.9884 51.1848 73.6243 51.2659C73.2568 51.347 72.9326 51.463 72.6497 51.616C71.9796 51.965 71.6429 52.5707 71.6377 53.4192" fill="black"/>
<path fill-rule="evenodd" clip-rule="evenodd" d="M10.0119 50.7943V53.531C10.0065 53.9698 10.0306 54.2962 10.0838 54.509C10.1378 54.7216 10.2536 54.8624 10.4329 54.931C10.6115 54.9996 10.8869 55.0393 11.2572 55.0459V55.4286H7.15906V55.0459C7.50788 55.0393 7.76613 54.9996 7.93457 54.931C8.10197 54.8624 8.2102 54.7216 8.25978 54.509C8.30883 54.2962 8.33141 53.9698 8.32622 53.531V46.3356C8.33089 45.8965 8.30935 45.5701 8.26185 45.3573C8.2141 45.1433 8.1095 45.0018 7.94962 44.9307C7.78923 44.8597 7.54292 44.8183 7.21071 44.8058V44.423H11.1142C12.4301 44.4173 13.3943 44.6607 14.0063 45.1534C14.6186 45.6466 14.9212 46.4222 14.9139 47.4839C14.9186 48.9743 14.365 49.9499 13.2539 50.4116C12.9642 50.5297 12.5946 50.6231 12.1459 50.6906C11.6961 50.7581 11.1968 50.7932 10.6473 50.7943H10.0119ZM10.0119 50.3678H10.6868C11.4973 50.3642 12.0935 50.1641 12.4763 49.7642C12.6842 49.5334 12.8417 49.2296 12.9497 48.8548C13.0566 48.481 13.1111 48.0533 13.1117 47.5715C13.1075 45.7593 12.3504 44.852 10.8425 44.8496H10.0119V50.3678Z" fill="black"/>
<path fill-rule="evenodd" clip-rule="evenodd" d="M21.5117 51.2558H16.7439C16.7486 51.7894 16.7784 52.2372 16.8329 52.5987C16.8872 52.9591 16.9746 53.2888 17.0945 53.5879C17.4906 54.5562 18.1023 55.0402 18.9303 55.0402C19.399 55.037 19.8239 54.8927 20.2057 54.6058C20.5867 54.3188 20.9041 53.9056 21.1566 53.3688L21.4943 53.6029C21.1623 54.2962 20.7567 54.805 20.2778 55.1303C19.799 55.4545 19.215 55.6157 18.5249 55.6122C17.4397 55.5975 16.4413 55.2338 15.8163 54.5214C15.1908 53.8087 14.8721 52.8317 14.8596 51.5934C14.8721 50.345 15.1804 49.3579 15.7844 48.6305C16.3878 47.9037 17.3515 47.5321 18.3902 47.5163C19.0808 47.5177 19.7478 47.6829 20.2212 48.0118C20.6946 48.3392 21.0437 48.82 21.2688 49.4526C21.3422 49.662 21.3983 49.9015 21.4359 50.1732C21.4738 50.4432 21.4992 50.8045 21.5117 51.2558M16.7571 50.8314H19.7398C19.7276 50.3787 19.7048 50.0142 19.6705 49.7385C19.637 49.4613 19.583 49.215 19.5106 48.9977C19.2583 48.2279 18.8716 47.8463 18.3499 47.8528C17.7647 47.8588 17.3284 48.2886 17.0406 49.1439C16.9668 49.3658 16.9082 49.6089 16.863 49.8724C16.8184 50.1359 16.7828 50.4555 16.7571 50.8314" fill="black"/>
<path fill-rule="evenodd" clip-rule="evenodd" d="M21.8167 47.7257L24.4614 47.5343C24.4757 47.8115 24.4861 48.0431 24.4933 48.2312C24.5006 48.4204 24.504 48.5857 24.504 48.7299V49.1723C25.0786 48.0703 25.7726 47.5142 26.586 47.5052C26.9374 47.512 27.2232 47.6198 27.4423 47.827C27.6618 48.0352 27.775 48.302 27.7815 48.6265C27.7765 48.8965 27.6816 49.1127 27.4968 49.2757C27.3122 49.4377 27.0693 49.5224 26.769 49.5256C26.4077 49.5379 26.1874 49.3816 26.1077 49.0542C26.0555 48.8513 26.0018 48.7141 25.9457 48.6409C25.8902 48.5677 25.8084 48.5339 25.6994 48.5375H25.6717C25.3947 48.562 25.1323 48.7928 24.8834 49.2319C24.7713 49.4502 24.687 49.6911 24.6306 49.9555C24.5743 50.2201 24.5463 50.5252 24.5463 50.8699V53.5994C24.5406 54.0352 24.5611 54.3559 24.6068 54.5631C24.6522 54.7689 24.756 54.9039 24.9169 54.9684C25.0786 55.0313 25.3296 55.0672 25.6717 55.0751V55.4287H21.7606V55.0751C22.0793 55.0762 22.3158 55.0438 22.4689 54.9774C22.6231 54.911 22.7222 54.7724 22.7679 54.5631C22.8141 54.3513 22.8343 54.0306 22.8302 53.5994V49.5112C22.8427 48.9031 22.785 48.5081 22.6558 48.3257C22.5265 48.1433 22.247 48.0611 21.8167 48.0804V47.7257Z" fill="black"/>
<path fill-rule="evenodd" clip-rule="evenodd" d="M30.9237 47.5343L30.938 48.9953C31.5077 48.0118 32.3237 47.5153 33.386 47.5052C34.4662 47.4984 35.1325 48.014 35.3835 49.0552C35.6887 48.5181 36.038 48.1253 36.4297 47.8765C36.8213 47.6255 37.2792 47.5017 37.8029 47.5052C38.6309 47.5096 39.2405 47.7957 39.6322 48.3605C39.7848 48.5756 39.8943 48.8366 39.9589 49.1464C40.0243 49.4567 40.056 49.8588 40.0542 50.3532V53.5994C40.0493 54.0306 40.07 54.3513 40.1157 54.5617C40.1614 54.7724 40.2613 54.911 40.4144 54.9774C40.5686 55.0438 40.8048 55.0762 41.1235 55.074V55.4287H37.3106V55.074C37.6155 55.0762 37.8418 55.0438 37.9895 54.9774C38.1375 54.911 38.2338 54.7724 38.2774 54.5617C38.3225 54.3513 38.3422 54.0306 38.3381 53.5994V50.3676C38.3415 49.5923 38.2501 49.0326 38.0656 48.6894C37.8805 48.345 37.582 48.177 37.1699 48.1838C36.6752 48.1738 36.2576 48.4441 35.9181 48.9953C35.6254 49.4548 35.4795 49.9525 35.4816 50.486V53.5994C35.4774 54.0306 35.4974 54.3513 35.542 54.5617C35.5872 54.7724 35.6845 54.911 35.834 54.9774C35.984 55.0438 36.2132 55.0762 36.5231 55.074V55.4287H32.7525V55.074C33.0572 55.0762 33.2838 55.0438 33.4317 54.9774C33.5794 54.911 33.6754 54.7724 33.7193 54.5617C33.7639 54.3513 33.7844 54.0306 33.7792 53.5994V50.3532C33.7865 48.8919 33.4068 48.1691 32.6398 48.1838C32.1628 48.2018 31.7626 48.4395 31.4408 48.8954C31.1181 49.3525 30.9505 49.922 30.938 50.6039V53.5994C30.9336 54.0352 30.9533 54.3592 30.998 54.5688C31.0424 54.7789 31.1381 54.9164 31.2858 54.9806C31.4338 55.0449 31.6598 55.0762 31.965 55.074V55.4287H28.1521V55.074C28.4713 55.0762 28.7067 55.0449 28.8609 54.9806C29.0143 54.9164 29.1142 54.7789 29.1599 54.5688C29.2058 54.3592 29.2263 54.0352 29.2212 53.5994V49.4976C29.2362 48.8965 29.1786 48.5081 29.0488 48.3303C28.9196 48.1515 28.6302 48.0692 28.1806 48.0804V47.7257L30.9237 47.5343Z" fill="black"/>
<path fill-rule="evenodd" clip-rule="evenodd" d="M51.1256 48.2098V53.1381C51.1251 53.4588 51.1365 53.7245 51.1591 53.9349C51.1817 54.1453 51.2175 54.322 51.2663 54.466C51.3255 54.6307 51.4179 54.7622 51.5419 54.8615C51.6668 54.9593 51.8049 55.0099 51.9551 55.0121C52.2559 55.0077 52.584 54.8545 52.9406 54.5553L53.1373 54.9231C52.5723 55.4207 51.9302 55.6662 51.2102 55.6616C50.4337 55.6493 49.9042 55.3779 49.62 54.8501C49.5645 54.733 49.5211 54.6002 49.4903 54.4494C49.4602 54.2997 49.4384 54.0982 49.4264 53.8426C49.4145 53.5881 49.4085 53.2448 49.409 52.8136V48.2098H48.6073V47.7675C48.9141 47.7549 49.1734 47.6874 49.3864 47.5647C49.5998 47.4411 49.7854 47.2486 49.9442 46.9851C50.0685 46.7848 50.1713 46.5618 50.2515 46.3176C50.3322 46.0732 50.4031 45.7694 50.4646 45.4057L51.1682 45.3327C51.1589 45.5274 51.1503 45.7255 51.1443 45.927C51.1384 46.1273 51.1334 46.3693 51.1306 46.6516C51.1272 46.9342 51.1256 47.2968 51.1256 47.737H52.8282V48.2098H51.1256Z" fill="black"/>
<path fill-rule="evenodd" clip-rule="evenodd" d="M48.6003 55.1169V55.4286C48.189 55.4569 48.0226 55.4569 47.5899 55.4569C47.2466 55.4569 46.891 55.4509 46.5959 55.3352C46.4134 55.2631 46.3117 55.2013 46.1754 55.0515C46.0804 54.8928 46.02 54.8836 45.9896 54.4437C45.6262 54.8555 45.2483 55.1572 44.8557 55.3521C44.4619 55.5456 44.0384 55.6414 43.5842 55.6393C42.9088 55.6314 42.3807 55.4365 41.9991 55.0526C41.6179 54.6688 41.4245 54.141 41.4172 53.4699C41.4149 52.2036 42.1652 51.4166 43.668 51.1093C44.3459 50.971 45.1147 50.8776 45.9756 50.8281V49.869C45.9826 49.1011 45.905 48.5689 45.7435 48.2727C45.5813 47.9765 45.293 47.835 44.8782 47.8486C44.4373 47.8383 44.1232 48.0059 43.9356 48.3495C43.8676 48.4687 43.8175 48.6037 43.7861 48.7581C43.7549 48.9111 43.7295 49.1237 43.7106 49.3973C43.6994 49.6608 43.6267 49.8475 43.4923 49.958C43.3581 50.0694 43.1448 50.1233 42.8523 50.1211C42.2003 50.1157 41.8722 49.8892 41.8675 49.4422C41.8696 49.1811 41.9467 48.9312 42.0983 48.6949C42.2493 48.4573 42.4635 48.249 42.7401 48.0691C43.3257 47.691 44.0949 47.504 45.0475 47.5086C46.0155 47.504 46.7096 47.7054 47.1292 48.114C47.3185 48.301 47.4573 48.5395 47.5461 48.8289C47.6351 49.1193 47.6787 49.4909 47.6777 49.9444L47.6634 51.2277L47.6496 52.5109C47.6382 52.932 47.633 53.1975 47.6356 53.3077C47.6304 53.8404 47.6465 54.2286 47.6834 54.4731C47.7205 54.7184 47.761 54.8264 47.9141 54.9593C48.1827 55.1204 48.4132 55.1158 48.6003 55.1169M45.9756 52.3048V51.1691C44.9683 51.2402 44.2538 51.4356 43.8318 51.7544C43.4105 52.074 43.2055 52.5716 43.2182 53.2484C43.2224 53.7795 43.3262 54.2006 43.5297 54.5123C43.7324 54.8242 44.0088 54.9829 44.3576 54.9895C44.6439 54.9873 44.9081 54.9007 45.1508 54.7295C45.3932 54.5596 45.5834 54.3209 45.7223 54.016C45.8126 53.8293 45.8775 53.6017 45.918 53.3314C45.9572 53.0613 45.9766 52.7192 45.9756 52.3048" fill="black"/>
<path fill-rule="evenodd" clip-rule="evenodd" d="M60.7135 55.1169V55.4286C60.3019 55.4569 60.1358 55.458 59.7031 55.458C59.3595 55.458 59.0047 55.4523 58.7088 55.3363C58.5263 55.2644 58.4249 55.2035 58.2889 55.0516C58.1936 54.8939 58.1329 54.8847 58.1028 54.4448C57.7394 54.8556 57.3615 55.1583 56.9686 55.3532C56.5751 55.5456 56.1513 55.6425 55.6971 55.6404C55.0217 55.6322 54.4938 55.4365 54.1123 55.0537C53.731 54.6699 53.5377 54.1421 53.5302 53.471C53.5281 52.2047 54.2784 51.418 55.7812 51.1106C56.4591 50.9721 57.2279 50.8787 58.0885 50.8291V49.8701C58.0955 49.1025 58.0179 48.57 57.8565 48.2727C57.6945 47.9766 57.4059 47.8361 56.9912 47.8497C56.5504 47.8396 56.2361 48.0073 56.0485 48.3503C55.9805 48.4698 55.9304 48.6048 55.8993 48.7592C55.8681 48.9122 55.8427 49.1248 55.824 49.3984C55.8126 49.6608 55.7399 49.8475 55.6052 49.9591C55.4713 50.0705 55.2579 50.1244 54.9652 50.1222C54.3135 50.1167 53.9854 49.8905 53.9805 49.4435C53.9825 49.1822 54.0596 48.9323 54.2112 48.696C54.3622 48.4587 54.5766 48.2501 54.853 48.0713C55.4388 47.6921 56.2081 47.5051 57.1604 47.5097C58.1285 47.5051 58.8227 47.7065 59.2424 48.1151C59.4316 48.3021 59.5705 48.5409 59.659 48.83C59.7477 49.1204 59.7919 49.492 59.7906 49.9444L59.7766 51.2288L59.7628 52.512C59.7514 52.9329 59.7462 53.1986 59.7485 53.3088C59.7436 53.8413 59.7597 54.2297 59.7963 54.4742C59.8337 54.7194 59.8739 54.8278 60.0273 54.9604C60.2956 55.1215 60.5264 55.1158 60.7135 55.1169M58.0885 52.3062V51.1692C57.0812 51.2413 56.3669 51.437 55.9449 51.7555C55.5227 52.0754 55.3184 52.5727 55.3311 53.2495C55.3355 53.7808 55.4393 54.2017 55.6426 54.5134C55.8455 54.8253 56.1219 54.984 56.4705 54.9906C56.757 54.9884 57.0213 54.9018 57.2639 54.7306C57.5061 54.5607 57.6966 54.322 57.8349 54.0171C57.9258 53.8301 57.9906 53.6028 58.0306 53.3325C58.0703 53.0624 58.0898 52.7203 58.0885 52.3062" fill="black"/>
</g>
</svg>
