<svg width="101" height="72" viewBox="0 0 101 72" fill="none" xmlns="http://www.w3.org/2000/svg">
<rect width="100.227" height="71.4578" rx="5.76117" fill="#0742A6"/>
<path fill-rule="evenodd" clip-rule="evenodd" d="M45.8498 45.3671H40.7816L43.9516 26.3134H49.0195L45.8498 45.3671Z" fill="white"/>
<path fill-rule="evenodd" clip-rule="evenodd" d="M64.2223 26.7793C63.2226 26.3937 61.637 25.9681 59.6765 25.9681C54.6715 25.9681 51.1471 28.5625 51.1255 32.2717C51.0839 35.0083 53.6489 36.5284 55.5673 37.4408C57.5281 38.3733 58.1946 38.9819 58.1946 39.813C58.1747 41.0894 56.6102 41.6778 55.151 41.6778C53.1276 41.6778 52.0434 41.3745 50.3957 40.6643L49.7284 40.3599L49.0192 44.637C50.2078 45.1634 52.3978 45.6306 54.6715 45.6511C59.9894 45.6511 63.4515 43.0968 63.4925 39.144C63.5128 36.975 62.1584 35.313 59.2384 33.955C57.4657 33.0832 56.3802 32.4953 56.3802 31.6033C56.4009 30.7924 57.2983 29.9618 59.2993 29.9618C60.947 29.9211 62.1575 30.3061 63.0746 30.6913L63.533 30.8937L64.2223 26.7793V26.7793V26.7793Z" fill="white"/>
<path fill-rule="evenodd" clip-rule="evenodd" d="M73.2941 26.3134H77.2144L81.3031 45.3668H76.6105C76.6105 45.3668 76.1512 43.1776 76.0057 42.5087H69.4986C69.3104 43.0152 68.4349 45.3668 68.4349 45.3668H63.1171L70.6452 27.8943C71.1668 26.6578 72.0852 26.3134 73.2941 26.3134ZM72.9818 33.286C72.9818 33.286 71.3757 37.5225 70.9583 38.6171H75.171C74.9625 37.6645 74.0028 33.1036 74.0028 33.1036L73.6486 31.4618C73.4994 31.8846 73.2837 32.4659 73.1382 32.8579C73.0396 33.1237 72.9733 33.3025 72.9818 33.286Z" fill="white"/>
<path fill-rule="evenodd" clip-rule="evenodd" d="M36.5485 26.3134L31.5851 39.3062L31.0427 36.6711C30.1251 33.6306 27.2472 30.3271 24.0356 28.6845L28.5819 45.3469H33.9414L41.9077 26.3134H36.5485V26.3134V26.3134Z" fill="white"/>
<path fill-rule="evenodd" clip-rule="evenodd" d="M26.9761 26.3134H18.8219L18.7385 26.6984C25.0993 28.2796 29.3119 32.0909 31.0427 36.6719L29.2701 27.9151C28.9782 26.6982 28.0814 26.3536 26.9761 26.3134V26.3134Z" fill="white"/>
</svg>
